<svg xmlns="http://www.w3.org/2000/svg" viewBox="0 0 763 355">
	<defs>
		<style>
			path {
				stroke-width:1.5;
				stroke-linejoin:round;
				}
		</style>
	</defs>
	<path d="M539.06 25.852l-86.174 51.741-172.082-33.447 100.613-44.12 157.643 25.826zm0 0" fill="#2D92B7" stroke="#2D92B7"/>
	<path d="M528.659 189.414l-80.707 74.43 4.934-186.251 86.174-51.741-10.401 163.562zm0 0" fill="#23708B" stroke="#23708B"/>
	<path d="M452.886 77.593l-4.934 186.251-161.503-46.092-5.645-173.606 172.082 33.447zm0 0" fill="#2B86A8" stroke="#2B86A8"/>
	<path d="M397.144 112.526l-7.603 14.72c-4.104-5.414-10.608-9.108-19.452-11.073-8.81-1.955-15.723.466-20.754 7.197-4.979 6.659-7.38 15.443-7.246 26.342.132 10.817 2.545 20.171 7.241 28.124 4.693 7.953 11.206 13.014 19.592 15.203 9.317 2.43 16.657.819 21.999-4.892l8.393 17.443c-7.396 6.078-18.002 7.215-31.747 3.516-13.647-3.673-24.13-11.193-31.587-22.596-7.452-11.396-11.326-25.28-11.632-41.812-.285-15.514 3.562-27.798 11.65-36.833 8.218-9.181 19.184-12.378 32.941-9.446 11.554 2.464 20.985 7.169 28.205 14.107zm0 0" fill="#fff"/>
	<path d="M295.152 71.226l-185.622 54.163-108.609-55.96 176.581-41.066 117.65 42.863zm0 0" fill="#9DCA1D" stroke="#9DCA1D"/>
	<path d="M109.53 125.389l24.211 202.478-102.855-74.963-29.965-183.475 108.609 55.96zm0 0" fill="#7B9C19" stroke="#7B9C19"/>
	<path d="M302.057 254.518l-168.316 73.349-24.211-202.478 185.622-54.163 6.905 183.292zm0 0" fill="#93BB1B" stroke="#93BB1B"/>
	<path d="M252.028 207.457c-.897-15.082-7.725-22.83-20.695-23.1 8.281-8.247 12.11-16.932 11.536-26.161-.595-9.566-4.097-15.99-10.567-19.234-6.559-3.289-15.393-3.172-26.566.427-3.483 1.123-13.872 4.903-31.476 11.447l10.795 116.908 32.061-13.104c11.053-4.518 19.747-11.023 26.191-19.549 6.413-8.482 9.314-17.659 8.721-27.634zm-56.384-45.8c4.405-1.87 8.081-3.298 11.04-4.292 11.325-3.798 17.242-1.11 17.882 7.965.714 10.111-4.972 17.287-17.211 21.655-2.387.852-5.499 1.856-9.35 3.011l-2.361-28.339zm33.019 67.806c-3.644 4.301-9.272 7.967-16.939 11.008-2.369.941-5.449 2.006-9.25 3.197l-3.128-37.561c2.961-1.254 6.135-2.504 9.519-3.751 8.815-3.249 14.978-3.991 18.55-2.269 3.544 1.711 5.521 5.705 5.946 11.964.5 7.334-1.064 13.121-4.698 17.412zm0 0" fill="#fff"/>
	<path d="M762.891 74.275l-58.109 71.38-225.083-46.092 85.19-57.569 198.002 32.281zm0 0" fill="#1C4D61" stroke="#1C4D61"/>
	<path d="M733.828 259l-58.823 95.772 29.777-209.117 58.109-71.38-29.063 184.725zm0 0" fill="#173A49" stroke="#173A49"/>
	<path d="M704.782 145.655l-29.777 209.117-203.737-59.901 8.431-195.308 225.083 46.092zm0 0" fill="#194455" stroke="#194455"/>
	<path d="M591.589 188.621l-9.548 100.865-21.933-6.086 8.44-100.152-40.097-9.349 1.28-19.337 108.675 24.402-2.304 20.036-44.513-10.379zm0 0" fill="#fff"/>
</svg>