<?xml version="1.0" encoding="utf-8"?>
<!-- Generator: Adobe Illustrator 16.0.0, SVG Export Plug-In . SVG Version: 6.00 Build 0)  -->
<!DOCTYPE svg PUBLIC "-//W3C//DTD SVG 1.1//EN" "http://www.w3.org/Graphics/SVG/1.1/DTD/svg11.dtd">
<svg version="1.1" id="Layer_1" xmlns="http://www.w3.org/2000/svg" xmlns:xlink="http://www.w3.org/1999/xlink" x="0px" y="0px"
	 width="50px" height="50px" viewBox="0 0 50 50" style="enable-background:new 0 0 50 50;" xml:space="preserve">
<style type="text/css">
<![CDATA[
	.st0{fill:#7A7A76;}
	.st1{fill:#7B7A75;}
	.st2{fill:#AAA244;}
	.st3{fill:#7C7B74;}
	.st4{fill:#ABA343;}
	.st5{fill:#7D7C73;}
	.st6{fill:#ACA442;}
	.st7{fill:#7E7D72;}
	.st8{fill:#ADA541;}
	.st9{fill:#7F7E71;}
	.st10{fill:#AEA540;}
	.st11{fill:#AFA63F;}
	.st12{fill:#E0CF0D;}
	.st13{fill:#E0D00C;}
	.st14{fill:#E1D10B;}
	.st15{fill:#E2D20A;}
	.st16{fill:#E3D309;}
	.st17{fill:#E4D408;}
	.st18{fill:#E5D407;}
	.st19{fill:#E6D506;}
	.st20{fill:#E7D605;}
	.st21{fill:#E8D704;}
	.st22{fill:#E9D803;}
	.st23{fill:#807E70;}
	.st24{fill:#817F6F;}
	.st25{fill:#B0A73E;}
	.st26{fill:#82806E;}
	.st27{fill:#B1A83D;}
	.st28{fill:#83816D;}
	.st29{fill:#B2A93C;}
	.st30{fill:#84826C;}
	.st31{fill:#84836B;}
	.st32{fill:#B3AA3B;}
	.st33{fill:#85836A;}
	.st34{fill:#B4AB3A;}
	.st35{fill:#868469;}
	.st36{fill:#B5AC39;}
	.st37{fill:#878568;}
	.st38{fill:#B6AD38;}
	.st39{fill:#EAD802;}
	.st40{fill:#888667;}
	.st41{fill:#B7AD37;}
	.st42{fill:#EBD901;}
	.st43{fill:#898766;}
	.st44{fill:#B8AE36;}
	.st45{fill:#ECDA00;}
	.st46{fill:#B9AF35;}
	.st47{fill:#8A8765;}
	.st48{fill:#8B8864;}
	.st49{fill:#BAB034;}
	.st50{fill:#8C8963;}
	.st51{fill:#BBB133;}
	.st52{fill:#8D8A62;}
	.st53{fill:#BCB232;}
	.st54{fill:#8E8B61;}
	.st55{fill:#BDB231;}
	.st56{fill:#8F8B60;}
	.st57{fill:#BEB330;}
	.st58{fill:#BFB42F;}
	.st59{fill:#908C5F;}
	.st60{fill:#918D5E;}
	.st61{fill:#C0B52E;}
	.st62{fill:#928E5D;}
	.st63{fill:#C1B62D;}
	.st64{fill:#938F5C;}
	.st65{fill:#C2B62C;}
	.st66{fill:#948F5B;}
	.st67{fill:#C3B72B;}
	.st68{fill:#95905A;}
	.st69{fill:#C4B82A;}
	.st70{fill:#969159;}
	.st71{fill:#C5B929;}
	.st72{fill:#979258;}
	.st73{fill:#C6BA28;}
	.st74{fill:#989357;}
	.st75{fill:#C7BA27;}
	.st76{fill:#999456;}
	.st77{fill:#C8BB26;}
	.st78{fill:#C9BC25;}
	.st79{fill:#C9BD24;}
	.st80{fill:#9A9455;}
	.st81{fill:#9B9554;}
	.st82{fill:#9B9653;}
	.st83{fill:#CABE23;}
	.st84{fill:#9C9752;}
	.st85{fill:#CBBE22;}
	.st86{fill:#9D9851;}
	.st87{fill:#CCBF21;}
	.st88{fill:#9E9850;}
	.st89{fill:#CDC020;}
	.st90{fill:#9F994F;}
	.st91{fill:#CEC11F;}
	.st92{fill:#CFC21E;}
	.st93{fill:#D0C31D;}
	.st94{fill:#D1C31C;}
	.st95{fill:#D2C41B;}
	.st96{fill:#D3C51A;}
	.st97{fill:#D4C619;}
	.st98{fill:#D5C718;}
	.st99{fill:#D6C717;}
	.st100{fill:#D7C816;}
	.st101{fill:#D8C915;}
	.st102{fill:#D9CA14;}
	.st103{fill:#A09A4E;}
	.st104{fill:#A19B4D;}
	.st105{fill:#A29C4C;}
	.st106{fill:#A39C4B;}
	.st107{fill:#A49D4A;}
	.st108{fill:#A59E49;}
	.st109{fill:#A69F48;}
	.st110{fill:#DACB13;}
	.st111{fill:#787878;}
	.st112{fill:#A7A047;}
	.st113{fill:#DBCB12;}
	.st114{fill:#797977;}
	.st115{fill:#A8A046;}
	.st116{fill:#DCCC11;}
	.st117{fill:#A9A145;}
	.st118{fill:#DDCD10;}
	.st119{fill:#DECE0F;}
	.st120{fill:#DFCF0E;}
]]>
</style>
<g>
	<path class="st111" d="M42.5,38.12c0,2.42-1.96,4.38-4.38,4.38H11.88c-2.42,0-4.38-1.96-4.38-4.38V11.88
		c0-2.42,1.96-4.38,4.38-4.38h26.25c2.42,0,4.38,1.96,4.38,4.38L42.5,38.12L42.5,38.12z"/>
	<path class="st114" d="M42.53,37.97c0,2.41-1.95,4.36-4.36,4.36H12.03c-2.41,0-4.36-1.95-4.36-4.36V11.83
		c0-2.41,1.95-4.36,4.36-4.36h26.15c2.41,0,4.36,1.95,4.36,4.36L42.53,37.97L42.53,37.97z"/>
	<path class="st0" d="M42.56,37.82c0,2.4-1.94,4.35-4.35,4.35H12.18c-2.4,0-4.35-1.95-4.35-4.35V11.78c0-2.4,1.94-4.35,4.35-4.35
		h26.05c2.4,0,4.35,1.94,4.35,4.35L42.56,37.82L42.56,37.82z"/>
	<path class="st1" d="M42.59,37.67c0,2.39-1.94,4.33-4.33,4.33H12.33C9.94,42,8,40.06,8,37.67V11.73c0-2.39,1.94-4.33,4.33-4.33
		h25.94c2.39,0,4.33,1.94,4.33,4.33L42.59,37.67L42.59,37.67z"/>
	<path class="st3" d="M42.62,37.52c0,2.38-1.93,4.31-4.31,4.31H12.48c-2.38,0-4.31-1.93-4.31-4.31V11.69c0-2.38,1.93-4.31,4.31-4.31
		h25.84c2.38,0,4.31,1.93,4.31,4.31L42.62,37.52L42.62,37.52z"/>
	<path class="st5" d="M42.65,37.37c0,2.37-1.92,4.29-4.29,4.29H12.63c-2.37,0-4.29-1.92-4.29-4.29V11.64c0-2.37,1.92-4.29,4.29-4.29
		h25.74c2.37,0,4.29,1.92,4.29,4.29L42.65,37.37L42.65,37.37z"/>
	<path class="st7" d="M42.68,37.21c0,2.36-1.91,4.28-4.28,4.28H12.78c-2.36,0-4.28-1.91-4.28-4.28V11.59c0-2.36,1.91-4.28,4.28-4.28
		h25.64c2.36,0,4.28,1.91,4.28,4.28L42.68,37.21L42.68,37.21z"/>
	<path class="st9" d="M42.71,37.06c0,2.35-1.91,4.26-4.26,4.26H12.93c-2.35,0-4.26-1.91-4.26-4.26V11.54c0-2.35,1.91-4.26,4.26-4.26
		h25.53c2.35,0,4.26,1.91,4.26,4.26L42.71,37.06L42.71,37.06z"/>
	<path class="st23" d="M42.74,36.91c0,2.34-1.9,4.24-4.24,4.24H13.08c-2.34,0-4.24-1.9-4.24-4.24V11.49c0-2.34,1.9-4.24,4.24-4.24
		h25.43c2.34,0,4.24,1.9,4.24,4.24L42.74,36.91L42.74,36.91z"/>
	<path class="st24" d="M42.77,36.76c0,2.33-1.89,4.23-4.23,4.23H13.23C10.89,40.99,9,39.1,9,36.76V11.44c0-2.34,1.89-4.23,4.23-4.23
		h25.33c2.33,0,4.23,1.89,4.23,4.23L42.77,36.76L42.77,36.76z"/>
	<path class="st26" d="M42.8,36.61c0,2.33-1.88,4.21-4.21,4.21H13.38c-2.33,0-4.21-1.88-4.21-4.21V11.39c0-2.33,1.88-4.21,4.21-4.21
		H38.6c2.33,0,4.21,1.88,4.21,4.21L42.8,36.61L42.8,36.61z"/>
	<path class="st28" d="M42.83,36.46c0,2.32-1.88,4.19-4.19,4.19H13.53c-2.32,0-4.19-1.88-4.19-4.19V11.34
		c0-2.32,1.88-4.19,4.19-4.19h25.12c2.32,0,4.19,1.88,4.19,4.19L42.83,36.46L42.83,36.46z"/>
	<path class="st30" d="M42.86,36.31c0,2.31-1.87,4.17-4.17,4.17H13.68c-2.31,0-4.17-1.87-4.17-4.17V11.29
		c0-2.31,1.87-4.17,4.17-4.17H38.7c2.31,0,4.17,1.87,4.17,4.17L42.86,36.31L42.86,36.31z"/>
	<path class="st31" d="M42.89,36.16c0,2.3-1.86,4.16-4.16,4.16H13.82c-2.3,0-4.16-1.86-4.16-4.16V11.25c0-2.3,1.86-4.16,4.16-4.16
		h24.92c2.3,0,4.16,1.86,4.16,4.16L42.89,36.16L42.89,36.16z"/>
	<path class="st33" d="M42.92,36.01c0,2.29-1.85,4.14-4.14,4.14H13.97c-2.29,0-4.14-1.85-4.14-4.14V11.2c0-2.29,1.85-4.14,4.14-4.14
		h24.82c2.29,0,4.14,1.85,4.14,4.14L42.92,36.01L42.92,36.01z"/>
	<path class="st35" d="M42.96,35.86c0,2.28-1.85,4.12-4.12,4.12H14.12c-2.28,0-4.12-1.84-4.12-4.12V11.15
		c0-2.28,1.85-4.12,4.12-4.12h24.72c2.28,0,4.12,1.85,4.12,4.12L42.96,35.86L42.96,35.86z"/>
	<path class="st37" d="M42.99,35.7c0,2.27-1.84,4.11-4.11,4.11h-24.6c-2.27,0-4.11-1.84-4.11-4.11V11.1c0-2.27,1.84-4.11,4.11-4.11
		h24.61c2.27,0,4.11,1.84,4.11,4.11L42.99,35.7L42.99,35.7z"/>
	<path class="st40" d="M43.02,35.55c0,2.26-1.83,4.09-4.09,4.09h-24.5c-2.26,0-4.09-1.83-4.09-4.09v-24.5
		c0-2.26,1.83-4.09,4.09-4.09h24.51c2.26,0,4.09,1.83,4.09,4.09L43.02,35.55L43.02,35.55z"/>
	<path class="st43" d="M43.05,35.4c0,2.25-1.82,4.07-4.07,4.07h-24.4c-2.25,0-4.07-1.82-4.07-4.07V11c0-2.25,1.82-4.07,4.07-4.07
		h24.41c2.25,0,4.07,1.82,4.07,4.07L43.05,35.4L43.05,35.4z"/>
	<path class="st47" d="M43.08,35.25c0,2.24-1.81,4.06-4.06,4.06h-24.3c-2.24,0-4.06-1.82-4.06-4.06v-24.3
		c0-2.24,1.81-4.06,4.06-4.06h24.31c2.24,0,4.06,1.81,4.06,4.06L43.08,35.25L43.08,35.25z"/>
	<path class="st48" d="M43.11,35.1c0,2.23-1.81,4.04-4.04,4.04h-24.2c-2.23,0-4.04-1.81-4.04-4.04v-24.2c0-2.23,1.81-4.04,4.04-4.04
		h24.21c2.23,0,4.04,1.81,4.04,4.04L43.11,35.1L43.11,35.1z"/>
	<path class="st50" d="M43.14,34.95c0,2.22-1.8,4.02-4.02,4.02H15.02c-2.22,0-4.02-1.8-4.02-4.02V10.86c0-2.22,1.8-4.02,4.02-4.02
		h24.1c2.22,0,4.02,1.8,4.02,4.02L43.14,34.95L43.14,34.95z"/>
	<path class="st52" d="M43.17,34.8c0,2.21-1.79,4-4,4H15.17c-2.21,0-4-1.79-4-4V10.81c0-2.21,1.79-4,4-4h24c2.21,0,4,1.79,4,4
		L43.17,34.8L43.17,34.8z"/>
	<path class="st54" d="M43.2,34.65c0,2.2-1.78,3.99-3.99,3.99H15.32c-2.2,0-3.99-1.78-3.99-3.99V10.76c0-2.2,1.78-3.99,3.99-3.99
		h23.9c2.2,0,3.99,1.78,3.99,3.99L43.2,34.65L43.2,34.65z"/>
	<path class="st56" d="M43.23,34.5c0,2.19-1.78,3.97-3.97,3.97H15.47c-2.19,0-3.97-1.78-3.97-3.97V10.71c0-2.19,1.78-3.97,3.97-3.97
		h23.8c2.19,0,3.97,1.78,3.97,3.97L43.23,34.5L43.23,34.5z"/>
	<path class="st59" d="M43.26,34.35c0,2.18-1.77,3.95-3.95,3.95H15.62c-2.18,0-3.95-1.77-3.95-3.95V10.66
		c0-2.18,1.77-3.95,3.95-3.95h23.69c2.18,0,3.95,1.77,3.95,3.95L43.26,34.35L43.26,34.35z"/>
	<path class="st60" d="M43.29,34.2c0,2.17-1.76,3.94-3.94,3.94H15.77c-2.17,0-3.94-1.76-3.94-3.94V10.61c0-2.17,1.76-3.94,3.94-3.94
		h23.59c2.17,0,3.94,1.76,3.94,3.94L43.29,34.2L43.29,34.2z"/>
	<path class="st62" d="M43.32,34.04c0,2.17-1.75,3.92-3.92,3.92H15.92c-2.17,0-3.92-1.75-3.92-3.92V10.56
		c0-2.17,1.75-3.92,3.92-3.92h23.49c2.17,0,3.92,1.75,3.92,3.92L43.32,34.04L43.32,34.04z"/>
	<path class="st64" d="M43.35,33.89c0,2.16-1.75,3.9-3.9,3.9H16.07c-2.16,0-3.9-1.75-3.9-3.9V10.52c0-2.16,1.75-3.9,3.9-3.9h23.39
		c2.16,0,3.9,1.75,3.9,3.9L43.35,33.89L43.35,33.89z"/>
	<path class="st66" d="M43.38,33.74c0,2.15-1.74,3.88-3.89,3.88H16.22c-2.15,0-3.88-1.74-3.88-3.88V10.47
		c0-2.15,1.74-3.88,3.88-3.88H39.5c2.15,0,3.89,1.74,3.89,3.88L43.38,33.74L43.38,33.74z"/>
	<path class="st68" d="M43.41,33.59c0,2.14-1.73,3.87-3.87,3.87H16.37c-2.14,0-3.87-1.73-3.87-3.87V10.42
		c0-2.14,1.73-3.87,3.87-3.87h23.18c2.14,0,3.87,1.73,3.87,3.87L43.41,33.59L43.41,33.59z"/>
	<path class="st70" d="M43.44,33.44c0,2.13-1.72,3.85-3.85,3.85H16.52c-2.13,0-3.85-1.72-3.85-3.85V10.37
		c0-2.13,1.72-3.85,3.85-3.85H39.6c2.13,0,3.85,1.72,3.85,3.85L43.44,33.44L43.44,33.44z"/>
	<path class="st72" d="M43.47,33.29c0,2.12-1.72,3.83-3.83,3.83H16.67c-2.12,0-3.83-1.72-3.83-3.83V10.32
		c0-2.12,1.72-3.83,3.83-3.83h22.98c2.12,0,3.83,1.72,3.83,3.83L43.47,33.29L43.47,33.29z"/>
	<path class="st74" d="M43.5,33.14c0,2.11-1.71,3.82-3.82,3.82H16.82c-2.11,0-3.82-1.71-3.82-3.82V10.27c0-2.11,1.71-3.82,3.82-3.82
		h22.88c2.11,0,3.82,1.71,3.82,3.82L43.5,33.14L43.5,33.14z"/>
	<path class="st76" d="M43.53,32.99c0,2.1-1.7,3.8-3.8,3.8H16.97c-2.1,0-3.8-1.7-3.8-3.8V10.22c0-2.1,1.7-3.8,3.8-3.8h22.77
		c2.1,0,3.8,1.7,3.8,3.8L43.53,32.99L43.53,32.99z"/>
	<path class="st80" d="M43.56,32.84c0,2.09-1.69,3.78-3.78,3.78H17.12c-2.09,0-3.78-1.69-3.78-3.78V10.17
		c0-2.09,1.69-3.78,3.78-3.78h22.67c2.09,0,3.78,1.69,3.78,3.78L43.56,32.84L43.56,32.84z"/>
	<path class="st81" d="M43.59,32.69c0,2.08-1.68,3.77-3.77,3.77H17.27c-2.08,0-3.77-1.69-3.77-3.77V10.12
		c0-2.08,1.69-3.77,3.77-3.77h22.57c2.08,0,3.77,1.69,3.77,3.77L43.59,32.69L43.59,32.69z"/>
	<path class="st82" d="M43.62,32.54c0,2.07-1.68,3.75-3.75,3.75H17.42c-2.07,0-3.75-1.68-3.75-3.75V10.08
		c0-2.07,1.68-3.75,3.75-3.75h22.47c2.07,0,3.75,1.68,3.75,3.75L43.62,32.54L43.62,32.54z"/>
	<path class="st84" d="M43.65,32.38c0,2.06-1.67,3.73-3.73,3.73H17.57c-2.06,0-3.73-1.67-3.73-3.73V10.03
		c0-2.06,1.67-3.73,3.73-3.73h22.36c2.06,0,3.73,1.67,3.73,3.73L43.65,32.38L43.65,32.38z"/>
	<path class="st86" d="M43.68,32.23c0,2.05-1.66,3.71-3.71,3.71H17.71c-2.05,0-3.71-1.66-3.71-3.71V9.98c0-2.05,1.66-3.71,3.71-3.71
		h22.26c2.05,0,3.71,1.66,3.71,3.71L43.68,32.23L43.68,32.23z"/>
	<path class="st88" d="M43.71,32.08c0,2.04-1.65,3.7-3.7,3.7H17.86c-2.04,0-3.7-1.65-3.7-3.7V9.93c0-2.04,1.65-3.7,3.7-3.7h22.16
		c2.04,0,3.7,1.65,3.7,3.7L43.71,32.08L43.71,32.08z"/>
	<path class="st90" d="M43.74,31.93c0,2.03-1.65,3.68-3.68,3.68H18.01c-2.03,0-3.68-1.65-3.68-3.68V9.88c0-2.03,1.65-3.68,3.68-3.68
		h22.06c2.03,0,3.68,1.65,3.68,3.68L43.74,31.93L43.74,31.93z"/>
	<path class="st103" d="M43.77,31.78c0,2.02-1.64,3.66-3.66,3.66H18.16c-2.02,0-3.66-1.64-3.66-3.66V9.83
		c0-2.02,1.64-3.66,3.66-3.66h21.96c2.02,0,3.66,1.64,3.66,3.66L43.77,31.78L43.77,31.78z"/>
	<path class="st104" d="M43.8,31.63c0,2.01-1.63,3.65-3.65,3.65H18.31c-2.01,0-3.65-1.63-3.65-3.65V9.78c0-2.01,1.63-3.65,3.65-3.65
		h21.85c2.01,0,3.65,1.63,3.65,3.65L43.8,31.63L43.8,31.63z"/>
	<path class="st105" d="M43.83,31.48c0,2-1.62,3.63-3.63,3.63H18.46c-2.01,0-3.63-1.62-3.63-3.63V9.73c0-2.01,1.62-3.63,3.63-3.63
		h21.75c2.01,0,3.63,1.62,3.63,3.63L43.83,31.48L43.83,31.48z"/>
	<path class="st106" d="M43.87,31.33c0,2-1.62,3.61-3.61,3.61H18.61c-2,0-3.61-1.62-3.61-3.61V9.69c0-2,1.62-3.61,3.61-3.61h21.65
		c2,0,3.61,1.62,3.61,3.61L43.87,31.33L43.87,31.33z"/>
	<path class="st107" d="M43.9,31.18c0,1.99-1.61,3.6-3.59,3.6H18.76c-1.99,0-3.6-1.61-3.6-3.6V9.64c0-1.99,1.61-3.59,3.6-3.59h21.55
		c1.99,0,3.6,1.61,3.6,3.59L43.9,31.18L43.9,31.18z"/>
	<path class="st108" d="M43.93,31.03c0,1.98-1.6,3.58-3.58,3.58H18.91c-1.98,0-3.58-1.6-3.58-3.58V9.59c0-1.98,1.6-3.58,3.58-3.58
		h21.44c1.98,0,3.58,1.6,3.58,3.58L43.93,31.03L43.93,31.03z"/>
	<path class="st109" d="M43.96,30.87c0,1.97-1.59,3.56-3.56,3.56H19.06c-1.97,0-3.56-1.59-3.56-3.56V9.54
		c0-1.97,1.59-3.56,3.56-3.56H40.4c1.97,0,3.56,1.59,3.56,3.56L43.96,30.87L43.96,30.87z"/>
	<path class="st112" d="M43.99,30.72c0,1.96-1.59,3.54-3.54,3.54H19.21c-1.96,0-3.54-1.59-3.54-3.54V9.49
		c0-1.96,1.59-3.54,3.54-3.54h21.24c1.96,0,3.54,1.59,3.54,3.54L43.99,30.72L43.99,30.72z"/>
	<path class="st115" d="M44.02,30.57c0,1.95-1.58,3.53-3.53,3.53H19.36c-1.95,0-3.53-1.58-3.53-3.53V9.44
		c0-1.95,1.58-3.53,3.53-3.53H40.5c1.95,0,3.53,1.58,3.53,3.53L44.02,30.57L44.02,30.57z"/>
	<path class="st117" d="M44.05,30.42c0,1.94-1.57,3.51-3.51,3.51H19.51c-1.94,0-3.51-1.57-3.51-3.51V9.39
		c0-1.94,1.57-3.51,3.51-3.51h21.03c1.94,0,3.51,1.57,3.51,3.51L44.05,30.42L44.05,30.42z"/>
	<path class="st2" d="M44.08,30.27c0,1.93-1.56,3.49-3.49,3.49H19.66c-1.93,0-3.49-1.56-3.49-3.49V9.34c0-1.93,1.56-3.49,3.49-3.49
		h20.93c1.93,0,3.49,1.56,3.49,3.49L44.08,30.27L44.08,30.27z"/>
	<path class="st4" d="M44.11,30.12c0,1.92-1.55,3.48-3.47,3.48H19.81c-1.92,0-3.48-1.56-3.48-3.48V9.3c0-1.92,1.56-3.48,3.48-3.48
		h20.83c1.92,0,3.48,1.56,3.48,3.48L44.11,30.12L44.11,30.12z"/>
	<path class="st6" d="M44.14,29.97c0,1.91-1.55,3.46-3.46,3.46H19.96c-1.91,0-3.46-1.55-3.46-3.46V9.25c0-1.91,1.55-3.46,3.46-3.46
		h20.73c1.91,0,3.46,1.55,3.46,3.46L44.14,29.97L44.14,29.97z"/>
	<path class="st8" d="M44.17,29.82c0,1.9-1.54,3.44-3.44,3.44H20.11c-1.9,0-3.44-1.54-3.44-3.44V9.2c0-1.9,1.54-3.44,3.44-3.44
		h20.63c1.9,0,3.44,1.54,3.44,3.44L44.17,29.82L44.17,29.82z"/>
	<path class="st10" d="M44.2,29.67c0,1.89-1.53,3.42-3.42,3.42H20.26c-1.89,0-3.42-1.53-3.42-3.42V9.15c0-1.89,1.53-3.42,3.42-3.42
		h20.52c1.89,0,3.42,1.53,3.42,3.42L44.2,29.67L44.2,29.67z"/>
	<path class="st11" d="M44.23,29.52c0,1.88-1.52,3.41-3.41,3.41H20.41c-1.88,0-3.41-1.53-3.41-3.41V9.1c0-1.88,1.52-3.41,3.41-3.41
		h20.42c1.88,0,3.41,1.52,3.41,3.41L44.23,29.52L44.23,29.52z"/>
	<path class="st25" d="M44.26,29.36c0,1.87-1.52,3.39-3.39,3.39H20.56c-1.87,0-3.39-1.52-3.39-3.39V9.05c0-1.87,1.52-3.39,3.39-3.39
		h20.32c1.87,0,3.39,1.52,3.39,3.39L44.26,29.36L44.26,29.36z"/>
	<path class="st27" d="M44.29,29.21c0,1.86-1.51,3.37-3.37,3.37H20.71c-1.86,0-3.37-1.51-3.37-3.37V9c0-1.86,1.51-3.37,3.37-3.37
		h20.22c1.86,0,3.37,1.51,3.37,3.37L44.29,29.21L44.29,29.21z"/>
	<path class="st29" d="M44.32,29.06c0,1.85-1.5,3.36-3.36,3.36H20.86c-1.85,0-3.36-1.5-3.36-3.36V8.96c0-1.85,1.5-3.36,3.36-3.36
		h20.11c1.85,0,3.36,1.5,3.36,3.36L44.32,29.06L44.32,29.06z"/>
	<path class="st29" d="M44.35,28.91c0,1.84-1.49,3.34-3.34,3.34H21.01c-1.85,0-3.34-1.49-3.34-3.34v-20c0-1.84,1.49-3.34,3.34-3.34
		h20.01c1.84,0,3.34,1.49,3.34,3.34L44.35,28.91L44.35,28.91z"/>
	<path class="st32" d="M44.38,28.76c0,1.83-1.49,3.32-3.32,3.32h-19.9c-1.84,0-3.32-1.49-3.32-3.32V8.86c0-1.84,1.49-3.32,3.32-3.32
		h19.91c1.84,0,3.32,1.49,3.32,3.32L44.38,28.76L44.38,28.76z"/>
	<path class="st34" d="M44.41,28.61c0,1.83-1.48,3.3-3.3,3.3h-19.8c-1.83,0-3.3-1.48-3.3-3.3V8.81c0-1.83,1.48-3.31,3.3-3.31h19.81
		c1.83,0,3.31,1.48,3.31,3.31L44.41,28.61L44.41,28.61z"/>
	<path class="st36" d="M44.44,28.46c0,1.82-1.47,3.29-3.29,3.29h-19.7c-1.82,0-3.29-1.47-3.29-3.29V8.76c0-1.82,1.47-3.29,3.29-3.29
		h19.71c1.82,0,3.29,1.47,3.29,3.29L44.44,28.46L44.44,28.46z"/>
	<path class="st38" d="M44.47,28.31c0,1.81-1.46,3.27-3.27,3.27H21.6c-1.81,0-3.27-1.46-3.27-3.27V8.71c0-1.81,1.46-3.27,3.27-3.27
		h19.6c1.81,0,3.27,1.46,3.27,3.27L44.47,28.31L44.47,28.31z"/>
	<path class="st41" d="M44.5,28.16c0,1.8-1.46,3.25-3.25,3.25H21.75c-1.8,0-3.25-1.46-3.25-3.25V8.66c0-1.8,1.46-3.25,3.25-3.25
		h19.5c1.8,0,3.25,1.46,3.25,3.25L44.5,28.16L44.5,28.16z"/>
	<path class="st44" d="M44.53,28.01c0,1.79-1.45,3.24-3.24,3.24H21.9c-1.79,0-3.24-1.45-3.24-3.24V8.61c0-1.79,1.45-3.24,3.24-3.24
		h19.4c1.79,0,3.24,1.45,3.24,3.24L44.53,28.01L44.53,28.01z"/>
	<path class="st46" d="M44.56,27.85c0,1.78-1.44,3.22-3.22,3.22H22.05c-1.78,0-3.22-1.44-3.22-3.22V8.57c0-1.78,1.44-3.22,3.22-3.22
		h19.3c1.78,0,3.22,1.44,3.22,3.22L44.56,27.85L44.56,27.85z"/>
	<path class="st49" d="M44.59,27.7c0,1.77-1.43,3.2-3.2,3.2H22.2c-1.77,0-3.2-1.43-3.2-3.2V8.52c0-1.77,1.43-3.2,3.2-3.2H41.4
		c1.77,0,3.2,1.43,3.2,3.2L44.59,27.7L44.59,27.7z"/>
	<path class="st51" d="M44.62,27.55c0,1.76-1.43,3.19-3.19,3.19H22.35c-1.76,0-3.19-1.43-3.19-3.19V8.47c0-1.76,1.43-3.19,3.19-3.19
		h19.09c1.76,0,3.19,1.43,3.19,3.19L44.62,27.55L44.62,27.55z"/>
	<path class="st53" d="M44.65,27.4c0,1.75-1.42,3.17-3.17,3.17H22.5c-1.75,0-3.17-1.42-3.17-3.17V8.42c0-1.75,1.42-3.17,3.17-3.17
		h18.99c1.75,0,3.17,1.42,3.17,3.17L44.65,27.4L44.65,27.4z"/>
	<path class="st55" d="M44.68,27.25c0,1.74-1.41,3.15-3.15,3.15H22.65c-1.74,0-3.15-1.41-3.15-3.15V8.37c0-1.74,1.41-3.15,3.15-3.15
		h18.89c1.74,0,3.15,1.41,3.15,3.15L44.68,27.25L44.68,27.25z"/>
	<path class="st57" d="M44.71,27.1c0,1.73-1.4,3.13-3.13,3.13H22.8c-1.73,0-3.13-1.4-3.13-3.13V8.32c0-1.73,1.4-3.13,3.13-3.13
		h18.79c1.73,0,3.13,1.4,3.13,3.13L44.71,27.1L44.71,27.1z"/>
	<path class="st58" d="M44.75,26.95c0,1.72-1.4,3.12-3.12,3.12H22.95c-1.72,0-3.12-1.4-3.12-3.12V8.27c0-1.72,1.4-3.12,3.12-3.12
		h18.68c1.72,0,3.12,1.39,3.12,3.12L44.75,26.95L44.75,26.95z"/>
	<path class="st61" d="M44.78,26.8c0,1.71-1.39,3.1-3.1,3.1H23.1c-1.71,0-3.1-1.39-3.1-3.1V8.22c0-1.71,1.39-3.1,3.1-3.1h18.58
		c1.71,0,3.1,1.39,3.1,3.1L44.78,26.8L44.78,26.8z"/>
	<path class="st63" d="M44.81,26.65c0,1.7-1.38,3.08-3.08,3.08H23.25c-1.7,0-3.08-1.38-3.08-3.08V8.18c0-1.7,1.38-3.08,3.08-3.08
		h18.48c1.7,0,3.08,1.38,3.08,3.08L44.81,26.65L44.81,26.65z"/>
	<path class="st65" d="M44.84,26.5c0,1.69-1.37,3.07-3.07,3.07H23.4c-1.69,0-3.07-1.37-3.07-3.07V8.13c0-1.69,1.37-3.07,3.07-3.07
		h18.38c1.69,0,3.07,1.37,3.07,3.07L44.84,26.5L44.84,26.5z"/>
	<path class="st67" d="M44.87,26.35c0,1.68-1.36,3.05-3.05,3.05H23.55c-1.68,0-3.05-1.36-3.05-3.05V8.08c0-1.68,1.36-3.05,3.05-3.05
		h18.27c1.68,0,3.05,1.36,3.05,3.05L44.87,26.35L44.87,26.35z"/>
	<path class="st69" d="M44.9,26.19c0,1.67-1.36,3.03-3.03,3.03H23.7c-1.68,0-3.03-1.36-3.03-3.03V8.03C20.67,6.35,22.02,5,23.7,5
		h18.17c1.68,0,3.03,1.36,3.03,3.03L44.9,26.19L44.9,26.19z"/>
	<path class="st71" d="M44.93,26.04c0,1.67-1.35,3.02-3.01,3.02H23.85c-1.67,0-3.02-1.35-3.02-3.02V7.98c0-1.67,1.35-3.02,3.02-3.02
		h18.07c1.67,0,3.01,1.35,3.01,3.02L44.93,26.04L44.93,26.04z"/>
	<path class="st73" d="M44.96,25.89c0,1.66-1.34,3-3,3H24c-1.66,0-3-1.34-3-3V7.93c0-1.66,1.34-3,3-3h17.97c1.66,0,3,1.34,3,3
		L44.96,25.89L44.96,25.89z"/>
	<path class="st75" d="M44.99,25.74c0,1.65-1.33,2.98-2.98,2.98H24.15c-1.65,0-2.98-1.33-2.98-2.98V7.88c0-1.65,1.33-2.98,2.98-2.98
		h17.87c1.65,0,2.98,1.33,2.98,2.98L44.99,25.74L44.99,25.74z"/>
	<path class="st77" d="M45.02,25.59c0,1.64-1.33,2.96-2.96,2.96H24.3c-1.64,0-2.96-1.33-2.96-2.96V7.83c0-1.64,1.33-2.96,2.96-2.96
		h17.76c1.64,0,2.96,1.33,2.96,2.96L45.02,25.59L45.02,25.59z"/>
	<path class="st78" d="M45.05,25.44c0,1.63-1.32,2.95-2.95,2.95H24.45c-1.63,0-2.95-1.32-2.95-2.95V7.79c0-1.63,1.32-2.95,2.95-2.95
		h17.66c1.63,0,2.95,1.32,2.95,2.95L45.05,25.44L45.05,25.44z"/>
	<path class="st79" d="M45.08,25.29c0,1.62-1.31,2.93-2.93,2.93H24.6c-1.62,0-2.93-1.31-2.93-2.93V7.74c0-1.62,1.31-2.93,2.93-2.93
		h17.56c1.62,0,2.93,1.31,2.93,2.93L45.08,25.29L45.08,25.29z"/>
	<path class="st83" d="M45.11,25.14c0,1.61-1.3,2.91-2.91,2.91H24.75c-1.61,0-2.91-1.3-2.91-2.91V7.69c0-1.61,1.3-2.91,2.91-2.91
		H42.2c1.61,0,2.91,1.3,2.91,2.91L45.11,25.14L45.11,25.14z"/>
	<path class="st85" d="M45.14,24.99c0,1.6-1.29,2.9-2.89,2.9H24.9c-1.6,0-2.9-1.3-2.9-2.9V7.64c0-1.6,1.3-2.9,2.9-2.9h17.35
		c1.6,0,2.9,1.29,2.9,2.9L45.14,24.99L45.14,24.99z"/>
	<path class="st87" d="M45.17,24.84c0,1.59-1.29,2.88-2.88,2.88H25.05c-1.59,0-2.88-1.29-2.88-2.88V7.59c0-1.59,1.29-2.88,2.88-2.88
		H42.3c1.59,0,2.88,1.29,2.88,2.88L45.17,24.84L45.17,24.84z"/>
	<path class="st89" d="M45.2,24.68c0,1.58-1.28,2.86-2.86,2.86H25.2c-1.58,0-2.86-1.28-2.86-2.86V7.54c0-1.58,1.28-2.86,2.86-2.86
		h17.15c1.58,0,2.86,1.28,2.86,2.86L45.2,24.68L45.2,24.68z"/>
	<path class="st91" d="M45.23,24.53c0,1.57-1.27,2.84-2.84,2.84H25.35c-1.57,0-2.84-1.27-2.84-2.84V7.49c0-1.57,1.27-2.84,2.84-2.84
		h17.05c1.57,0,2.84,1.27,2.84,2.84L45.23,24.53L45.23,24.53z"/>
	<path class="st92" d="M45.26,24.38c0,1.56-1.26,2.83-2.83,2.83H25.49c-1.56,0-2.83-1.26-2.83-2.83V7.44c0-1.56,1.27-2.83,2.83-2.83
		h16.94c1.56,0,2.83,1.27,2.83,2.83L45.26,24.38L45.26,24.38z"/>
	<path class="st93" d="M45.29,24.23c0,1.55-1.26,2.81-2.81,2.81H25.64c-1.55,0-2.81-1.26-2.81-2.81V7.4c0-1.55,1.26-2.81,2.81-2.81
		h16.84c1.55,0,2.81,1.26,2.81,2.81L45.29,24.23L45.29,24.23z"/>
	<path class="st94" d="M45.32,24.08c0,1.54-1.25,2.79-2.79,2.79H25.79c-1.54,0-2.79-1.25-2.79-2.79V7.35c0-1.54,1.25-2.79,2.79-2.79
		h16.74c1.54,0,2.79,1.25,2.79,2.79L45.32,24.08L45.32,24.08z"/>
	<path class="st95" d="M45.35,23.93c0,1.53-1.24,2.78-2.78,2.78H25.94c-1.53,0-2.78-1.24-2.78-2.78V7.3c0-1.53,1.24-2.78,2.78-2.78
		h16.64c1.53,0,2.78,1.24,2.78,2.78L45.35,23.93L45.35,23.93z"/>
	<path class="st96" d="M45.38,23.78c0,1.52-1.23,2.76-2.76,2.76H26.09c-1.52,0-2.76-1.23-2.76-2.76V7.25c0-1.52,1.23-2.76,2.76-2.76
		h16.54c1.52,0,2.76,1.23,2.76,2.76L45.38,23.78L45.38,23.78z"/>
	<path class="st97" d="M45.41,23.63c0,1.52-1.23,2.74-2.74,2.74H26.24c-1.52,0-2.74-1.23-2.74-2.74V7.2c0-1.52,1.23-2.74,2.74-2.74
		h16.43c1.51,0,2.74,1.23,2.74,2.74L45.41,23.63L45.41,23.63z"/>
	<path class="st98" d="M45.44,23.48c0,1.51-1.22,2.72-2.72,2.72H26.39c-1.51,0-2.73-1.22-2.73-2.72V7.15c0-1.51,1.22-2.73,2.73-2.73
		h16.33c1.51,0,2.72,1.22,2.72,2.73L45.44,23.48L45.44,23.48z"/>
	<path class="st99" d="M45.47,23.33c0,1.5-1.21,2.71-2.71,2.71H26.54c-1.5,0-2.71-1.21-2.71-2.71V7.1c0-1.5,1.21-2.71,2.71-2.71
		h16.23c1.5,0,2.71,1.21,2.71,2.71L45.47,23.33L45.47,23.33z"/>
	<path class="st100" d="M45.5,23.17c0,1.49-1.2,2.69-2.69,2.69H26.69c-1.49,0-2.69-1.2-2.69-2.69V7.05c0-1.49,1.2-2.69,2.69-2.69
		h16.13c1.49,0,2.69,1.2,2.69,2.69L45.5,23.17L45.5,23.17z"/>
	<path class="st101" d="M45.53,23.02c0,1.48-1.2,2.67-2.67,2.67H26.84c-1.48,0-2.67-1.2-2.67-2.67V7.01c0-1.48,1.2-2.67,2.67-2.67
		h16.02c1.48,0,2.67,1.2,2.67,2.67L45.53,23.02L45.53,23.02z"/>
	<path class="st102" d="M45.56,22.87c0,1.47-1.19,2.66-2.66,2.66H26.99c-1.47,0-2.66-1.19-2.66-2.66V6.96
		c0-1.47,1.19-2.66,2.66-2.66h15.92c1.47,0,2.66,1.19,2.66,2.66L45.56,22.87L45.56,22.87z"/>
	<path class="st110" d="M45.59,22.72c0,1.46-1.18,2.64-2.64,2.64H27.14c-1.46,0-2.64-1.18-2.64-2.64V6.91
		c0-1.46,1.18-2.64,2.64-2.64h15.82c1.46,0,2.64,1.18,2.64,2.64L45.59,22.72L45.59,22.72z"/>
	<path class="st113" d="M45.62,22.57c0,1.45-1.17,2.62-2.62,2.62H27.29c-1.45,0-2.62-1.17-2.62-2.62V6.86
		c0-1.45,1.17-2.62,2.62-2.62h15.72c1.45,0,2.62,1.17,2.62,2.62L45.62,22.57L45.62,22.57z"/>
	<path class="st116" d="M45.66,22.42c0,1.44-1.17,2.61-2.61,2.61H27.44c-1.44,0-2.6-1.17-2.6-2.61V6.81c0-1.44,1.17-2.61,2.6-2.61
		h15.62c1.44,0,2.61,1.17,2.61,2.61L45.66,22.42L45.66,22.42z"/>
	<path class="st118" d="M45.69,22.27c0,1.43-1.16,2.59-2.59,2.59H27.59c-1.43,0-2.59-1.16-2.59-2.59V6.76
		c0-1.43,1.16-2.59,2.59-2.59H43.1c1.43,0,2.59,1.16,2.59,2.59L45.69,22.27L45.69,22.27z"/>
	<path class="st119" d="M45.72,22.12c0,1.42-1.15,2.57-2.57,2.57H27.74c-1.42,0-2.57-1.15-2.57-2.57V6.71
		c0-1.42,1.15-2.57,2.57-2.57h15.41c1.42,0,2.57,1.15,2.57,2.57L45.72,22.12L45.72,22.12z"/>
	<path class="st120" d="M45.75,21.97c0,1.41-1.14,2.55-2.55,2.55h-15.3c-1.41,0-2.55-1.14-2.55-2.55V6.66
		c0-1.41,1.14-2.55,2.55-2.55H43.2c1.41,0,2.55,1.14,2.55,2.55L45.75,21.97L45.75,21.97z"/>
	<path class="st12" d="M45.78,21.82c0,1.4-1.13,2.54-2.54,2.54h-15.2c-1.4,0-2.54-1.14-2.54-2.54V6.62c0-1.4,1.14-2.54,2.54-2.54
		h15.21c1.4,0,2.54,1.14,2.54,2.54L45.78,21.82L45.78,21.82z"/>
	<path class="st13" d="M45.81,21.67c0,1.39-1.13,2.52-2.52,2.52h-15.1c-1.39,0-2.52-1.13-2.52-2.52V6.57c0-1.39,1.13-2.52,2.52-2.52
		h15.1c1.39,0,2.52,1.13,2.52,2.52L45.81,21.67L45.81,21.67z"/>
	<path class="st14" d="M45.84,21.51c0,1.38-1.12,2.5-2.5,2.5h-15c-1.38,0-2.5-1.12-2.5-2.5v-15c0-1.38,1.12-2.5,2.5-2.5h15
		c1.38,0,2.5,1.12,2.5,2.5L45.84,21.51L45.84,21.51z"/>
	<path class="st15" d="M45.87,21.36c0,1.37-1.11,2.49-2.49,2.49H28.49c-1.37,0-2.49-1.11-2.49-2.49V6.47c0-1.37,1.11-2.49,2.49-2.49
		h14.9c1.37,0,2.49,1.11,2.49,2.49L45.87,21.36L45.87,21.36z"/>
	<path class="st16" d="M45.9,21.21c0,1.36-1.1,2.47-2.47,2.47H28.64c-1.36,0-2.47-1.1-2.47-2.47V6.42c0-1.36,1.1-2.47,2.47-2.47
		h14.8c1.36,0,2.47,1.1,2.47,2.47L45.9,21.21L45.9,21.21z"/>
	<path class="st17" d="M45.93,21.06c0,1.35-1.1,2.45-2.45,2.45H28.79c-1.35,0-2.45-1.1-2.45-2.45V6.37c0-1.35,1.1-2.45,2.45-2.45
		h14.7c1.35,0,2.45,1.1,2.45,2.45L45.93,21.06L45.93,21.06z"/>
	<path class="st18" d="M45.96,20.91c0,1.35-1.09,2.44-2.44,2.44H28.94c-1.35,0-2.44-1.09-2.44-2.44V6.32c0-1.34,1.09-2.43,2.44-2.43
		h14.59c1.34,0,2.43,1.09,2.43,2.43L45.96,20.91L45.96,20.91z"/>
	<path class="st19" d="M45.99,20.76c0,1.34-1.08,2.42-2.42,2.42H29.09c-1.34,0-2.42-1.08-2.42-2.42V6.27c0-1.34,1.08-2.42,2.42-2.42
		h14.49c1.34,0,2.42,1.08,2.42,2.42L45.99,20.76L45.99,20.76z"/>
	<path class="st20" d="M46.02,20.61c0,1.33-1.08,2.4-2.4,2.4H29.24c-1.33,0-2.4-1.07-2.4-2.4V6.23c0-1.33,1.07-2.4,2.4-2.4h14.39
		c1.33,0,2.4,1.07,2.4,2.4L46.02,20.61L46.02,20.61z"/>
	<path class="st21" d="M46.05,20.46c0,1.32-1.07,2.38-2.38,2.38H29.38c-1.32,0-2.38-1.07-2.38-2.38V6.18c0-1.32,1.07-2.38,2.38-2.38
		h14.29c1.32,0,2.38,1.07,2.38,2.38L46.05,20.46L46.05,20.46z"/>
	<path class="st22" d="M46.08,20.31c0,1.31-1.06,2.37-2.37,2.37H29.53c-1.31,0-2.37-1.06-2.37-2.37V6.13c0-1.31,1.06-2.37,2.37-2.37
		h14.18c1.31,0,2.37,1.06,2.37,2.37L46.08,20.31L46.08,20.31z"/>
	<path class="st39" d="M46.11,20.16c0,1.3-1.05,2.35-2.35,2.35H29.68c-1.3,0-2.35-1.05-2.35-2.35V6.08c0-1.3,1.05-2.35,2.35-2.35
		h14.08c1.3,0,2.35,1.05,2.35,2.35L46.11,20.16L46.11,20.16z"/>
	<path class="st42" d="M46.14,20c0,1.29-1.04,2.33-2.33,2.33H29.83c-1.29,0-2.33-1.04-2.33-2.33V6.03c0-1.29,1.04-2.33,2.33-2.33
		h13.98c1.29,0,2.33,1.04,2.33,2.33L46.14,20L46.14,20z"/>
	<path class="st45" d="M46.17,19.85c0,1.28-1.04,2.32-2.32,2.32H29.98c-1.28,0-2.32-1.04-2.32-2.32V5.98c0-1.28,1.04-2.32,2.32-2.32
		h13.88c1.28,0,2.32,1.04,2.32,2.32L46.17,19.85L46.17,19.85z"/>
</g>
</svg>
