<?xml version="1.0" encoding="utf-8"?>
<!-- Generator: Adobe Illustrator 16.0.0, SVG Export Plug-In . SVG Version: 6.00 Build 0)  -->
<!DOCTYPE svg PUBLIC "-//W3C//DTD SVG 1.1//EN" "http://www.w3.org/Graphics/SVG/1.1/DTD/svg11.dtd">
<svg version="1.1" id="Layer_1" xmlns="http://www.w3.org/2000/svg" xmlns:xlink="http://www.w3.org/1999/xlink" x="0px" y="0px"
	 width="50px" height="50px" viewBox="0 0 50 50" style="enable-background:new 0 0 50 50;" xml:space="preserve">
<style type="text/css">
<![CDATA[
	.st0{fill:#787878;}
]]>
</style>
<g>
	<path class="st0" d="M39.4,42.2c-0.57,3.17-2.53,5.13-4.38,4.38c-7.14-5.23-19.19-6-27.36-8.29c-3.2-0.78-5.16-2.74-4.38-4.38
		c3.38-7.12,5.03-12.34,8.29-26.1c0.75-3.17,2.71-5.13,4.38-4.38c7.24,3.26,12.48,4.69,26.24,7.17c3.17,0.57,5.13,2.53,4.38,4.38
		C41.25,22.13,41.13,33.91,39.4,42.2C39.41,42.2,39.4,42.2,39.4,42.2z"/>
</g>
</svg>
