<?xml version="1.0" encoding="utf-8"?>
<!-- Generator: Adobe Illustrator 16.0.0, SVG Export Plug-In . SVG Version: 6.00 Build 0)  -->
<!DOCTYPE svg PUBLIC "-//W3C//DTD SVG 1.1//EN" "http://www.w3.org/Graphics/SVG/1.1/DTD/svg11.dtd">
<svg version="1.1" id="Layer_1" xmlns="http://www.w3.org/2000/svg" xmlns:xlink="http://www.w3.org/1999/xlink" x="0px" y="0px"
	 width="256px" height="256px" viewBox="0 0 256 256" style="enable-background:new 0 0 256 256;" xml:space="preserve">
<style type="text/css">
<![CDATA[
	.st0{opacity:0.6;fill:#FFFFFF;}
	.st1{opacity:0.4;fill:#020202;enable-background:new    ;}
	.st2{fill:#E7E7E7;}
	.st3{opacity:0.6;fill:#010101;}
	.st4{opacity:0.3;fill:#010101;}
	.st5{opacity:0.35;fill:#FFFFFF;}
	.st6{fill:url(#SVGID_1_);}
	.st7{fill:url(#SVGID_2_);}
	.st8{fill:url(#SVGID_3_);}
	.st9{fill:url(#SVGID_4_);}
	.st10{fill:url(#SVGID_5_);}
	.st11{fill:url(#SVGID_6_);}
	.st12{fill:url(#SVGID_7_);}
	.st13{fill:url(#SVGID_8_);}
	.st14{fill:url(#SVGID_9_);}
	.st15{opacity:0.25;fill:#010101;}
	.st16{opacity:0.75;fill:#FFFFFF;}
	.st17{fill:#FFFFFF;}
	.st18{fill:#6F7070;}
	.st19{fill:#D1D2D3;}
	.st20{fill:url(#SVGID_10_);}
	.st21{fill:url(#SVGID_11_);}
	.st22{fill:url(#SVGID_12_);}
	.st23{fill:url(#SVGID_13_);}
	.st24{fill:url(#SVGID_14_);}
	.st25{fill:url(#SVGID_15_);}
	.st26{fill:url(#SVGID_16_);}
	.st27{fill:url(#SVGID_17_);}
	.st28{fill:url(#SVGID_18_);}
	.st29{fill:url(#SVGID_19_);}
	.st30{fill:url(#SVGID_20_);}
	.st31{fill:url(#SVGID_21_);}
	.st32{fill:url(#SVGID_22_);}
	.st33{fill:url(#SVGID_23_);}
	.st34{fill:url(#SVGID_24_);}
	.st35{opacity:0.4;fill:#010101;}
	.st36{fill:#414142;}
	.st37{clip-path:url(#SVGID_26_);fill:url(#SVGID_27_);}
]]>
</style>
<g>
	<g id="Clap">
		<linearGradient id="SVGID_1_" gradientUnits="userSpaceOnUse" x1="25.0132" y1="55.7549" x2="217.2382" y2="62.466">
			<stop  offset="0" style="stop-color:#2D2C2C"/>
			<stop  offset="1" style="stop-color:#A3A2A3"/>
		</linearGradient>
		<path class="st6" d="M11.03,88.25l32.36-0.72l155.55-49.13l1.44-9.35c0,0-0.02-0.05-0.05-0.15L11.03,88.25z"/>
		<g>
			<linearGradient id="SVGID_2_" gradientUnits="userSpaceOnUse" x1="24.5386" y1="69.2954" x2="216.77" y2="76.0067">
				<stop  offset="0" style="stop-color:#0D0D0D"/>
				<stop  offset="1" style="stop-color:#4B4949"/>
			</linearGradient>
			<polygon class="st7" points="66.64,70.81 66.64,80.18 93.8,71.6 93.8,62.3 			"/>
			<linearGradient id="SVGID_3_" gradientUnits="userSpaceOnUse" x1="24.0552" y1="83.1895" x2="216.2786" y2="89.9005">
				<stop  offset="0" style="stop-color:#0D0D0D"/>
				<stop  offset="1" style="stop-color:#4B4949"/>
			</linearGradient>
			<polygon class="st8" points="11.03,88.25 42.67,87.54 42.67,78.33 			"/>
			<linearGradient id="SVGID_4_" gradientUnits="userSpaceOnUse" x1="25.8462" y1="31.9497" x2="218.0681" y2="38.6607">
				<stop  offset="0" style="stop-color:#0D0D0D"/>
				<stop  offset="1" style="stop-color:#4B4949"/>
			</linearGradient>
			<path class="st9" d="M200.38,29.05c0,0-0.02-0.05-0.05-0.15l-26.31,8.25v9.12l24.93-7.87L200.38,29.05z"/>
			<linearGradient id="SVGID_5_" gradientUnits="userSpaceOnUse" x1="25.2017" y1="50.3809" x2="217.4253" y2="57.0919">
				<stop  offset="0" style="stop-color:#0D0D0D"/>
				<stop  offset="1" style="stop-color:#4B4949"/>
			</linearGradient>
			<polygon class="st10" points="120.97,53.78 120.97,63.02 147.81,54.54 147.81,45.36 			"/>
		</g>
		<linearGradient id="SVGID_6_" gradientUnits="userSpaceOnUse" x1="105.5713" y1="58.2236" x2="108.4478" y2="67.1727">
			<stop  offset="0.0364" style="stop-color:#010101;stop-opacity:0.5"/>
			<stop  offset="0.1246" style="stop-color:#010101;stop-opacity:0.25"/>
			<stop  offset="0.6562" style="stop-color:#010101;stop-opacity:0"/>
		</linearGradient>
		<path class="st11" d="M11.03,88.25l32.36-0.72l155.55-49.13l1.44-9.35c0,0-0.02-0.05-0.05-0.15L11.03,88.25z"/>
		<linearGradient id="SVGID_7_" gradientUnits="userSpaceOnUse" x1="105.5713" y1="58.2236" x2="108.4478" y2="67.1727">
			<stop  offset="0.309" style="stop-color:#FFFFFF;stop-opacity:0"/>
			<stop  offset="0.8527" style="stop-color:#FFFFFF;stop-opacity:0.25"/>
			<stop  offset="1" style="stop-color:#FFFFFF;stop-opacity:0.5"/>
		</linearGradient>
		<path class="st12" d="M11.03,88.25l32.36-0.72l155.55-49.13l1.44-9.35c0,0-0.02-0.05-0.05-0.15L11.03,88.25z"/>
		<linearGradient id="SVGID_8_" gradientUnits="userSpaceOnUse" x1="96.0254" y1="39.5654" x2="107.2104" y2="60.9765">
			<stop  offset="0" style="stop-color:#D8D7D7"/>
			<stop  offset="0.6155" style="stop-color:#CBC9C9"/>
			<stop  offset="1" style="stop-color:#C0BEBE"/>
		</linearGradient>
		<path class="st13" d="M200.15,28.38c-0.59-1.62-2.35-6.02-5.76-11.32c-4.32-6.71-15.82-4.07-15.82-4.07s-4.48,1.36-11.95,3.63
			c-6.82,2.07-16.13,4.9-26.8,8.15c-8,2.43-16.76,5.09-25.79,7.84c-9.01,2.74-18.29,5.56-27.38,8.32
			c-9.78,2.97-19.33,5.87-28.05,8.52c-10.38,3.15-19.59,5.95-26.64,8.09c-6.82,2.07-11.62,3.53-13.49,4.09
			c-4.93,1.49-7.72,3.95-9.3,6.4c-2.5,3.87-1.12,10.13-1.12,10.13l3,10.07l28.15-8.83l27.63-8.66l26.26-8.23l27.66-8.67l27-8.47
			l26.85-8.42l25.73-8.07C200.29,28.78,200.23,28.61,200.15,28.38z"/>
		<g>
			<linearGradient id="SVGID_9_" gradientUnits="userSpaceOnUse" x1="10.1338" y1="71.8193" x2="198.0447" y2="29.9547">
				<stop  offset="0" style="stop-color:#616262"/>
				<stop  offset="1" style="stop-color:#616262"/>
			</linearGradient>
			<path class="st14" d="M31.96,57.55l34.86,13.21l26.26-8.23L58.6,49.46C48.22,52.61,39.01,55.41,31.96,57.55z"/>
			<linearGradient id="SVGID_10_" gradientUnits="userSpaceOnUse" x1="11.731" y1="77.7827" x2="197.8058" y2="36.3271">
				<stop  offset="0" style="stop-color:#616262"/>
				<stop  offset="1" style="stop-color:#616262"/>
			</linearGradient>
			<path class="st20" d="M8.04,78.18l3,10.07l28.15-8.83L9.16,68.05C6.66,71.92,8.04,78.18,8.04,78.18z"/>
			<linearGradient id="SVGID_11_" gradientUnits="userSpaceOnUse" x1="8.1719" y1="62.9819" x2="196.0746" y2="21.1191">
				<stop  offset="0" style="stop-color:#616262"/>
				<stop  offset="1" style="stop-color:#616262"/>
			</linearGradient>
			<path class="st21" d="M200.15,28.38l-33.53-11.76c-6.82,2.07-16.13,4.9-26.8,8.15l34.78,12.19l25.73-8.07
				C200.29,28.78,200.23,28.61,200.15,28.38z"/>
			<linearGradient id="SVGID_12_" gradientUnits="userSpaceOnUse" x1="9.1426" y1="67.3447" x2="197.044" y2="25.4822">
				<stop  offset="0" style="stop-color:#616262"/>
				<stop  offset="1" style="stop-color:#616262"/>
			</linearGradient>
			<path class="st22" d="M86.65,40.93l34.1,12.92l27-8.47l-33.72-12.77C105.02,35.35,95.73,38.17,86.65,40.93z"/>
		</g>
		<linearGradient id="SVGID_13_" gradientUnits="userSpaceOnUse" x1="96.0254" y1="39.5654" x2="107.2104" y2="60.9765">
			<stop  offset="0" style="stop-color:#FFFFFF;stop-opacity:0.15"/>
			<stop  offset="1" style="stop-color:#FFFFFF;stop-opacity:0"/>
		</linearGradient>
		<path class="st23" d="M200.15,28.38c-0.59-1.62-2.35-6.02-5.76-11.32c-4.32-6.71-15.82-4.07-15.82-4.07s-4.48,1.36-11.95,3.63
			c-6.82,2.07-16.13,4.9-26.8,8.15c-8,2.43-16.76,5.09-25.79,7.84c-9.01,2.74-18.29,5.56-27.38,8.32
			c-9.78,2.97-19.33,5.87-28.05,8.52c-10.38,3.15-19.59,5.95-26.64,8.09c-6.82,2.07-11.62,3.53-13.49,4.09
			c-4.93,1.49-7.72,3.95-9.3,6.4c-2.5,3.87-1.12,10.13-1.12,10.13l3,10.07l28.15-8.83l27.63-8.66l26.26-8.23l27.66-8.67l27-8.47
			l26.85-8.42l25.73-8.07C200.29,28.78,200.23,28.61,200.15,28.38z"/>
		<g id="Wit_scheiding">
			<path class="st36" d="M114.03,32.61c0,0-0.01,0-0.03,0c-0.01,0-0.07-0.01-0.03,0.02c0.06,0.04,0.15,0.08,0.27,0.14
				c0.24,0.11,0.61,0.25,1.07,0.43c0.93,0.36,2.27,0.84,3.87,1.43c3.21,1.17,7.49,2.73,11.77,4.29c2.13,0.8,4.27,1.59,6.27,2.34
				c2,0.74,3.85,1.48,5.45,2.08c3.18,1.25,5.3,2.07,5.3,2.07s-2.17-0.69-5.4-1.82c-1.61-0.57-3.5-1.22-5.5-1.95
				c-2.01-0.73-4.15-1.5-6.29-2.28c-2.13-0.8-4.26-1.6-6.26-2.36c-2-0.76-3.85-1.5-5.43-2.13c-1.59-0.63-2.9-1.2-3.81-1.6
				c-0.46-0.2-0.81-0.37-1.05-0.49c-0.12-0.06-0.21-0.11-0.26-0.16c-0.02-0.01-0.02-0.04,0-0.03c0.01,0,0.02,0,0.03,0
				C114.02,32.61,114.03,32.61,114.03,32.61z"/>
			<path class="st2" d="M114.03,32.61c0,0,0.53,0.18,1.47,0.5c0.93,0.33,2.27,0.79,3.86,1.36c1.59,0.58,3.45,1.24,5.44,1.97
				c1.98,0.74,4.1,1.52,6.21,2.31c2.11,0.81,4.21,1.61,6.19,2.37c1.98,0.75,3.81,1.49,5.39,2.11c1.57,0.62,2.88,1.16,3.79,1.53
				c0.91,0.38,1.43,0.59,1.43,0.59s-0.53-0.18-1.47-0.5c-0.93-0.33-2.27-0.78-3.86-1.36c-1.59-0.58-3.46-1.23-5.43-1.97
				c-1.99-0.74-4.1-1.53-6.21-2.31c-2.11-0.81-4.22-1.62-6.19-2.37c-1.98-0.76-3.81-1.49-5.39-2.11c-1.58-0.62-2.88-1.16-3.8-1.53
				C114.55,32.82,114.03,32.61,114.03,32.61z"/>
		</g>
		<g id="Wit_scheiding_3_">
			<path class="st36" d="M166.82,16.49c0.01,0.01-0.05-0.02-0.08,0.04c0.02,0.06,0.12,0.12,0.23,0.18c0.23,0.13,0.58,0.28,1.03,0.47
				c0.9,0.38,2.22,0.86,3.8,1.43c1.58,0.58,3.43,1.21,5.41,1.91c1.99,0.69,4.1,1.42,6.22,2.16c4.23,1.48,8.46,2.96,11.63,4.06
				c1.59,0.54,2.91,1.01,3.85,1.3c0.93,0.3,1.48,0.44,1.48,0.4c0,0.04-0.56-0.06-1.51-0.31c-0.95-0.25-2.3-0.63-3.9-1.13
				c-1.6-0.5-3.48-1.08-5.47-1.76c-1.99-0.68-4.11-1.4-6.23-2.12c-2.11-0.75-4.22-1.51-6.2-2.22c-1.97-0.72-3.8-1.43-5.37-2.05
				c-1.57-0.62-2.85-1.18-3.74-1.6c-0.44-0.21-0.79-0.39-1.01-0.53c-0.11-0.07-0.2-0.13-0.22-0.2
				C166.77,16.46,166.82,16.5,166.82,16.49z"/>
			<path class="st2" d="M166.82,16.49c0,0,0.53,0.17,1.45,0.47c0.92,0.31,2.24,0.73,3.82,1.26c1.57,0.54,3.41,1.15,5.37,1.84
				c1.96,0.69,4.05,1.42,6.14,2.15c2.08,0.75,4.17,1.51,6.12,2.21c1.96,0.7,3.77,1.4,5.33,1.97c1.56,0.58,2.85,1.09,3.75,1.43
				c0.9,0.35,1.42,0.55,1.42,0.55s-0.53-0.17-1.45-0.47c-0.92-0.31-2.24-0.73-3.81-1.26c-1.57-0.54-3.41-1.15-5.38-1.84
				c-1.96-0.69-4.05-1.42-6.14-2.15c-2.08-0.75-4.17-1.51-6.12-2.21c-1.95-0.71-3.77-1.4-5.33-1.97c-1.56-0.58-2.85-1.09-3.75-1.43
				C167.33,16.69,166.82,16.49,166.82,16.49z"/>
		</g>
		<g id="Wit_scheiding_1_">
			<path class="st36" d="M59.06,49.39c0,0-0.01,0-0.03,0c-0.01,0-0.07-0.01-0.03,0.02c0.05,0.04,0.15,0.08,0.27,0.14
				c0.24,0.11,0.61,0.25,1.07,0.43c0.93,0.36,2.27,0.84,3.87,1.43c3.21,1.17,7.49,2.73,11.77,4.29c2.13,0.8,4.27,1.59,6.27,2.34
				c2,0.74,3.85,1.48,5.45,2.08C90.88,61.37,93,62.2,93,62.2s-2.17-0.69-5.4-1.82c-1.61-0.57-3.5-1.22-5.5-1.95
				c-2.01-0.73-4.15-1.5-6.29-2.28c-2.13-0.8-4.26-1.6-6.26-2.36c-2-0.76-3.85-1.5-5.43-2.13c-1.59-0.63-2.9-1.2-3.81-1.6
				c-0.46-0.2-0.81-0.37-1.05-0.49c-0.12-0.06-0.21-0.11-0.26-0.16c-0.02-0.01-0.01-0.04,0.01-0.03c0.01,0,0.02,0,0.03,0
				C59.05,49.38,59.06,49.39,59.06,49.39z"/>
			<path class="st2" d="M59.06,49.39c0,0,0.53,0.18,1.47,0.5c0.93,0.33,2.27,0.79,3.86,1.36c1.59,0.58,3.45,1.24,5.44,1.97
				c1.98,0.74,4.1,1.52,6.21,2.31c2.11,0.81,4.21,1.62,6.19,2.37c1.98,0.75,3.81,1.49,5.38,2.11c1.58,0.62,2.88,1.16,3.8,1.53
				c0.91,0.38,1.43,0.59,1.43,0.59s-0.53-0.18-1.47-0.5c-0.93-0.33-2.27-0.78-3.86-1.36c-1.59-0.58-3.45-1.23-5.44-1.97
				c-1.98-0.74-4.1-1.52-6.21-2.31c-2.11-0.81-4.22-1.61-6.19-2.37c-1.98-0.76-3.81-1.49-5.38-2.11c-1.58-0.62-2.88-1.16-3.79-1.53
				C59.58,49.6,59.06,49.39,59.06,49.39z"/>
		</g>
		<g id="Wit_scheiding_2_">
			<path class="st36" d="M9.28,68.03c0,0-0.03-0.01-0.09-0.01c-0.02,0-0.03,0-0.05,0c-0.01,0,0.01,0.03,0.03,0.04
				c0.04,0.02,0.08,0.05,0.14,0.08c0.22,0.1,0.54,0.23,0.96,0.4c0.83,0.33,2.04,0.77,3.49,1.3c2.89,1.06,6.75,2.46,10.61,3.87
				c1.93,0.7,3.85,1.44,5.65,2.1c1.81,0.66,3.48,1.32,4.92,1.86c1.44,0.54,2.64,1,3.48,1.31c0.42,0.15,0.75,0.27,0.98,0.35
				c0.06,0.02,0.11,0.03,0.15,0.04c0.02,0.01,0.05,0.01,0.05,0.01c-0.01-0.01-0.03-0.02-0.04-0.03c-0.05-0.03-0.08-0.05-0.08-0.05
				s0.03,0.01,0.09,0.04c0.01,0.01,0.03,0.01,0.04,0.03c-0.02,0.03-0.04,0.01-0.06,0.01c-0.05-0.01-0.1-0.02-0.16-0.03
				c-0.23-0.06-0.58-0.15-1.01-0.28c-0.86-0.26-2.09-0.64-3.54-1.14c-1.46-0.5-3.16-1.06-4.97-1.72c-1.81-0.66-3.75-1.34-5.67-2.06
				c-1.92-0.73-3.84-1.45-5.64-2.13c-1.79-0.7-3.46-1.36-4.89-1.94c-1.43-0.58-2.6-1.09-3.43-1.46c-0.41-0.19-0.73-0.34-0.94-0.46
				c-0.05-0.03-0.1-0.06-0.14-0.09c-0.01-0.01-0.05-0.03-0.02-0.06c0.02-0.01,0.04,0,0.05,0C9.25,68.02,9.28,68.03,9.28,68.03z"/>
			<path class="st2" d="M9.28,68.03c0,0,0.48,0.16,1.31,0.44c0.83,0.29,2.02,0.68,3.43,1.19c1.42,0.51,3.07,1.08,4.84,1.73
				c1.76,0.65,3.65,1.34,5.53,2.03c1.88,0.71,3.75,1.42,5.51,2.09c1.76,0.66,3.38,1.32,4.78,1.86c1.4,0.55,2.56,1.03,3.37,1.35
				c0.81,0.33,1.27,0.53,1.27,0.53s-0.48-0.16-1.31-0.44c-0.83-0.29-2.02-0.68-3.43-1.19c-1.41-0.51-3.07-1.08-4.84-1.73
				c-1.76-0.65-3.64-1.34-5.52-2.03c-1.88-0.71-3.75-1.42-5.51-2.09c-1.76-0.66-3.38-1.32-4.78-1.86c-1.4-0.55-2.56-1.03-3.37-1.35
				C9.74,68.22,9.28,68.03,9.28,68.03z"/>
		</g>
		<g id="Zwart_scheiding">
			<path class="st36" d="M139.86,24.52c0,0-0.01,0-0.02-0.01c0,0-0.03-0.01-0.02-0.02c0.01,0,0.03,0,0.05,0.01
				c0.07,0.02,0.16,0.05,0.29,0.08c0.26,0.08,0.63,0.19,1.11,0.35c0.95,0.32,2.31,0.76,3.93,1.33c1.62,0.57,3.51,1.22,5.53,1.95
				s4.17,1.51,6.32,2.29c2.15,0.8,4.29,1.59,6.31,2.32c2.02,0.73,3.89,1.43,5.51,1.99c1.62,0.56,2.97,1.04,3.93,1.32
				c0.48,0.15,0.86,0.25,1.12,0.32c0.13,0.03,0.23,0.05,0.3,0.06c0.07,0.01,0.1,0.01,0.1,0.01s-0.04,0.01-0.1,0
				c-0.07,0-0.17-0.02-0.3-0.04c-0.26-0.05-0.65-0.12-1.13-0.25c-0.97-0.25-2.35-0.64-3.99-1.16c-1.63-0.52-3.54-1.14-5.57-1.85
				c-2.03-0.71-4.18-1.48-6.33-2.26c-2.14-0.8-4.28-1.6-6.29-2.35c-2.01-0.76-3.88-1.47-5.48-2.09c-1.6-0.62-2.93-1.13-3.87-1.49
				c-0.47-0.18-0.83-0.32-1.09-0.41c-0.13-0.04-0.22-0.08-0.29-0.1c-0.02,0-0.03-0.01-0.04-0.01c-0.01,0,0.01,0.01,0.02,0.01
				C139.85,24.52,139.86,24.52,139.86,24.52z"/>
			<path class="st19" d="M139.86,24.52c0,0,0.54,0.17,1.49,0.47c0.95,0.31,2.3,0.73,3.91,1.27c1.62,0.54,3.5,1.15,5.52,1.84
				c2.01,0.69,4.16,1.42,6.31,2.16c2.14,0.76,4.28,1.51,6.28,2.22c2.01,0.71,3.87,1.4,5.47,1.98c1.6,0.58,2.92,1.09,3.86,1.43
				c0.93,0.35,1.46,0.56,1.46,0.56s-0.54-0.17-1.49-0.47c-0.95-0.31-2.3-0.73-3.91-1.27c-1.62-0.54-3.51-1.15-5.52-1.84
				c-2.01-0.69-4.16-1.43-6.31-2.16c-2.14-0.76-4.28-1.51-6.29-2.22c-2-0.71-3.87-1.4-5.47-1.98c-1.6-0.58-2.92-1.09-3.85-1.44
				C140.39,24.72,139.86,24.52,139.86,24.52z"/>
		</g>
		<g id="Zwart_scheiding_1_">
			<path class="st36" d="M86.89,40.86c0,0-0.01,0-0.03,0c-0.01,0-0.06,0.01-0.03,0.04c0.05,0.05,0.14,0.1,0.26,0.16
				c0.24,0.12,0.6,0.27,1.06,0.46c0.92,0.38,2.27,0.88,3.87,1.48c3.22,1.18,7.51,2.76,11.81,4.34c2.14,0.8,4.29,1.59,6.3,2.34
				c2.01,0.75,3.88,1.46,5.49,2.06c0.8,0.3,1.54,0.58,2.19,0.83c0.65,0.25,1.22,0.46,1.69,0.63c0.47,0.17,0.84,0.31,1.09,0.4
				c0.26,0.08,0.39,0.13,0.39,0.13s-0.14-0.04-0.4-0.1c-0.26-0.08-0.63-0.19-1.11-0.34c-0.96-0.29-2.32-0.74-3.94-1.29
				c-1.62-0.55-3.52-1.19-5.54-1.93c-2.02-0.73-4.17-1.5-6.32-2.28c-2.14-0.81-4.28-1.61-6.29-2.37c-2-0.76-3.86-1.52-5.45-2.17
				c-1.59-0.65-2.9-1.23-3.81-1.65c-0.46-0.21-0.81-0.39-1.04-0.53c-0.12-0.07-0.2-0.12-0.25-0.18c-0.04-0.04,0.03-0.05,0.04-0.04
				C86.88,40.86,86.89,40.86,86.89,40.86z"/>
			<path class="st19" d="M86.89,40.86c0,0,0.54,0.18,1.47,0.51c0.94,0.33,2.28,0.79,3.88,1.37c1.6,0.58,3.47,1.24,5.46,1.98
				c1.99,0.74,4.12,1.53,6.24,2.32c2.12,0.81,4.23,1.62,6.22,2.38c1.99,0.76,3.83,1.5,5.41,2.12c1.58,0.62,2.89,1.17,3.81,1.53
				c0.92,0.38,1.44,0.59,1.44,0.59s-0.54-0.19-1.47-0.51c-0.94-0.33-2.28-0.79-3.88-1.37c-1.6-0.58-3.47-1.24-5.46-1.98
				c-1.99-0.74-4.12-1.53-6.24-2.32c-2.12-0.81-4.23-1.62-6.22-2.38c-1.98-0.76-3.83-1.5-5.41-2.12c-1.58-0.62-2.89-1.16-3.81-1.53
				C87.42,41.08,86.89,40.86,86.89,40.86z"/>
		</g>
		<g id="Zwart_scheiding_2_">
			<path class="st36" d="M32.4,57.32c0,0-0.01,0-0.03,0c-0.01,0-0.06,0.01-0.03,0.04c0.05,0.05,0.14,0.1,0.26,0.16
				c0.24,0.12,0.6,0.27,1.06,0.46c0.92,0.38,2.27,0.88,3.87,1.48c3.22,1.18,7.51,2.76,11.81,4.34c2.14,0.8,4.29,1.59,6.3,2.34
				c2.01,0.75,3.88,1.46,5.49,2.06c0.8,0.3,1.54,0.58,2.19,0.83c0.65,0.25,1.22,0.46,1.69,0.63c0.47,0.17,0.84,0.31,1.09,0.4
				c0.26,0.08,0.39,0.13,0.39,0.13s-0.14-0.04-0.4-0.1c-0.26-0.08-0.63-0.19-1.11-0.34c-0.96-0.29-2.32-0.74-3.94-1.29
				c-1.62-0.55-3.52-1.19-5.54-1.92c-2.02-0.73-4.17-1.51-6.32-2.28c-2.14-0.81-4.28-1.61-6.29-2.37c-2-0.76-3.86-1.52-5.45-2.17
				c-1.59-0.65-2.9-1.23-3.81-1.65c-0.46-0.21-0.81-0.39-1.04-0.53c-0.12-0.07-0.2-0.12-0.25-0.18c-0.04-0.04,0.03-0.05,0.04-0.04
				C32.4,57.32,32.4,57.32,32.4,57.32z"/>
			<path class="st19" d="M32.4,57.32c0,0,0.54,0.18,1.47,0.51c0.94,0.33,2.28,0.79,3.87,1.37c1.6,0.58,3.47,1.24,5.46,1.98
				c1.99,0.74,4.12,1.53,6.24,2.32c2.12,0.81,4.23,1.62,6.22,2.38c1.99,0.76,3.83,1.5,5.41,2.12c1.58,0.62,2.89,1.17,3.81,1.53
				c0.92,0.38,1.44,0.59,1.44,0.59s-0.54-0.18-1.47-0.51c-0.94-0.33-2.28-0.79-3.88-1.37c-1.6-0.58-3.47-1.24-5.46-1.98
				c-1.99-0.74-4.12-1.53-6.24-2.32c-2.12-0.81-4.23-1.62-6.22-2.38c-1.98-0.76-3.83-1.5-5.41-2.12c-1.58-0.62-2.89-1.16-3.81-1.53
				C32.93,57.53,32.4,57.32,32.4,57.32z"/>
		</g>
		
			<rect x="105.55" y="-41.1" transform="matrix(0.3003 0.9538 -0.9538 0.3003 129.5007 -60.2055)" class="st16" width="0.48" height="198.53"/>
	</g>
	<g>
		<linearGradient id="SVGID_14_" gradientUnits="userSpaceOnUse" x1="36.104" y1="246.1865" x2="132.9348" y2="211.0331">
			<stop  offset="0.0204" style="stop-color:#FFFFFF"/>
			<stop  offset="0.0786" style="stop-color:#231F20"/>
			<stop  offset="0.0854" style="stop-color:#2F2C2D"/>
			<stop  offset="0.1017" style="stop-color:#494646"/>
			<stop  offset="0.118" style="stop-color:#5F5D5C"/>
			<stop  offset="0.134" style="stop-color:#72706F"/>
			<stop  offset="0.1497" style="stop-color:#7F7E7D"/>
			<stop  offset="0.1648" style="stop-color:#878786"/>
			<stop  offset="0.1788" style="stop-color:#8A8A89"/>
			<stop  offset="0.3773" style="stop-color:#868685"/>
			<stop  offset="0.5982" style="stop-color:#7B7A7A"/>
			<stop  offset="0.829" style="stop-color:#686868"/>
			<stop  offset="0.9108" style="stop-color:#616161"/>
		</linearGradient>
		<path class="st24" d="M33.08,228.62c3.68,17.1,16.78,14.7,16.78,14.7s49.54-9.55,96.97-18.67l-3.12-16.86L33.08,228.62z"/>
		<linearGradient id="SVGID_15_" gradientUnits="userSpaceOnUse" x1="244.6787" y1="214.9316" x2="174.4513" y2="202.3102">
			<stop  offset="0.0204" style="stop-color:#FFFFFF"/>
			<stop  offset="0.0786" style="stop-color:#231F20"/>
			<stop  offset="0.0854" style="stop-color:#2F2C2D"/>
			<stop  offset="0.1017" style="stop-color:#494646"/>
			<stop  offset="0.118" style="stop-color:#5F5D5C"/>
			<stop  offset="0.134" style="stop-color:#72706F"/>
			<stop  offset="0.1497" style="stop-color:#7F7E7D"/>
			<stop  offset="0.1648" style="stop-color:#878786"/>
			<stop  offset="0.1788" style="stop-color:#8A8A89"/>
			<stop  offset="0.3773" style="stop-color:#868685"/>
			<stop  offset="0.5982" style="stop-color:#7B7A7A"/>
			<stop  offset="0.829" style="stop-color:#686868"/>
			<stop  offset="0.9108" style="stop-color:#616161"/>
		</linearGradient>
		<path class="st25" d="M247.84,188.19l-104.9,19.57l3.89,16.89c40.86-7.85,84.51-15.46,89.18-16.49
			C251.99,204.65,247.84,188.19,247.84,188.19z"/>
	</g>
	<path class="st5" d="M33.08,228.62c0,0,0.06,0.23,0.16,0.67c0.05,0.22,0.12,0.5,0.2,0.82c0.09,0.32,0.2,0.7,0.33,1.12
		c0.53,1.66,1.4,4.16,3.42,6.76c0.51,0.64,1.09,1.29,1.77,1.88c0.67,0.61,1.44,1.17,2.29,1.66c1.71,0.98,3.79,1.66,6.06,1.79
		c0.57,0.04,1.15,0.04,1.73,0c0.59-0.03,1.16-0.16,1.76-0.28c1.19-0.23,2.42-0.48,3.68-0.72c2.52-0.49,5.17-1,7.93-1.54
		c22.12-4.29,51.62-10.01,81.12-15.73c7.38-1.41,14.77-2.74,22.04-4.08c7.27-1.34,14.43-2.66,21.35-3.94
		c13.85-2.54,26.78-4.9,37.87-6.93c2.77-0.5,5.43-0.99,7.95-1.44c0.63-0.11,1.25-0.22,1.87-0.33c0.31-0.06,0.61-0.11,0.92-0.16
		l0.45-0.08l0.44-0.11c0.29-0.07,0.59-0.15,0.88-0.22c0.29-0.08,0.56-0.18,0.84-0.27c0.56-0.16,1.09-0.4,1.62-0.61
		c1.03-0.47,2.01-0.99,2.86-1.64c0.22-0.15,0.43-0.31,0.62-0.49c0.2-0.17,0.4-0.33,0.59-0.5c0.36-0.37,0.73-0.71,1.03-1.1
		c0.33-0.37,0.6-0.77,0.88-1.15c0.24-0.41,0.51-0.79,0.71-1.19c0.43-0.79,0.74-1.61,1-2.38c0.49-1.57,0.71-3.03,0.78-4.3
		c0.08-1.27,0.04-2.36-0.03-3.24s-0.17-1.54-0.25-1.99c-0.08-0.45-0.14-0.68-0.14-0.68s0.06,0.23,0.14,0.68
		c0.08,0.45,0.19,1.11,0.27,1.99c0.08,0.88,0.12,1.97,0.05,3.24c-0.07,1.28-0.27,2.74-0.75,4.32c-0.25,0.78-0.55,1.6-0.99,2.41
		c-0.19,0.41-0.46,0.8-0.7,1.21c-0.28,0.39-0.54,0.8-0.88,1.17c-0.31,0.39-0.68,0.74-1.04,1.12c-0.19,0.18-0.39,0.34-0.59,0.52
		c-0.19,0.18-0.4,0.34-0.62,0.5c-0.85,0.66-1.84,1.19-2.88,1.68c-0.53,0.22-1.06,0.46-1.64,0.63c-0.28,0.09-0.56,0.2-0.85,0.28
		c-0.29,0.08-0.58,0.15-0.88,0.23l-0.44,0.11l-0.45,0.09c-0.3,0.06-0.61,0.11-0.92,0.17c-0.61,0.12-1.24,0.23-1.87,0.35
		c-2.52,0.47-5.18,0.96-7.95,1.47c-11.08,2.06-24,4.46-37.85,7.03c-6.92,1.29-14.07,2.63-21.34,3.99
		c-7.27,1.37-14.66,2.72-22.03,4.14c-29.51,5.64-59.02,11.28-81.16,15.51c-2.77,0.53-5.42,1.03-7.94,1.51
		c-1.26,0.24-2.49,0.47-3.69,0.7c-0.59,0.11-1.19,0.25-1.79,0.27c-0.59,0.04-1.18,0.03-1.75-0.01c-2.3-0.15-4.4-0.85-6.11-1.86
		c-0.86-0.5-1.63-1.07-2.3-1.69c-0.68-0.6-1.26-1.26-1.77-1.91c-2.01-2.63-2.86-5.14-3.38-6.8c-0.12-0.42-0.23-0.8-0.32-1.12
		c-0.08-0.33-0.14-0.6-0.19-0.82C33.14,228.85,33.08,228.62,33.08,228.62z"/>
	
		<radialGradient id="SVGID_16_" cx="92.6367" cy="116.3271" r="90.3425" gradientTransform="matrix(2.3968 0 0 2.3968 -177.4434 -178.3418)" gradientUnits="userSpaceOnUse">
		<stop  offset="0" style="stop-color:#FFFFFF"/>
		<stop  offset="1" style="stop-color:#C0BEBE"/>
	</radialGradient>
	<path class="st26" d="M215.46,73.99l-5.73-20.5l-198.7,34.8L32.6,226.54c1.92,13.42,15.34,11.03,15.34,11.03
		s182.4-34.51,192.46-36.91c10.07-2.4,7.19-13.42,7.19-13.42L209.73,53.49"/>
	<path class="st17" d="M32.6,226.54c0,0,0.04,0.23,0.12,0.66c0.07,0.44,0.22,1.08,0.47,1.9c0.25,0.82,0.64,1.81,1.27,2.87
		c0.64,1.06,1.54,2.2,2.82,3.13c2.53,1.91,6.58,2.91,10.91,2.17c2.19-0.44,4.52-0.91,6.97-1.4c2.46-0.47,5.05-0.96,7.75-1.47
		c21.59-4.1,50.39-9.57,79.18-15.04c14.39-2.75,28.78-5.51,42.28-8.09c6.75-1.29,13.27-2.54,19.45-3.72
		c6.17-1.21,12.01-2.36,17.4-3.42c2.69-0.53,5.28-1.04,7.73-1.52c2.46-0.46,4.8-0.89,6.99-1.3c1.1-0.2,2.16-0.4,3.19-0.59
		c0.5-0.1,1.02-0.17,1.5-0.3c0.24-0.07,0.49-0.12,0.72-0.2c0.23-0.08,0.45-0.16,0.68-0.23c1.78-0.68,3.21-1.8,4.12-3.1
		c0.92-1.29,1.35-2.69,1.58-3.9c0.22-1.22,0.24-2.29,0.2-3.14c-0.04-0.85-0.13-1.51-0.2-1.95c-0.08-0.44-0.13-0.66-0.13-0.66
		s0.06,0.22,0.14,0.66c0.08,0.44,0.19,1.09,0.24,1.95c0.05,0.86,0.06,1.93-0.14,3.16c-0.21,1.22-0.61,2.65-1.52,4
		c-0.9,1.35-2.35,2.55-4.17,3.28c-0.23,0.08-0.47,0.17-0.7,0.26c-0.24,0.08-0.48,0.14-0.72,0.21c-0.49,0.15-1,0.22-1.5,0.33
		c-1.02,0.21-2.08,0.43-3.17,0.66c-2.19,0.45-4.51,0.94-6.96,1.45c-2.46,0.49-5.04,1-7.74,1.54c-5.4,1.06-11.24,2.21-17.42,3.43
		c-6.18,1.18-12.7,2.43-19.45,3.72c-13.5,2.58-27.89,5.34-42.28,8.09c-28.79,5.47-57.58,10.94-79.18,15.04
		c-2.7,0.51-5.29,1-7.75,1.47c-2.46,0.44-4.8,0.86-7,1.25c-4.49,0.66-8.58-0.45-11.13-2.46c-1.29-0.99-2.18-2.16-2.8-3.24
		c-0.61-1.09-0.98-2.1-1.22-2.92c-0.23-0.83-0.37-1.47-0.43-1.91C32.64,226.77,32.6,226.54,32.6,226.54z"/>
	<g id="Clap2">
		<g>
			<linearGradient id="SVGID_17_" gradientUnits="userSpaceOnUse" x1="11.4814" y1="92.5151" x2="190.4928" y2="84.8466">
				<stop  offset="0" style="stop-color:#979696"/>
				<stop  offset="0.9941" style="stop-color:#4A4A4A"/>
			</linearGradient>
			<polygon class="st27" points="43.94,106.78 73.14,101.43 97.11,73.19 67.79,78.32 			"/>
			<linearGradient id="SVGID_18_" gradientUnits="userSpaceOnUse" x1="11.7134" y1="98.292" x2="190.7569" y2="90.6221">
				<stop  offset="0" style="stop-color:#979696"/>
				<stop  offset="0.9941" style="stop-color:#4A4A4A"/>
			</linearGradient>
			<polygon class="st28" points="14.79,111.97 39.33,83.3 11.03,88.25 			"/>
			<linearGradient id="SVGID_19_" gradientUnits="userSpaceOnUse" x1="11.1533" y1="76.9077" x2="189.7702" y2="69.2561">
				<stop  offset="0" style="stop-color:#979696"/>
				<stop  offset="0.9941" style="stop-color:#4A4A4A"/>
			</linearGradient>
			<polygon class="st29" points="209.73,53.49 182.28,58.29 160.41,85.42 189.54,80.11 209.65,53.97 			"/>
			<linearGradient id="SVGID_20_" gradientUnits="userSpaceOnUse" x1="11.165" y1="84.5229" x2="190.1534" y2="76.8554">
				<stop  offset="0" style="stop-color:#979696"/>
				<stop  offset="0.9941" style="stop-color:#4A4A4A"/>
			</linearGradient>
			<polygon class="st30" points="102.75,95.8 131.98,90.48 154.25,63.2 125.95,68.15 			"/>
		</g>
		
			<rect x="115.26" y="-9.15" transform="matrix(0.1783 0.984 -0.984 0.1783 186.6141 -37.0605)" class="st0" width="0.48" height="204.7"/>
		
			<rect x="115.26" y="-8.19" transform="matrix(0.1779 0.984 -0.984 0.1779 187.605 -36.2464)" class="st17" width="0.48" height="204.7"/>
		
			<rect x="115.26" y="-8.67" transform="matrix(0.1783 0.984 -0.984 0.1783 187.0857 -36.6667)" class="st35" width="0.48" height="204.7"/>
		<g>
			<path class="st3" d="M97.1,73.3c0,0-0.34,0.47-0.95,1.28c-0.31,0.4-0.68,0.89-1.11,1.45c-0.21,0.28-0.44,0.58-0.68,0.89
				c-0.24,0.31-0.54,0.6-0.83,0.93c-1.15,1.29-2.5,2.8-3.94,4.42c-0.72,0.81-1.46,1.64-2.22,2.49c-0.38,0.42-0.76,0.85-1.14,1.28
				l-0.57,0.64l-0.14,0.16l-0.06,0.07L85.38,87l-0.27,0.34c-2.91,3.59-5.82,7.18-8,9.87c-0.28,0.33-0.51,0.68-0.79,0.96
				c-0.27,0.29-0.53,0.56-0.77,0.82c-0.48,0.51-0.9,0.96-1.25,1.33c-0.7,0.73-1.1,1.15-1.1,1.15s0.33-0.48,0.9-1.32
				c0.29-0.42,0.64-0.92,1.04-1.5c0.2-0.29,0.42-0.6,0.64-0.92c0.22-0.33,0.51-0.63,0.78-0.97c2.18-2.69,5.09-6.28,8-9.87l0.27-0.34
				l0.07-0.08l0.08-0.09l0.14-0.16l0.57-0.65c0.38-0.43,0.76-0.86,1.14-1.28c0.76-0.85,1.5-1.69,2.22-2.49
				c1.44-1.62,2.78-3.13,3.94-4.42c0.3-0.32,0.55-0.65,0.83-0.93c0.29-0.27,0.56-0.54,0.81-0.78c0.51-0.49,0.95-0.92,1.31-1.27
				C96.67,73.69,97.1,73.3,97.1,73.3z"/>
			<path class="st17" d="M97.23,73.18c0,0-0.33,0.48-0.92,1.3c-0.3,0.41-0.66,0.91-1.08,1.48c-0.21,0.29-0.43,0.59-0.66,0.91
				c-0.24,0.32-0.53,0.61-0.8,0.95c-2.24,2.64-5.23,6.16-8.22,9.68c-2.99,3.52-5.98,7.04-8.22,9.68c-0.29,0.32-0.53,0.66-0.81,0.94
				c-0.28,0.28-0.54,0.55-0.79,0.8c-0.49,0.5-0.93,0.94-1.28,1.3c-0.72,0.72-1.13,1.12-1.13,1.12s0.34-0.47,0.92-1.3
				c0.3-0.41,0.66-0.91,1.08-1.48c0.21-0.29,0.43-0.59,0.66-0.91c0.23-0.32,0.53-0.62,0.8-0.95c2.24-2.64,5.23-6.16,8.22-9.68
				c2.99-3.52,5.98-7.04,8.22-9.68c0.29-0.32,0.53-0.66,0.81-0.95c0.28-0.28,0.54-0.55,0.79-0.8c0.49-0.5,0.93-0.94,1.28-1.3
				C96.81,73.58,97.23,73.18,97.23,73.18z"/>
		</g>
		<g>
			<path class="st3" d="M154.26,63.11c0,0-0.32,0.46-0.89,1.25c-0.29,0.39-0.64,0.87-1.04,1.42c-0.41,0.55-0.84,1.19-1.41,1.8
				c-2.17,2.54-5.07,5.93-7.97,9.32c-2.71,3.53-5.43,7.05-7.47,9.7c-0.26,0.33-0.49,0.66-0.73,0.95c-0.25,0.28-0.5,0.55-0.73,0.81
				c-0.46,0.51-0.86,0.95-1.18,1.31c-0.66,0.72-1.04,1.13-1.04,1.13s0.29-0.48,0.83-1.3c0.27-0.41,0.59-0.91,0.96-1.48
				c0.19-0.29,0.38-0.59,0.59-0.91c0.22-0.31,0.48-0.61,0.73-0.95c2.05-2.65,4.77-6.19,7.49-9.73c2.9-3.39,5.8-6.78,7.97-9.32
				c0.51-0.66,1.08-1.19,1.55-1.67c0.48-0.48,0.9-0.9,1.24-1.25C153.86,63.5,154.26,63.11,154.26,63.11z"/>
			<path class="st17" d="M154.39,62.99c0,0-0.32,0.45-0.89,1.25c-0.29,0.39-0.64,0.87-1.04,1.42c-0.2,0.28-0.42,0.57-0.64,0.88
				c-0.22,0.31-0.5,0.6-0.75,0.93c-2.11,2.6-4.92,6.06-7.72,9.52c-2.81,3.46-5.62,6.92-7.72,9.52c-0.27,0.32-0.5,0.65-0.76,0.93
				c-0.25,0.28-0.5,0.55-0.72,0.81c-0.46,0.51-0.85,0.95-1.18,1.31c-0.66,0.72-1.04,1.13-1.04,1.13s0.33-0.45,0.9-1.25
				c0.29-0.39,0.64-0.87,1.04-1.42c0.2-0.27,0.41-0.57,0.64-0.88s0.5-0.6,0.75-0.93c2.11-2.6,4.92-6.06,7.72-9.52
				c2.81-3.46,5.62-6.92,7.72-9.52c0.27-0.32,0.5-0.65,0.76-0.93c0.26-0.28,0.5-0.55,0.73-0.8c0.45-0.51,0.85-0.95,1.18-1.31
				C154.02,63.4,154.39,62.99,154.39,62.99z"/>
		</g>
		<g>
			<path class="st3" d="M209.65,53.97c0,0-0.29,0.44-0.81,1.2c-0.26,0.38-0.58,0.84-0.95,1.36c-0.38,0.52-0.75,1.15-1.28,1.73
				c-1.99,2.44-4.64,5.69-7.29,8.94l-0.25,0.31c-0.03,0.04-0.1,0.12-0.11,0.14l-0.12,0.16l-0.46,0.64c-0.3,0.42-0.61,0.85-0.91,1.27
				c-0.6,0.84-1.19,1.66-1.77,2.46c-1.15,1.6-2.22,3.09-3.14,4.36c-0.23,0.32-0.45,0.62-0.65,0.92c-0.22,0.28-0.45,0.54-0.66,0.78
				c-0.42,0.49-0.78,0.91-1.09,1.26c-0.6,0.7-0.96,1.09-0.96,1.09s0.26-0.46,0.73-1.25c0.24-0.4,0.52-0.88,0.85-1.43
				c0.17-0.27,0.33-0.57,0.53-0.87c0.22-0.29,0.44-0.59,0.67-0.91c0.92-1.28,1.99-2.77,3.14-4.36c0.57-0.8,1.17-1.62,1.77-2.46
				c0.3-0.42,0.61-0.84,0.91-1.27l0.46-0.64l0.11-0.16c0.07-0.09,0.09-0.11,0.14-0.17l0.25-0.3c2.65-3.25,5.3-6.5,7.29-8.94
				c0.46-0.64,1-1.13,1.43-1.6c0.44-0.46,0.83-0.87,1.14-1.2C209.28,54.34,209.65,53.97,209.65,53.97z"/>
			<path class="st17" d="M209.65,53.97c0,0-0.29,0.43-0.8,1.19c-0.26,0.38-0.57,0.84-0.93,1.36c-0.18,0.26-0.37,0.54-0.57,0.84
				c-0.2,0.29-0.45,0.58-0.68,0.89c-1.9,2.48-4.44,5.79-6.97,9.1c-2.54,3.31-5.08,6.62-6.98,9.1c-0.24,0.31-0.45,0.62-0.69,0.89
				c-0.23,0.27-0.45,0.53-0.66,0.77c-0.41,0.48-0.77,0.9-1.07,1.25c-0.6,0.69-0.94,1.08-0.94,1.08s0.29-0.43,0.8-1.19
				c0.26-0.38,0.57-0.84,0.93-1.36c0.18-0.26,0.37-0.54,0.57-0.84c0.2-0.3,0.45-0.58,0.68-0.89c1.9-2.48,4.44-5.79,6.98-9.1
				c2.54-3.31,5.07-6.62,6.98-9.1c0.24-0.31,0.45-0.62,0.68-0.89c0.23-0.27,0.45-0.53,0.66-0.77c0.41-0.48,0.77-0.9,1.07-1.25
				C209.3,54.37,209.65,53.97,209.65,53.97z"/>
		</g>
		<g>
			<path class="st35" d="M39.22,83.12c0,0-0.34,0.47-0.95,1.28c-0.31,0.4-0.68,0.89-1.11,1.45c-0.22,0.28-0.44,0.58-0.68,0.89
				c-0.24,0.31-0.54,0.6-0.83,0.93c-1.15,1.29-2.5,2.8-3.94,4.42c-0.72,0.81-1.47,1.64-2.22,2.49c-0.38,0.42-0.76,0.85-1.14,1.28
				l-0.57,0.65l-0.14,0.16l-0.06,0.07l-0.07,0.08l-0.27,0.34c-2.91,3.59-5.82,7.18-8,9.87c-0.28,0.33-0.51,0.68-0.79,0.96
				c-0.27,0.29-0.53,0.56-0.77,0.82c-0.48,0.51-0.91,0.96-1.25,1.33c-0.7,0.73-1.1,1.15-1.1,1.15s0.33-0.48,0.9-1.32
				c0.29-0.42,0.64-0.92,1.04-1.5c0.2-0.29,0.42-0.6,0.64-0.92c0.22-0.33,0.51-0.63,0.78-0.97c2.18-2.69,5.09-6.28,8-9.87l0.27-0.34
				l0.07-0.08l0.08-0.09l0.14-0.16l0.57-0.65c0.38-0.43,0.76-0.86,1.14-1.28c0.76-0.85,1.5-1.68,2.22-2.49
				c1.44-1.62,2.78-3.13,3.94-4.42c0.29-0.32,0.55-0.65,0.83-0.93c0.28-0.27,0.55-0.54,0.81-0.78c0.51-0.49,0.95-0.92,1.31-1.27
				C38.79,83.52,39.22,83.12,39.22,83.12z"/>
			<path class="st17" d="M39.33,83.3c0,0-0.33,0.47-0.92,1.29c-0.3,0.4-0.66,0.9-1.07,1.46c-0.21,0.28-0.43,0.58-0.66,0.9
				c-0.23,0.32-0.53,0.61-0.8,0.94c-2.24,2.61-5.23,6.1-8.21,9.58c-2.99,3.48-5.97,6.97-8.21,9.58c-0.29,0.32-0.53,0.66-0.81,0.93
				c-0.28,0.28-0.54,0.54-0.79,0.79c-0.49,0.5-0.93,0.93-1.28,1.29c-0.72,0.71-1.13,1.11-1.13,1.11s0.34-0.47,0.92-1.29
				c0.3-0.41,0.66-0.9,1.08-1.46c0.21-0.28,0.43-0.58,0.66-0.9c0.23-0.32,0.53-0.61,0.8-0.94c2.24-2.61,5.22-6.1,8.21-9.58
				c2.99-3.49,5.97-6.97,8.21-9.58c0.29-0.32,0.53-0.66,0.81-0.94c0.28-0.28,0.54-0.54,0.79-0.79c0.49-0.5,0.93-0.93,1.28-1.29
				C38.91,83.69,39.33,83.3,39.33,83.3z"/>
		</g>
		
			<rect x="110.14" y="-29.77" transform="matrix(0.1713 0.9852 -0.9852 0.1713 161.4079 -49.9231)" class="st15" width="0.48" height="201.51"/>
	</g>
	<path class="st4" d="M11.03,88.25c0,0,1.43,8.77,3.57,21.91c2.1,13.15,4.89,30.7,7.69,48.24c2.72,17.55,5.43,35.11,7.47,48.27
		c1.99,13.17,3.32,21.95,3.32,21.95s-1.43-8.77-3.57-21.91c-2.1-13.16-4.89-30.7-7.69-48.24c-2.72-17.55-5.43-35.11-7.47-48.27
		C12.36,97.03,11.03,88.25,11.03,88.25z"/>
</g>
<g>
	<g>
		<path class="st18" d="M204.02,209.87c0.05-0.38,0.35-0.73,0.74-0.8c0.39-0.08,0.63,0.16,0.58,0.55c-0.04,0.39-0.35,0.73-0.74,0.81
			C204.2,210.5,203.97,210.26,204.02,209.87z M205.17,209.65c0.04-0.31-0.13-0.5-0.43-0.44c-0.3,0.06-0.51,0.32-0.55,0.63
			c-0.03,0.3,0.13,0.49,0.43,0.44C204.91,210.22,205.13,209.95,205.17,209.65z"/>
		<path class="st18" d="M205.52,210.22l0.11-0.94l0.15-0.03l-0.02,0.16c0.09-0.12,0.21-0.21,0.34-0.24l-0.02,0.15
			c-0.02,0-0.04,0-0.06,0.01c-0.09,0.02-0.23,0.12-0.28,0.2l-0.08,0.67L205.52,210.22z"/>
		<path class="st18" d="M206.29,208.91c0.01-0.06,0.06-0.11,0.12-0.12c0.05-0.01,0.09,0.03,0.08,0.08
			c-0.01,0.06-0.05,0.11-0.11,0.12C206.32,209,206.28,208.97,206.29,208.91z M206.17,210.09l0.12-0.95l0.15-0.03l-0.11,0.95
			L206.17,210.09z"/>
		<path class="st18" d="M206.6,210.25l0.08-0.12c0.07,0.08,0.16,0.09,0.3,0.07c0.16-0.03,0.32-0.14,0.34-0.34l0.02-0.14
			c-0.08,0.11-0.21,0.2-0.34,0.23c-0.25,0.05-0.41-0.1-0.37-0.41c0.04-0.31,0.23-0.53,0.49-0.58c0.13-0.03,0.24,0.01,0.3,0.11
			l0.02-0.14l0.15-0.03l-0.11,0.93c-0.04,0.3-0.27,0.45-0.51,0.49C206.8,210.35,206.7,210.34,206.6,210.25z M207.36,209.59
			l0.05-0.41c-0.04-0.07-0.15-0.12-0.27-0.1c-0.2,0.04-0.33,0.21-0.36,0.42c-0.02,0.21,0.08,0.33,0.27,0.3
			C207.17,209.78,207.29,209.69,207.36,209.59z"/>
		<path class="st18" d="M207.89,208.61c0.01-0.06,0.06-0.11,0.11-0.12c0.06-0.01,0.1,0.02,0.09,0.08c-0.01,0.05-0.05,0.1-0.11,0.12
			C207.92,208.69,207.88,208.66,207.89,208.61z M207.77,209.78l0.12-0.95l0.15-0.03l-0.11,0.95L207.77,209.78z"/>
		<path class="st18" d="M208.88,209.57l0.07-0.62c0.02-0.17-0.06-0.2-0.19-0.18c-0.12,0.02-0.24,0.12-0.3,0.2l-0.08,0.69l-0.15,0.03
			l0.11-0.95l0.15-0.03l-0.02,0.14c0.08-0.09,0.22-0.2,0.37-0.23c0.2-0.04,0.29,0.04,0.27,0.25l-0.08,0.66L208.88,209.57z"/>
		<path class="st18" d="M209.93,209.37l0.01-0.11c-0.08,0.1-0.21,0.17-0.33,0.19c-0.16,0.03-0.33-0.04-0.3-0.25
			c0.02-0.22,0.21-0.34,0.37-0.38c0.13-0.03,0.24-0.01,0.31,0.06l0.02-0.17c0.02-0.12-0.08-0.17-0.22-0.15
			c-0.12,0.02-0.21,0.08-0.31,0.19l-0.06-0.09c0.11-0.13,0.24-0.2,0.4-0.23c0.2-0.04,0.36,0.02,0.33,0.25l-0.08,0.65L209.93,209.37z
			 M209.96,209.16l0.02-0.18c-0.05-0.06-0.14-0.08-0.25-0.06c-0.14,0.02-0.25,0.13-0.26,0.25s0.08,0.19,0.21,0.16
			C209.78,209.31,209.89,209.25,209.96,209.16z"/>
		<path class="st18" d="M210.38,209.28l0.15-1.31l0.15-0.03l-0.15,1.31L210.38,209.28z"/>
		<path class="st18" d="M211.96,208.97l0.01-0.11c-0.09,0.1-0.21,0.17-0.33,0.19c-0.16,0.03-0.33-0.04-0.3-0.25
			c0.02-0.21,0.21-0.35,0.38-0.38c0.13-0.02,0.23,0,0.3,0.07l0.02-0.17c0.01-0.13-0.08-0.18-0.22-0.15
			c-0.12,0.02-0.21,0.08-0.31,0.19l-0.06-0.09c0.11-0.13,0.24-0.2,0.4-0.23c0.21-0.04,0.36,0.01,0.34,0.25l-0.08,0.65L211.96,208.97
			z M211.98,208.77l0.02-0.18c-0.05-0.07-0.15-0.09-0.25-0.07c-0.14,0.03-0.25,0.13-0.27,0.25c-0.01,0.12,0.07,0.19,0.21,0.16
			C211.81,208.92,211.91,208.86,211.98,208.77z"/>
		<path class="st18" d="M212.41,208.88l0.11-0.95l0.15-0.03l-0.02,0.15c0.09-0.11,0.21-0.21,0.34-0.24l-0.02,0.15
			c-0.01,0-0.03,0-0.05,0.01c-0.1,0.02-0.23,0.11-0.29,0.2l-0.08,0.67L212.41,208.88z"/>
		<path class="st18" d="M213.12,208.55l0.07-0.62l-0.16,0.03l0.01-0.13l0.16-0.03l0.03-0.26l0.15-0.03l-0.03,0.26l0.19-0.04
			l-0.02,0.13l-0.2,0.04l-0.07,0.59c-0.01,0.07,0.02,0.12,0.08,0.1c0.04-0.01,0.08-0.04,0.11-0.06l0.03,0.1
			c-0.04,0.04-0.1,0.08-0.18,0.1C213.17,208.76,213.1,208.69,213.12,208.55z"/>
		<path class="st18" d="M214.49,208.48l-0.16-0.71l-0.34,0.81l-0.15,0.03l-0.19-0.88l0.15-0.03l0.15,0.71l0.34-0.8l0.13-0.02
			l0.16,0.7l0.33-0.8l0.15-0.03l-0.42,1.01L214.49,208.48z"/>
		<path class="st18" d="M215.12,207.9c0.04-0.27,0.24-0.53,0.53-0.59c0.29-0.06,0.45,0.13,0.42,0.4c-0.04,0.28-0.24,0.53-0.54,0.59
			C215.25,208.36,215.09,208.17,215.12,207.9z M215.92,207.74c0.02-0.2-0.07-0.35-0.28-0.3c-0.21,0.04-0.34,0.23-0.36,0.43
			c-0.03,0.19,0.07,0.34,0.27,0.3C215.76,208.13,215.89,207.94,215.92,207.74z"/>
		<path class="st18" d="M216.26,208.14l0.11-0.95l0.15-0.03l-0.02,0.15c0.09-0.12,0.21-0.21,0.34-0.24l-0.01,0.16
			c-0.02,0-0.04,0-0.06,0c-0.1,0.02-0.23,0.12-0.28,0.2l-0.08,0.67L216.26,208.14z"/>
		<path class="st18" d="M217.58,207.88l-0.29-0.36l-0.18,0.18l-0.03,0.27l-0.15,0.03l0.16-1.31l0.15-0.03l-0.1,0.87l0.56-0.6
			l0.19-0.03l-0.48,0.51l0.37,0.44L217.58,207.88z"/>
		<path class="st18" d="M219.09,207.61c-0.38,0.08-0.65-0.17-0.61-0.54c0.04-0.38,0.39-0.74,0.77-0.81
			c0.38-0.08,0.66,0.17,0.61,0.54C219.82,207.17,219.48,207.54,219.09,207.61z M219.25,206.32c-0.34,0.07-0.66,0.4-0.7,0.73
			c-0.04,0.33,0.21,0.56,0.55,0.5c0.34-0.07,0.66-0.41,0.7-0.74C219.85,206.47,219.6,206.25,219.25,206.32z M219.44,207.16
			c-0.08,0.1-0.18,0.16-0.31,0.19c-0.22,0.04-0.39-0.1-0.37-0.34c0.03-0.24,0.24-0.45,0.47-0.49c0.12-0.03,0.22,0.01,0.28,0.07
			l-0.06,0.06c-0.05-0.06-0.14-0.09-0.23-0.07c-0.18,0.04-0.36,0.2-0.38,0.42c-0.02,0.21,0.12,0.33,0.3,0.29
			c0.09-0.02,0.19-0.08,0.25-0.16L219.44,207.16z"/>
		<path class="st18" d="M221.5,207.12l-0.08-0.27l-0.67,0.13l-0.15,0.32l-0.19,0.04l0.69-1.41l0.21-0.04l0.38,1.21L221.5,207.12z
			 M221.18,206.07l-0.36,0.76l0.56-0.11L221.18,206.07z"/>
		<path class="st18" d="M222.02,206.88l-0.06,0.51l-0.15,0.03l0.15-1.31l0.15-0.03l-0.02,0.14c0.08-0.11,0.21-0.2,0.34-0.22
			c0.26-0.05,0.41,0.1,0.37,0.41c-0.04,0.3-0.23,0.53-0.49,0.58C222.2,207.01,222.09,206.97,222.02,206.88z M222.66,206.43
			c0.02-0.21-0.08-0.34-0.27-0.3c-0.12,0.02-0.25,0.12-0.3,0.21l-0.05,0.43c0.04,0.07,0.15,0.12,0.27,0.1
			C222.5,206.82,222.64,206.65,222.66,206.43z"/>
		<path class="st18" d="M223.17,206.66l-0.06,0.51l-0.15,0.03l0.16-1.31l0.15-0.03l-0.02,0.14c0.08-0.11,0.21-0.2,0.34-0.23
			c0.26-0.05,0.41,0.11,0.37,0.41c-0.04,0.31-0.24,0.53-0.49,0.58C223.35,206.79,223.24,206.75,223.17,206.66z M223.81,206.21
			c0.02-0.21-0.07-0.34-0.27-0.3c-0.12,0.02-0.24,0.11-0.3,0.2l-0.05,0.43c0.04,0.07,0.15,0.12,0.27,0.09
			C223.65,206.6,223.78,206.42,223.81,206.21z"/>
		<path class="st18" d="M224.15,206.61l0.16-1.31l0.15-0.03l-0.16,1.31L224.15,206.61z"/>
		<path class="st18" d="M224.6,206.06c0.03-0.28,0.26-0.54,0.53-0.59c0.29-0.06,0.44,0.14,0.4,0.42l0,0.04l-0.78,0.15
			c-0.01,0.18,0.1,0.3,0.3,0.26c0.11-0.02,0.23-0.09,0.32-0.18l0.06,0.08c-0.11,0.11-0.24,0.19-0.4,0.22
			C224.75,206.52,224.56,206.36,224.6,206.06z M225.11,205.59c-0.2,0.04-0.33,0.23-0.35,0.38l0.63-0.12
			C225.41,205.71,225.33,205.55,225.11,205.59z"/>
		<path class="st18" d="M204.11,212.79l-0.38-1.2l0.19-0.04l0.32,1.04l0.58-1.22l0.19-0.04l-0.69,1.41L204.11,212.79z"/>
		<path class="st18" d="M204.9,212.17c0.04-0.27,0.26-0.53,0.53-0.59c0.29-0.06,0.44,0.14,0.4,0.42l0,0.04l-0.78,0.15
			c-0.01,0.17,0.1,0.3,0.3,0.26c0.11-0.02,0.23-0.08,0.31-0.18l0.06,0.08c-0.11,0.11-0.25,0.19-0.4,0.22
			C205.05,212.63,204.87,212.47,204.9,212.17z M205.42,211.71c-0.21,0.04-0.33,0.23-0.36,0.38l0.64-0.12
			C205.72,211.82,205.64,211.67,205.42,211.71z"/>
		<path class="st18" d="M206.03,211.95c0.03-0.28,0.25-0.53,0.54-0.59c0.17-0.04,0.27,0.02,0.33,0.1l-0.11,0.11
			c-0.05-0.08-0.13-0.09-0.23-0.07c-0.21,0.04-0.35,0.22-0.38,0.43c-0.03,0.21,0.08,0.34,0.29,0.3c0.1-0.02,0.18-0.08,0.26-0.17
			l0.09,0.07c-0.08,0.11-0.2,0.2-0.37,0.24C206.16,212.42,206,212.24,206.03,211.95z"/>
		<path class="st18" d="M207.08,212.02l0.07-0.62l-0.16,0.04l0.02-0.13l0.16-0.03l0.03-0.26l0.15-0.03l-0.03,0.26l0.2-0.04
			l-0.02,0.13l-0.19,0.04l-0.07,0.59c-0.01,0.07,0.01,0.12,0.08,0.1c0.04-0.01,0.08-0.04,0.11-0.06l0.03,0.1
			c-0.04,0.04-0.1,0.08-0.18,0.1C207.12,212.23,207.06,212.17,207.08,212.02z"/>
		<path class="st18" d="M207.61,211.65c0.04-0.27,0.24-0.53,0.54-0.59c0.29-0.05,0.45,0.13,0.42,0.4c-0.03,0.28-0.24,0.54-0.53,0.59
			C207.73,212.11,207.58,211.93,207.61,211.65z M208.41,211.5c0.02-0.19-0.07-0.34-0.28-0.3c-0.21,0.04-0.34,0.23-0.36,0.43
			c-0.02,0.19,0.07,0.34,0.27,0.3C208.25,211.88,208.38,211.69,208.41,211.5z"/>
		<path class="st18" d="M208.75,211.89l0.11-0.95l0.15-0.03l-0.02,0.16c0.09-0.12,0.21-0.21,0.34-0.24l-0.02,0.15
			c-0.02,0-0.03,0-0.06,0c-0.09,0.02-0.23,0.12-0.28,0.2l-0.08,0.67L208.75,211.89z"/>
		<path class="st18" d="M209.93,211.66l0.15-1.31l0.15-0.03l-0.16,1.31L209.93,211.66z"/>
		<path class="st18" d="M210.38,211.11c0.03-0.27,0.24-0.53,0.53-0.58c0.29-0.05,0.45,0.13,0.42,0.41
			c-0.03,0.27-0.24,0.53-0.53,0.59C210.5,211.58,210.35,211.39,210.38,211.11z M211.18,210.96c0.02-0.19-0.07-0.34-0.28-0.3
			c-0.21,0.04-0.34,0.24-0.37,0.43s0.07,0.34,0.28,0.31C211.02,211.35,211.15,211.15,211.18,210.96z"/>
		<path class="st18" d="M211.49,211.6l0.09-0.12c0.07,0.08,0.16,0.09,0.3,0.07c0.16-0.03,0.32-0.14,0.34-0.34l0.02-0.14
			c-0.08,0.11-0.21,0.2-0.34,0.23c-0.25,0.05-0.41-0.1-0.37-0.4c0.04-0.31,0.23-0.53,0.49-0.58c0.13-0.03,0.24,0.02,0.3,0.1
			l0.02-0.14l0.15-0.03l-0.11,0.93c-0.04,0.3-0.28,0.44-0.51,0.49C211.7,211.69,211.6,211.69,211.49,211.6z M212.25,210.95
			l0.05-0.41c-0.05-0.07-0.15-0.12-0.27-0.09c-0.19,0.03-0.33,0.21-0.36,0.42c-0.02,0.21,0.08,0.33,0.27,0.29
			C212.07,211.13,212.19,211.04,212.25,210.95z"/>
		<path class="st18" d="M212.67,210.67c0.03-0.27,0.24-0.53,0.53-0.59c0.29-0.06,0.45,0.13,0.42,0.4c-0.04,0.27-0.24,0.53-0.54,0.59
			C212.8,211.13,212.64,210.95,212.67,210.67z M213.47,210.51c0.02-0.19-0.07-0.34-0.28-0.3c-0.21,0.04-0.34,0.23-0.36,0.43
			c-0.02,0.19,0.07,0.34,0.28,0.3C213.31,210.9,213.45,210.71,213.47,210.51z"/>
		<path class="st18" d="M214.33,210.81l0.16-1.31l0.15-0.03l-0.06,0.5c0.09-0.12,0.22-0.21,0.34-0.23c0.25-0.05,0.41,0.11,0.37,0.42
			c-0.04,0.3-0.24,0.53-0.49,0.58c-0.14,0.03-0.25-0.02-0.31-0.1l-0.02,0.14L214.33,210.81z M214.79,210.62
			c0.2-0.04,0.33-0.21,0.36-0.43c0.02-0.21-0.08-0.34-0.27-0.31c-0.12,0.03-0.25,0.12-0.31,0.21l-0.05,0.43
			C214.56,210.6,214.67,210.65,214.79,210.62z"/>
		<path class="st18" d="M215.42,210.83c0.02,0.01,0.06,0.01,0.08,0c0.07-0.01,0.11-0.04,0.16-0.13l0.08-0.15l-0.29-0.88l0.16-0.03
			l0.23,0.72l0.41-0.84l0.16-0.03l-0.62,1.23c-0.07,0.14-0.18,0.22-0.31,0.25c-0.03,0-0.08,0.01-0.11,0L215.42,210.83z"/>
		<path class="st18" d="M217.39,210.22l-0.38-1.2l0.19-0.04l0.32,1.04l0.58-1.21l0.19-0.04l-0.69,1.41L217.39,210.22z"/>
		<path class="st18" d="M218.17,209.61c0.04-0.28,0.24-0.54,0.54-0.59c0.29-0.06,0.45,0.13,0.42,0.4c-0.03,0.28-0.24,0.54-0.54,0.59
			C218.3,210.07,218.14,209.88,218.17,209.61z M218.98,209.45c0.02-0.19-0.07-0.34-0.28-0.3c-0.21,0.04-0.34,0.24-0.36,0.43
			c-0.02,0.19,0.07,0.35,0.28,0.3C218.82,209.84,218.95,209.65,218.98,209.45z"/>
		<path class="st18" d="M219.32,209.39c0.03-0.28,0.24-0.53,0.54-0.59c0.29-0.06,0.45,0.13,0.41,0.4c-0.03,0.28-0.24,0.54-0.53,0.59
			C219.45,209.85,219.29,209.66,219.32,209.39z M220.12,209.23c0.02-0.19-0.07-0.34-0.27-0.3c-0.21,0.04-0.34,0.24-0.37,0.43
			c-0.02,0.2,0.08,0.34,0.28,0.3C219.96,209.62,220.09,209.42,220.12,209.23z"/>
		<path class="st18" d="M220.46,209.62l0.11-0.95l0.15-0.03l-0.02,0.15c0.09-0.11,0.21-0.21,0.34-0.23l-0.02,0.15
			c-0.02,0-0.03,0-0.06,0.01c-0.09,0.02-0.23,0.11-0.28,0.2l-0.08,0.67L220.46,209.62z"/>
		<path class="st18" d="M222.29,209.28l0.08-0.65c0.01-0.12-0.03-0.18-0.16-0.16c-0.1,0.02-0.22,0.11-0.27,0.2l-0.08,0.69
			l-0.15,0.03l0.08-0.65c0.01-0.12-0.03-0.18-0.15-0.16c-0.1,0.02-0.21,0.11-0.27,0.2l-0.08,0.69l-0.15,0.03l0.11-0.95l0.15-0.03
			l-0.02,0.14c0.05-0.07,0.19-0.2,0.33-0.22c0.15-0.03,0.22,0.04,0.24,0.13c0.06-0.1,0.21-0.21,0.34-0.24
			c0.18-0.03,0.26,0.05,0.23,0.24l-0.08,0.69L222.29,209.28z"/>
		<path class="st18" d="M222.74,208.72c0.04-0.27,0.26-0.53,0.54-0.59c0.29-0.06,0.44,0.14,0.4,0.42l0,0.04l-0.78,0.15
			c-0.01,0.18,0.1,0.3,0.3,0.26c0.11-0.02,0.23-0.09,0.31-0.18l0.06,0.08c-0.11,0.11-0.25,0.19-0.4,0.22
			C222.88,209.18,222.7,209.02,222.74,208.72z M223.26,208.25c-0.2,0.04-0.33,0.23-0.35,0.38l0.63-0.12
			C223.55,208.37,223.48,208.21,223.26,208.25z"/>
		<path class="st18" d="M224.56,208.83l0.02-0.14c-0.08,0.11-0.21,0.2-0.35,0.23c-0.25,0.05-0.4-0.11-0.37-0.42
			c0.04-0.3,0.23-0.53,0.49-0.58c0.13-0.02,0.24,0.02,0.31,0.1l0.06-0.5l0.15-0.03l-0.16,1.31L224.56,208.83z M224.59,208.57
			l0.05-0.43c-0.04-0.07-0.15-0.12-0.27-0.1c-0.19,0.04-0.33,0.22-0.36,0.42c-0.02,0.21,0.08,0.34,0.27,0.31
			C224.41,208.76,224.53,208.67,224.59,208.57z"/>
		<path class="st18" d="M225.13,207.57c0.01-0.05,0.06-0.11,0.11-0.12c0.06-0.01,0.1,0.03,0.09,0.08c-0.01,0.06-0.05,0.11-0.11,0.12
			C225.16,207.66,225.12,207.62,225.13,207.57z M225.01,208.74l0.11-0.95l0.15-0.03l-0.11,0.95L225.01,208.74z"/>
		<path class="st18" d="M226.06,208.54l0.01-0.11c-0.09,0.1-0.2,0.17-0.33,0.2c-0.16,0.03-0.32-0.04-0.3-0.25
			c0.03-0.22,0.21-0.35,0.37-0.38c0.13-0.02,0.24,0,0.3,0.07l0.02-0.17c0.01-0.12-0.08-0.17-0.22-0.14
			c-0.12,0.02-0.21,0.08-0.31,0.19l-0.06-0.09c0.12-0.12,0.25-0.2,0.4-0.23c0.21-0.04,0.37,0.02,0.34,0.25l-0.08,0.65L226.06,208.54
			z M226.09,208.34l0.02-0.18c-0.05-0.06-0.15-0.08-0.25-0.06c-0.14,0.02-0.25,0.13-0.26,0.25c-0.02,0.12,0.07,0.19,0.21,0.16
			C225.92,208.49,226.02,208.43,226.09,208.34z"/>
	</g>
</g>
<linearGradient id="SVGID_21_" gradientUnits="userSpaceOnUse" x1="295.7314" y1="-115.6963" x2="296.1638" y2="-118.1481" gradientTransform="matrix(1 0 0 -1 -178 -10)">
	<stop  offset="0" style="stop-color:#A6A8AC"/>
	<stop  offset="0.5897" style="stop-color:#929497;stop-opacity:0.25"/>
</linearGradient>
<path class="st31" d="M27.85,125.33l-0.33-2.02c-0.16-1.46,0.33-2.26,2.1-2.59L206.29,89.2c2.43-0.25,1.94,0.49,1.94,1.46
	l-0.49,2.91c0,0-0.54-0.76-2.18-0.49c-21.63,3.67-174.72,30.7-175.96,31.03C28.27,124.48,27.85,125.33,27.85,125.33z"/>
<linearGradient id="SVGID_22_" gradientUnits="userSpaceOnUse" x1="398.8857" y1="-149.1836" x2="401.1485" y2="-148.537" gradientTransform="matrix(1 0 0 -1 -178 -10)">
	<stop  offset="0" style="stop-color:#F3F3F3;stop-opacity:0"/>
	<stop  offset="0.5197" style="stop-color:#F3F3F3;stop-opacity:0.5197"/>
	<stop  offset="1" style="stop-color:#F3F3F3"/>
</linearGradient>
<path class="st32" d="M234.58,189.42c1.61-0.48,2.26-1.29,1.77-3.07l-26.54-94.72c-0.49-1.62-1.09-2.67-3.52-2.43l1.21,5.94
	L234.58,189.42z"/>
<linearGradient id="SVGID_23_" gradientUnits="userSpaceOnUse" x1="390.1797" y1="-102.0391" x2="389.5949" y2="-99.1156" gradientTransform="matrix(1 0 0 -1 -178 -10)">
	<stop  offset="0" style="stop-color:#A6A8AC;stop-opacity:0"/>
	<stop  offset="1" style="stop-color:#A6A8AC"/>
</linearGradient>
<path class="st33" d="M234.58,189.42c1.61-0.48,2.26-1.29,1.77-3.07l-26.54-94.72c-0.49-1.62-1.09-2.67-3.52-2.43l1.21,5.94
	L234.58,189.42z"/>
<linearGradient id="SVGID_24_" gradientUnits="userSpaceOnUse" x1="370.3721" y1="-86.0898" x2="305.8791" y2="-171.5958" gradientTransform="matrix(1 0 0 -1 -178 -10)">
	<stop  offset="0" style="stop-color:#BBBDBF;stop-opacity:0.25"/>
	<stop  offset="0.499" style="stop-color:#D2D3D3;stop-opacity:0.1002"/>
	<stop  offset="1" style="stop-color:#D2D3D3;stop-opacity:0.5"/>
</linearGradient>
<path class="st34" d="M28.41,128.08l-0.39-3.17c0.19-0.06,0.49-0.84,1.75-1.06l175.21-31.08c2.43-0.24,3.03,0.81,3.52,2.43
	l26.15,93.92l-2.21,0.46l-26-94.04L28.41,128.08z"/>
<path class="st17" d="M45.23,225.78c-1.39,0-2.29-0.82-2.75-2.51l-15.21-99.92c-0.19-1.69,0.5-2.54,2.3-2.86l176.67-31.52
	c0.26-0.03,0.49-0.04,0.69-0.04c2.13,0,2.68,1.25,3.09,2.64l26.54,94.72c0.5,1.8-0.09,2.82-1.94,3.37L45.99,225.7
	C45.73,225.76,45.47,225.78,45.23,225.78z M206.95,89.41c-0.2,0-0.41,0.01-0.63,0.04L29.67,120.96c-1.77,0.33-2.04,1.09-1.9,2.32
	l15.19,99.88c0.48,1.73,1.37,2.35,2.95,2.06l188.63-36.05c1.57-0.47,2.01-1.23,1.58-2.77L209.57,91.7
	C209.13,90.18,208.59,89.41,206.95,89.41z"/>
<path class="st1" d="M234.51,189.08c-0.25-0.91-25.46-90.95-26.23-93.84c-0.7-2.67-2.66-2.41-2.68-2.41
	c-1.72,0.31-173.77,30.8-175.36,31.11c-1.49,0.3-2.02,1.03-2.03,1.03l-0.4-0.28c0.02-0.04,0.64-0.89,2.33-1.23
	c1.61-0.32,173.65-30.81,175.38-31.11c0.03-0.01,2.41-0.33,3.22,2.77c0.75,2.87,25.97,92.92,26.23,93.83L234.51,189.08z"/>
<g>
	<defs>
		<path id="SVGID_25_" d="M152.27,128.75c19.54-11.74,38.84-21.93,57.15-30.37l-0.9-3.2c-0.49-1.61-1.1-2.66-3.52-2.42L28.33,124.28
			c-0.24,0.04-0.45,0.1-0.63,0.16l14.18,93.18C63.75,190.76,103.38,158.13,152.27,128.75z"/>
	</defs>
	<clipPath id="SVGID_26_">
		<use xlink:href="#SVGID_25_"  style="overflow:visible;"/>
	</clipPath>
	<linearGradient id="SVGID_27_" gradientUnits="userSpaceOnUse" x1="184.9844" y1="299.8105" x2="114.1138" y2="94.1369">
		<stop  offset="0" style="stop-color:#FFFFFF"/>
		<stop  offset="1" style="stop-color:#FFFFFF;stop-opacity:0"/>
	</linearGradient>
	<rect x="-4.03" y="41.44" class="st37" width="278.53" height="227.98"/>
</g>
<g>
</g>
<g>
</g>
<g>
</g>
<g>
</g>
<g>
</g>
<g>
</g>
</svg>
