<?xml version="1.0" encoding="utf-8"?>
<!-- Generator: Adobe Illustrator 16.0.0, SVG Export Plug-In . SVG Version: 6.00 Build 0)  -->
<!DOCTYPE svg PUBLIC "-//W3C//DTD SVG 1.1//EN" "http://www.w3.org/Graphics/SVG/1.1/DTD/svg11.dtd">
<svg version="1.1" xmlns="http://www.w3.org/2000/svg" xmlns:xlink="http://www.w3.org/1999/xlink" x="0px" y="0px" width="256px"
	 height="256px" viewBox="0 0 256 256" style="enable-background:new 0 0 256 256;" xml:space="preserve">
<style type="text/css">
<![CDATA[
	.st0{opacity:0.3;fill:#020202;enable-background:new    ;}
	.st1{opacity:0.5;filter:url(#AI_GaussianBlur_4);enable-background:new    ;}
	.st2{opacity:0.4;fill:#020202;enable-background:new    ;}
	.st3{fill:#E7E7E7;}
	.st4{opacity:0.75;fill:#FFFFFF;enable-background:new    ;}
	.st5{opacity:0.25;fill:#020202;enable-background:new    ;}
	.st6{opacity:0.6;fill:#020202;enable-background:new    ;}
	.st7{opacity:0.35;fill:#FFFFFF;enable-background:new    ;}
	.st8{fill:url(#SVGID_1_);}
	.st9{fill:url(#SVGID_2_);}
	.st10{fill:url(#SVGID_3_);}
	.st11{fill:url(#SVGID_4_);}
	.st12{fill:url(#SVGID_5_);}
	.st13{fill:url(#SVGID_6_);}
	.st14{fill:url(#SVGID_7_);}
	.st15{fill:url(#SVGID_8_);}
	.st16{fill:url(#SVGID_9_);}
	.st17{clip-path:url(#SVGID_32_);fill:url(#SVGID_33_);}
	.st18{fill:#FFFFFF;}
	.st19{fill:#020202;}
	.st20{fill:#D2D3D3;}
	.st21{fill:url(#SVGID_10_);}
	.st22{fill:url(#SVGID_11_);}
	.st23{fill:url(#SVGID_12_);}
	.st24{fill:url(#SVGID_13_);}
	.st25{fill:url(#SVGID_14_);}
	.st26{fill:url(#SVGID_15_);}
	.st27{fill:url(#SVGID_16_);}
	.st28{fill:url(#SVGID_17_);}
	.st29{fill:url(#SVGID_18_);}
	.st30{fill:url(#SVGID_19_);}
	.st31{fill:url(#SVGID_20_);}
	.st32{fill:url(#SVGID_21_);}
	.st33{fill:url(#SVGID_22_);}
	.st34{fill:url(#SVGID_23_);}
	.st35{fill:url(#SVGID_24_);}
	.st36{fill:url(#SVGID_25_);}
	.st37{fill:url(#SVGID_26_);}
	.st38{fill:url(#SVGID_27_);}
	.st39{fill:url(#SVGID_28_);}
	.st40{fill:url(#SVGID_29_);}
	.st41{fill:url(#SVGID_30_);}
	.st42{fill:#707171;}
	.st43{opacity:0.6;fill:#FFFFFF;enable-background:new    ;}
	.st44{fill:#424243;}
]]>
</style>
<filter  id="AI_GaussianBlur_4">
	<feGaussianBlur  stdDeviation="4"></feGaussianBlur>
</filter>
<g id="Layer_3">
	<g class="st1">
		<path class="st19" d="M249.67,192.08c-0.08-0.88-0.19-1.56-0.28-2.01c-0.09-0.46-0.15-0.68-0.15-0.68s0.06,0.23,0.14,0.68
			c0.08,0.45,0.19,1.12,0.26,2.01c0.07,0.88,0.12,1.98,0.03,3.27c0,0.07-0.01,0.15-0.02,0.23c0.25-3.49-0.44-6.22-0.44-6.22
			l-0.04,0.01c-0.02-0.12-0.04-0.24-0.06-0.33c-0.09-0.45-0.15-0.66-0.15-0.66s0.01,0.06,0.04,0.17c-0.02-0.09-0.04-0.15-0.04-0.15
			L215.85,76.27l0.09-0.01l-0.09-0.48l-0.13,0.02l-0.03-0.1l0.22-0.04l-0.07-0.36l0.09-0.02l-0.09-0.48l-0.39,0.07l-6.4-17.45
			l6.03,16.43l-6.03-16.41l0-0.02l-0.01,0v0l-0.11,0.02l-0.02-0.15l-55.22,8.64c0.02-0.02,0.04-0.05,0.04-0.05s-0.03,0.03-0.05,0.05
			l-74.97,9.12l14.67-4.63v0l27.48-8.68v0.01l27.16-8.58v0l26.51-8.37v0.01l25.22-7.97l-2.74-0.36c0,0-1.95-1.23-1.98-1.32
			l1.32-0.66c0,0,1.32,1.32,1.32,1.32l-1.65-1.65c-9.74,5.61,0.04,0.44,0,0.33h-1.98l-4.96-1.65l-11.23-1.98
			c-0.66-1.78,17.85-5.09,14.54-10.24c-4.37-6.79-12.89-2.31-12.89-2.31s6.55,0.14-0.82,2.38c-0.07-0.02-0.11-0.04-0.11-0.04
			s0.03,0.01,0.1,0.04c-0.05,0.01-4.74,5.86-4.79,5.88c-0.01-0.01,4.62-5.86,4.61-5.88c0.03-0.06,0.09-0.03,0.08-0.04
			c0.01,0.01,0.4,15.78,0.36,15.85c0,0.02-0.43-15.78-0.42-15.76c-0.05,0.02-11.19,1.19-11.24,1.21c-6.79,2.07-4.94,3.72-15.53,6.94
			c-0.04-0.01-0.1-0.03-0.13-0.04c-0.1-0.03-0.17-0.05-0.23-0.07c0.06,0.02,0.13,0.05,0.23,0.08c0.03,0.01,0.07,0.03,0.1,0.04
			c0,0-0.01,0-0.01,0c-0.26-0.08-0.4-0.12-0.4-0.12s0.13,0.05,0.36,0.14c-0.13,0.04-0.26,0.08-0.4,0.12
			c-8.1,2.46-16.95,5.15-26.09,7.93c0,0-0.01-0.01-0.05-0.02c-0.01,0-0.02,0-0.03,0c-0.02-0.01-0.02,0.02,0,0.03
			c0,0,0.01,0,0.01,0.01c-2.53,0.77-5.09,1.55-7.66,2.33c-6.57,1.99-13.2,4.01-19.74,6c0,0-0.01,0-0.02-0.01
			c-0.01-0.01-0.04,0-0.04,0.02c-0.06,0.02-0.12,0.04-0.18,0.05c-9.89,3-19.55,5.94-28.38,8.62c-10.21,3.09-19.28,5.85-26.34,8
			c-0.09-0.03-0.15-0.05-0.15-0.05s0.05,0.02,0.13,0.06c-0.04,0.01-0.08,0.02-0.12,0.04c-0.03-0.02-0.05-0.04-0.07-0.05
			c-0.04-0.04,0.02-0.04,0.03-0.04c0.02,0,0.03,0,0.03,0s5.63,2.31-3.86-2.34c10.15,3.98,3.74,2.33,3.78,2.37
			c0.02,0.02,0.05,0.04,0.08,0.07c-0.15,0.05-0.32,0.1-0.47,0.14c-6.9,2.09-11.76,3.57-13.65,4.14c-4.96,1.5-7.77,3.96-9.37,6.44
			c-0.01,0-0.01,0-0.01,0c-0.02,0-0.04-0.01-0.06,0c-0.03,0.02,0.01,0.04,0.02,0.05c0,0,0.01,0.01,0.01,0.01
			c-2.52,3.92-12.38,1.66-12.38,1.66l2.95,12.79c0,0,0,0.03,0.01,0.05l-0.01,0l0.27,1.7c0.49,3.2,1.61,10.61,3.09,20.45
			c2.05,13.31,4.81,31.06,7.55,48.83c2.83,17.71,5.65,36.4,7.77,49.7l3.15,20.16c0,0,0.04,0.23,0.08,0.65
			c0.07,0.45,0.21,1.09,0.44,1.93c0.08,0.29,0.19,0.62,0.31,0.95c0.3,1.14,0.64,2.18,1.02,3.13c0.56,1.46,1.39,3.2,2.77,5.01
			c0.52,0.64,1.09,1.31,1.78,1.92c0.68,0.61,1.46,1.2,2.33,1.71c1.73,1.02,3.86,1.73,6.19,1.88c0.58,0.04,1.17,0.05,1.77,0.01
			c0.6-0.02,1.21-0.16,1.8-0.27c1.21-0.23,2.45-0.46,3.73-0.7c2.56-0.49,5.24-0.99,8.04-1.53c22.39-4.28,52.25-9.98,82.1-15.69
			c7.45-1.44,14.93-2.81,22.28-4.19c7.35-1.38,14.59-2.74,21.59-4.04c14.01-2.61,27.08-5.04,38.29-7.12
			c2.81-0.52,5.48-1.01,8.04-1.49c0.64-0.13,1.27-0.24,1.89-0.36c0.32-0.06,0.63-0.12,0.93-0.18l0.46-0.09l0.45-0.12
			c0.29-0.07,0.58-0.15,0.88-0.23c0.3-0.08,0.57-0.19,0.86-0.28c0.58-0.18,1.12-0.43,1.66-0.64c1.04-0.5,2.04-1.03,2.9-1.71
			c0.23-0.16,0.44-0.33,0.63-0.51c0.2-0.18,0.41-0.35,0.59-0.53c0.37-0.38,0.74-0.73,1.05-1.13c0.34-0.38,0.61-0.79,0.89-1.18
			c0.24-0.42,0.5-0.8,0.71-1.22c0.45-0.82,0.74-1.65,1-2.44c0.49-1.6,0.69-3.08,0.76-4.37
			C249.79,194.06,249.75,192.96,249.67,192.08z"/>
	</g>
</g>
<g id="Layer_1">
	<g id="Layer_4_2_">
		<g>
			
				<linearGradient id="SVGID_1_" gradientUnits="userSpaceOnUse" x1="283.6729" y1="167.9097" x2="284.7018" y2="164.6944" gradientTransform="matrix(1 0 0 -1 -178 234)">
				<stop  offset="0.1288" style="stop-color:#020202;stop-opacity:0.5"/>
				<stop  offset="0.2301" style="stop-color:#020202;stop-opacity:0.25"/>
				<stop  offset="0.6886" style="stop-color:#020202;stop-opacity:0"/>
			</linearGradient>
			<path class="st8" d="M9.66,92.12l32.73-0.73L201.2,38.53l-1.46-1.7c0,0-1.91-1.84-1.94-1.94L9.66,92.12z"/>
			<g id="Clap_2_">
				
					<linearGradient id="SVGID_2_" gradientUnits="userSpaceOnUse" x1="201.8027" y1="179.5991" x2="396.2542" y2="172.8103" gradientTransform="matrix(1 0 0 -1 -178 234)">
					<stop  offset="0" style="stop-color:#2D2C2C"/>
					<stop  offset="1" style="stop-color:#A3A1A2"/>
				</linearGradient>
				<path class="st9" d="M9.66,87.27l32.73-0.73l157.35-49.7l1.46-9.46c0,0-0.02-0.06-0.05-0.15L9.66,87.27z"/>
				<g>
					
						<linearGradient id="SVGID_3_" gradientUnits="userSpaceOnUse" x1="201.3262" y1="165.9058" x2="395.7756" y2="159.117" gradientTransform="matrix(1 0 0 -1 -178 234)">
						<stop  offset="0" style="stop-color:#0F0F0F"/>
						<stop  offset="1" style="stop-color:#4C4A4A"/>
					</linearGradient>
					<polygon class="st10" points="65.91,69.63 65.91,79.11 93.39,70.43 93.39,61.01 					"/>
					
						<linearGradient id="SVGID_4_" gradientUnits="userSpaceOnUse" x1="200.834" y1="151.8511" x2="395.2796" y2="145.0624" gradientTransform="matrix(1 0 0 -1 -178 234)">
						<stop  offset="0" style="stop-color:#0F0F0F"/>
						<stop  offset="1" style="stop-color:#4C4A4A"/>
					</linearGradient>
					<polygon class="st11" points="9.66,87.27 41.66,86.56 41.66,77.23 					"/>
					
						<linearGradient id="SVGID_5_" gradientUnits="userSpaceOnUse" x1="202.6416" y1="203.6797" x2="397.0954" y2="196.8907" gradientTransform="matrix(1 0 0 -1 -178 234)">
						<stop  offset="0" style="stop-color:#0F0F0F"/>
						<stop  offset="1" style="stop-color:#4C4A4A"/>
					</linearGradient>
					<path class="st12" d="M201.21,27.38c0,0-0.02-0.06-0.05-0.15l-26.61,8.35v9.23l25.22-7.97L201.21,27.38z"/>
					
						<linearGradient id="SVGID_6_" gradientUnits="userSpaceOnUse" x1="201.9912" y1="185.0371" x2="396.4449" y2="178.2483" gradientTransform="matrix(1 0 0 -1 -178 234)">
						<stop  offset="0" style="stop-color:#0F0F0F"/>
						<stop  offset="1" style="stop-color:#4C4A4A"/>
					</linearGradient>
					<polygon class="st13" points="120.87,52.4 120.87,61.76 148.03,53.17 148.03,43.88 					"/>
				</g>
				
					<linearGradient id="SVGID_7_" gradientUnits="userSpaceOnUse" x1="283.29" y1="177.1016" x2="286.1989" y2="168.0516" gradientTransform="matrix(1 0 0 -1 -178 234)">
					<stop  offset="0.0364" style="stop-color:#020202;stop-opacity:0.5"/>
					<stop  offset="0.1246" style="stop-color:#020202;stop-opacity:0.25"/>
					<stop  offset="0.6562" style="stop-color:#020202;stop-opacity:0"/>
				</linearGradient>
				<path class="st14" d="M9.66,87.27l32.73-0.73l157.35-49.7l1.46-9.46c0,0-0.02-0.06-0.05-0.15L9.66,87.27z"/>
				
					<linearGradient id="SVGID_8_" gradientUnits="userSpaceOnUse" x1="283.29" y1="177.1016" x2="286.1989" y2="168.0516" gradientTransform="matrix(1 0 0 -1 -178 234)">
					<stop  offset="0.309" style="stop-color:#FFFFFF;stop-opacity:0"/>
					<stop  offset="0.8527" style="stop-color:#FFFFFF;stop-opacity:0.25"/>
					<stop  offset="1" style="stop-color:#FFFFFF;stop-opacity:0.5"/>
				</linearGradient>
				<path class="st15" d="M9.66,87.27l32.73-0.73l157.35-49.7l1.46-9.46c0,0-0.02-0.06-0.05-0.15L9.66,87.27z"/>
				
					<linearGradient id="SVGID_9_" gradientUnits="userSpaceOnUse" x1="273.6357" y1="195.9775" x2="284.9504" y2="174.3183" gradientTransform="matrix(1 0 0 -1 -178 234)">
					<stop  offset="0" style="stop-color:#D8D7D7"/>
					<stop  offset="0.6155" style="stop-color:#CBC9C9"/>
					<stop  offset="1" style="stop-color:#C1BEBE"/>
				</linearGradient>
				<path class="st16" d="M200.97,26.71c-0.59-1.64-2.38-6.09-5.83-11.45c-4.37-6.79-16-4.12-16-4.12s-4.54,1.38-12.09,3.68
					c-6.9,2.1-16.31,4.97-27.11,8.25c-8.1,2.46-16.95,5.15-26.1,7.93c-9.11,2.77-18.51,5.63-27.69,8.42
					c-9.89,3-19.55,5.94-28.38,8.62c-10.5,3.18-19.81,6.02-26.95,8.19c-6.9,2.09-11.76,3.57-13.65,4.14
					c-4.99,1.51-7.81,3.99-9.41,6.48c-2.53,3.92-1.14,10.25-1.14,10.25l3.03,10.18l28.48-8.93l27.95-8.76l26.56-8.33l27.98-8.77
					l27.32-8.56l27.17-8.51l26.03-8.16C201.12,27.11,201.05,26.93,200.97,26.71z"/>
				<g>
					
						<linearGradient id="SVGID_10_" gradientUnits="userSpaceOnUse" x1="186.7529" y1="163.3447" x2="376.8376" y2="205.6937" gradientTransform="matrix(1 0 0 -1 -178 234)">
						<stop  offset="0" style="stop-color:#626363"/>
						<stop  offset="1" style="stop-color:#626363"/>
					</linearGradient>
					<path class="st21" d="M30.83,56.21L66.1,69.58l26.56-8.33L57.77,48.04C47.28,51.22,37.97,54.04,30.83,56.21z"/>
					
						<linearGradient id="SVGID_11_" gradientUnits="userSpaceOnUse" x1="188.3667" y1="157.3213" x2="376.6092" y2="199.2598" gradientTransform="matrix(1 0 0 -1 -178 234)">
						<stop  offset="0" style="stop-color:#626363"/>
						<stop  offset="1" style="stop-color:#626363"/>
					</linearGradient>
					<path class="st22" d="M6.63,77.08l3.03,10.18l28.48-8.93L7.77,66.83C5.25,70.75,6.63,77.08,6.63,77.08z"/>
					
						<linearGradient id="SVGID_12_" gradientUnits="userSpaceOnUse" x1="184.7715" y1="172.2866" x2="374.8466" y2="214.6334" gradientTransform="matrix(1 0 0 -1 -178 234)">
						<stop  offset="0" style="stop-color:#626363"/>
						<stop  offset="1" style="stop-color:#626363"/>
					</linearGradient>
					<path class="st23" d="M200.97,26.71l-33.92-11.89c-6.9,2.1-16.31,4.97-27.11,8.25l35.18,12.34l26.03-8.16
						C201.12,27.11,201.05,26.93,200.97,26.71z"/>
					
						<linearGradient id="SVGID_13_" gradientUnits="userSpaceOnUse" x1="185.7461" y1="167.875" x2="375.8294" y2="210.2236" gradientTransform="matrix(1 0 0 -1 -178 234)">
						<stop  offset="0" style="stop-color:#626363"/>
						<stop  offset="1" style="stop-color:#626363"/>
					</linearGradient>
					<path class="st24" d="M86.15,39.4l34.49,13.06l27.32-8.56l-34.11-12.92C104.73,33.75,95.35,36.61,86.15,39.4z"/>
				</g>
				
					<linearGradient id="SVGID_14_" gradientUnits="userSpaceOnUse" x1="273.6357" y1="195.9775" x2="284.9504" y2="174.3183" gradientTransform="matrix(1 0 0 -1 -178 234)">
					<stop  offset="0" style="stop-color:#FFFFFF;stop-opacity:0.15"/>
					<stop  offset="1" style="stop-color:#FFFFFF;stop-opacity:0"/>
				</linearGradient>
				<path class="st25" d="M200.97,26.71c-0.59-1.64-2.38-6.09-5.83-11.45c-4.37-6.79-16-4.12-16-4.12s-4.54,1.38-12.09,3.68
					c-6.9,2.1-16.31,4.97-27.11,8.25c-8.1,2.46-16.95,5.15-26.1,7.93c-9.11,2.77-18.51,5.63-27.69,8.42
					c-9.89,3-19.55,5.94-28.38,8.62c-10.5,3.18-19.81,6.02-26.95,8.19c-6.9,2.09-11.76,3.57-13.65,4.14
					c-4.99,1.51-7.81,3.99-9.41,6.48c-2.53,3.92-1.14,10.25-1.14,10.25l3.03,10.18l28.48-8.93l27.95-8.76l26.56-8.33l27.98-8.77
					l27.32-8.56l27.17-8.51l26.03-8.16C201.12,27.11,201.05,26.93,200.97,26.71z"/>
				<g id="Wit_scheiding_8_">
					<path class="st44" d="M113.85,30.99c0,0-0.01,0-0.03-0.01c-0.01,0-0.07-0.01-0.03,0.02c0.06,0.04,0.15,0.09,0.27,0.14
						c0.25,0.11,0.61,0.26,1.08,0.44c0.94,0.37,2.29,0.85,3.92,1.45c3.24,1.18,7.57,2.77,11.9,4.34c2.16,0.8,4.32,1.61,6.34,2.37
						c2.02,0.75,3.9,1.49,5.51,2.11c3.22,1.26,5.36,2.1,5.36,2.1s-2.2-0.69-5.45-1.84c-1.63-0.58-3.54-1.23-5.57-1.97
						c-2.03-0.73-4.19-1.52-6.36-2.31c-2.16-0.81-4.31-1.63-6.33-2.39s-3.9-1.52-5.5-2.16c-1.61-0.64-2.93-1.22-3.86-1.62
						c-0.47-0.21-0.82-0.38-1.06-0.5c-0.12-0.06-0.21-0.11-0.27-0.16c-0.02-0.01-0.02-0.04,0-0.03c0.01,0,0.02,0,0.03,0
						C113.84,30.98,113.85,30.99,113.85,30.99z"/>
					<path class="st3" d="M113.85,30.99c0,0,0.54,0.19,1.49,0.51c0.94,0.34,2.29,0.79,3.91,1.38c1.61,0.59,3.49,1.25,5.5,1.99
						c2,0.74,4.14,1.55,6.28,2.34c2.13,0.81,4.26,1.64,6.27,2.4c2,0.76,3.86,1.52,5.45,2.13c1.6,0.62,2.91,1.17,3.84,1.55
						c0.92,0.38,1.45,0.59,1.45,0.59s-0.54-0.19-1.49-0.52c-0.94-0.33-2.3-0.79-3.9-1.38c-1.61-0.58-3.5-1.25-5.5-1.99
						c-2-0.74-4.14-1.55-6.28-2.34c-2.13-0.82-4.26-1.64-6.26-2.4c-2-0.76-3.86-1.51-5.45-2.13c-1.6-0.62-2.91-1.17-3.84-1.55
						C114.38,31.21,113.85,30.99,113.85,30.99z"/>
				</g>
				<g id="Wit_scheiding_7_">
					<path class="st44" d="M167.25,14.68c0.01,0.01-0.05-0.02-0.08,0.04c0.02,0.06,0.12,0.12,0.23,0.19
						c0.23,0.13,0.58,0.29,1.04,0.48c0.91,0.39,2.25,0.86,3.85,1.45c1.6,0.58,3.47,1.23,5.47,1.93c2.01,0.69,4.15,1.44,6.28,2.18
						c4.28,1.5,8.56,2.99,11.76,4.11c1.61,0.55,2.94,1.02,3.9,1.32c0.94,0.31,1.5,0.45,1.5,0.41c0,0.04-0.56-0.06-1.53-0.32
						c-0.95-0.26-2.33-0.63-3.95-1.15c-1.62-0.51-3.52-1.1-5.53-1.77c-2.01-0.68-4.16-1.42-6.3-2.14c-2.14-0.76-4.27-1.53-6.27-2.25
						c-2-0.72-3.85-1.45-5.43-2.07c-1.59-0.62-2.88-1.19-3.79-1.62c-0.45-0.21-0.79-0.4-1.02-0.54c-0.11-0.07-0.21-0.13-0.22-0.21
						C167.2,14.65,167.26,14.69,167.25,14.68z"/>
					<path class="st3" d="M167.25,14.68c0,0,0.54,0.17,1.47,0.48c0.93,0.31,2.27,0.73,3.86,1.28c1.59,0.54,3.45,1.16,5.44,1.86
						c1.98,0.69,4.09,1.44,6.21,2.18c2.1,0.76,4.21,1.53,6.2,2.24c1.98,0.71,3.81,1.42,5.39,1.99c1.58,0.58,2.88,1.1,3.8,1.45
						c0.91,0.36,1.44,0.56,1.44,0.56s-0.54-0.17-1.47-0.48s-2.27-0.73-3.86-1.28c-1.59-0.54-3.45-1.16-5.43-1.85
						c-1.98-0.69-4.1-1.44-6.22-2.18c-2.11-0.76-4.21-1.53-6.19-2.24c-1.97-0.71-3.81-1.42-5.38-1.99c-1.58-0.58-2.88-1.1-3.8-1.45
						C167.77,14.88,167.25,14.68,167.25,14.68z"/>
				</g>
				<g id="Wit_scheiding_6_">
					<path class="st44" d="M58.25,47.96c0,0-0.01,0-0.03,0c-0.01,0-0.07-0.01-0.04,0.02c0.06,0.04,0.15,0.09,0.27,0.14
						c0.25,0.11,0.61,0.26,1.08,0.44c0.94,0.37,2.29,0.85,3.92,1.45c3.24,1.18,7.57,2.77,11.9,4.34c2.16,0.8,4.32,1.61,6.34,2.37
						c2.02,0.75,3.9,1.49,5.51,2.11c3.22,1.26,5.36,2.1,5.36,2.1s-2.2-0.69-5.46-1.84c-1.63-0.57-3.54-1.23-5.57-1.97
						c-2.03-0.73-4.19-1.52-6.36-2.31c-2.16-0.81-4.31-1.63-6.33-2.39c-2.02-0.76-3.9-1.52-5.5-2.16c-1.61-0.64-2.93-1.21-3.86-1.62
						c-0.46-0.21-0.82-0.38-1.06-0.5c-0.12-0.06-0.21-0.11-0.27-0.16c-0.02-0.01-0.01-0.04,0.01-0.03c0.01,0,0.03,0,0.03,0
						C58.24,47.95,58.25,47.96,58.25,47.96z"/>
					<path class="st3" d="M58.25,47.96c0,0,0.54,0.19,1.49,0.51c0.94,0.34,2.29,0.79,3.91,1.38c1.61,0.58,3.49,1.25,5.5,1.99
						c2,0.74,4.14,1.55,6.28,2.34c2.13,0.81,4.26,1.64,6.26,2.4c2,0.76,3.86,1.52,5.45,2.13c1.6,0.62,2.91,1.17,3.84,1.55
						c0.92,0.38,1.45,0.59,1.45,0.59s-0.54-0.19-1.49-0.52c-0.94-0.33-2.29-0.79-3.91-1.38c-1.61-0.58-3.49-1.25-5.5-1.99
						c-2-0.74-4.14-1.55-6.28-2.34c-2.13-0.82-4.26-1.64-6.26-2.4c-2-0.76-3.86-1.51-5.45-2.13c-1.6-0.62-2.91-1.17-3.84-1.55
						C58.77,48.18,58.25,47.96,58.25,47.96z"/>
				</g>
				<g id="Wit_scheiding_5_">
					<path class="st44" d="M7.88,66.82c0,0-0.03-0.01-0.09-0.01c-0.02,0-0.04,0-0.05,0c-0.01,0,0.01,0.03,0.03,0.04
						c0.04,0.03,0.09,0.05,0.14,0.08c0.22,0.11,0.56,0.24,0.97,0.41c0.84,0.34,2.06,0.77,3.53,1.31c2.92,1.07,6.83,2.5,10.73,3.92
						c1.95,0.7,3.9,1.45,5.72,2.13c1.83,0.67,3.52,1.33,4.98,1.87c1.46,0.56,2.68,1.01,3.52,1.33c0.43,0.15,0.76,0.28,0.99,0.35
						c0.06,0.02,0.11,0.03,0.15,0.04c0.02,0.01,0.05,0.01,0.05,0.01c-0.01-0.01-0.03-0.02-0.04-0.03c-0.05-0.03-0.08-0.05-0.08-0.05
						s0.03,0.01,0.09,0.04c0.01,0.01,0.03,0.01,0.05,0.03c-0.02,0.03-0.04,0.01-0.07,0.01c-0.05-0.01-0.1-0.02-0.16-0.03
						c-0.24-0.06-0.59-0.15-1.02-0.29c-0.87-0.27-2.11-0.64-3.59-1.16c-1.48-0.51-3.2-1.08-5.02-1.74
						c-1.83-0.66-3.79-1.35-5.74-2.08c-1.94-0.73-3.89-1.47-5.71-2.15c-1.81-0.7-3.51-1.38-4.95-1.96c-1.45-0.58-2.64-1.1-3.47-1.48
						c-0.42-0.19-0.73-0.35-0.95-0.47c-0.05-0.03-0.1-0.06-0.14-0.09c-0.01-0.01-0.05-0.03-0.02-0.05c0.02-0.01,0.04,0,0.06,0
						C7.85,66.81,7.88,66.82,7.88,66.82z"/>
					<path class="st3" d="M7.88,66.82c0,0,0.48,0.16,1.32,0.45c0.84,0.29,2.04,0.69,3.47,1.2c1.43,0.52,3.11,1.09,4.89,1.74
						c1.78,0.65,3.69,1.35,5.59,2.05c1.89,0.71,3.79,1.44,5.57,2.11c1.77,0.67,3.42,1.33,4.84,1.88c1.42,0.56,2.59,1.04,3.41,1.37
						c0.82,0.34,1.29,0.54,1.29,0.54s-0.48-0.16-1.32-0.44c-0.84-0.3-2.04-0.69-3.47-1.2c-1.43-0.52-3.11-1.09-4.9-1.74
						c-1.78-0.65-3.69-1.35-5.59-2.05c-1.89-0.71-3.79-1.44-5.57-2.11c-1.77-0.67-3.42-1.34-4.84-1.88
						c-1.42-0.55-2.59-1.04-3.41-1.37C8.35,67.01,7.88,66.82,7.88,66.82z"/>
				</g>
				<g id="Zwart_scheiding_6_">
					<path class="st44" d="M139.98,22.8c0,0-0.01-0.01-0.02-0.01s-0.03-0.01-0.02-0.02c0.01,0,0.03,0,0.05,0.01
						c0.07,0.02,0.17,0.05,0.3,0.09c0.26,0.08,0.64,0.2,1.12,0.36c0.96,0.32,2.34,0.76,3.97,1.34c1.64,0.58,3.56,1.23,5.6,1.97
						c2.04,0.74,4.21,1.53,6.39,2.32c2.17,0.8,4.34,1.61,6.38,2.35c2.04,0.73,3.94,1.45,5.57,2.01c1.63,0.56,3,1.05,3.97,1.34
						c0.49,0.15,0.86,0.26,1.13,0.32c0.13,0.03,0.23,0.05,0.3,0.06c0.07,0.01,0.11,0,0.11,0s-0.04,0.01-0.11,0
						c-0.07,0-0.17-0.02-0.31-0.04c-0.27-0.05-0.66-0.12-1.15-0.26c-0.98-0.26-2.38-0.64-4.03-1.17s-3.59-1.15-5.63-1.87
						c-2.05-0.71-4.23-1.5-6.4-2.29c-2.17-0.81-4.33-1.62-6.36-2.38c-2.03-0.77-3.92-1.49-5.54-2.11c-1.62-0.62-2.96-1.14-3.92-1.51
						c-0.48-0.18-0.84-0.32-1.1-0.43c-0.13-0.04-0.23-0.08-0.29-0.1c-0.02,0-0.03-0.01-0.05-0.01c-0.01,0,0.01,0.01,0.02,0.01
						C139.97,22.8,139.98,22.8,139.98,22.8z"/>
					<path class="st20" d="M139.98,22.8c0,0,0.54,0.17,1.51,0.48c0.95,0.32,2.33,0.74,3.96,1.28c1.63,0.54,3.55,1.17,5.58,1.86
						c2.04,0.69,4.21,1.44,6.38,2.18c2.16,0.76,4.33,1.53,6.36,2.25c2.03,0.71,3.92,1.42,5.53,2c1.62,0.58,2.95,1.1,3.9,1.45
						c0.94,0.36,1.48,0.57,1.48,0.57s-0.54-0.17-1.51-0.48c-0.96-0.31-2.33-0.74-3.96-1.28c-1.63-0.55-3.55-1.17-5.58-1.86
						c-2.04-0.69-4.2-1.44-6.38-2.18c-2.16-0.76-4.33-1.53-6.36-2.25c-2.02-0.71-3.92-1.42-5.53-2s-2.95-1.1-3.9-1.45
						C140.52,23.01,139.98,22.8,139.98,22.8z"/>
				</g>
				<g id="Zwart_scheiding_5_">
					<path class="st44" d="M86.4,39.33c0,0-0.01,0-0.03,0c-0.01,0-0.07,0.01-0.03,0.04c0.05,0.05,0.14,0.1,0.26,0.16
						c0.24,0.12,0.6,0.28,1.07,0.47c0.93,0.39,2.29,0.89,3.92,1.5c3.26,1.2,7.6,2.79,11.94,4.39c2.17,0.8,4.34,1.62,6.37,2.37
						c2.03,0.76,3.92,1.48,5.55,2.08c0.81,0.31,1.56,0.58,2.21,0.84c0.65,0.26,1.24,0.46,1.71,0.63c0.48,0.18,0.85,0.32,1.1,0.41
						c0.26,0.09,0.4,0.13,0.4,0.13s-0.14-0.04-0.41-0.1c-0.26-0.08-0.64-0.2-1.12-0.35c-0.97-0.3-2.35-0.74-3.98-1.31
						c-1.65-0.56-3.57-1.2-5.6-1.95c-2.04-0.73-4.22-1.53-6.39-2.31c-2.17-0.81-4.33-1.64-6.36-2.4c-2.03-0.77-3.91-1.54-5.51-2.19
						s-2.93-1.24-3.86-1.67c-0.46-0.21-0.81-0.4-1.05-0.54c-0.12-0.07-0.21-0.12-0.26-0.18c-0.04-0.04,0.03-0.05,0.04-0.04
						C86.39,39.33,86.4,39.33,86.4,39.33z"/>
					<path class="st20" d="M86.4,39.33c0,0,0.54,0.19,1.49,0.52c0.94,0.34,2.3,0.79,3.92,1.39c1.62,0.59,3.51,1.26,5.52,2
						c2.01,0.75,4.16,1.55,6.31,2.35c2.14,0.82,4.28,1.64,6.29,2.41c2.01,0.76,3.87,1.52,5.47,2.14c1.6,0.62,2.92,1.18,3.85,1.56
						c0.93,0.39,1.46,0.6,1.46,0.6s-0.55-0.19-1.5-0.52c-0.94-0.34-2.3-0.8-3.92-1.39c-1.62-0.58-3.51-1.26-5.52-2
						c-2.01-0.75-4.16-1.55-6.31-2.35c-2.14-0.82-4.28-1.65-6.29-2.41c-2.01-0.76-3.87-1.52-5.47-2.14
						c-1.6-0.62-2.92-1.18-3.86-1.55C86.93,39.54,86.4,39.33,86.4,39.33z"/>
				</g>
				<g id="Zwart_scheiding_4_">
					<path class="st44" d="M31.29,55.98c0,0-0.01,0-0.03,0c-0.01,0-0.07,0-0.03,0.04c0.05,0.05,0.14,0.1,0.26,0.16
						c0.24,0.12,0.6,0.28,1.07,0.47c0.93,0.39,2.29,0.89,3.92,1.5c3.26,1.2,7.6,2.79,11.94,4.39c2.17,0.8,4.34,1.62,6.37,2.37
						c2.03,0.76,3.93,1.48,5.55,2.08c0.81,0.31,1.56,0.6,2.21,0.84c0.65,0.26,1.24,0.46,1.71,0.63c0.48,0.18,0.85,0.32,1.1,0.41
						c0.26,0.08,0.4,0.13,0.4,0.13s-0.14-0.04-0.41-0.1c-0.26-0.08-0.64-0.2-1.12-0.35c-0.97-0.3-2.35-0.74-4-1.31
						c-1.65-0.55-3.57-1.2-5.6-1.95c-2.04-0.73-4.22-1.53-6.39-2.31c-2.17-0.82-4.33-1.64-6.36-2.4c-2.03-0.77-3.91-1.54-5.51-2.19
						c-1.6-0.65-2.93-1.25-3.86-1.67c-0.46-0.22-0.81-0.4-1.05-0.54c-0.12-0.07-0.21-0.13-0.26-0.18c-0.04-0.04,0.03-0.05,0.04-0.05
						C31.28,55.98,31.29,55.98,31.29,55.98z"/>
					<path class="st20" d="M31.29,55.98c0,0,0.55,0.19,1.49,0.52c0.94,0.34,2.3,0.8,3.92,1.39c1.62,0.59,3.51,1.26,5.52,2
						c2.01,0.75,4.16,1.55,6.31,2.35c2.14,0.82,4.28,1.65,6.29,2.41c2.01,0.76,3.87,1.52,5.47,2.14c1.61,0.62,2.92,1.18,3.86,1.56
						c0.93,0.39,1.46,0.59,1.46,0.59s-0.54-0.19-1.49-0.52c-0.94-0.34-2.3-0.79-3.93-1.39c-1.62-0.58-3.51-1.26-5.52-2.01
						c-2.01-0.74-4.16-1.55-6.31-2.35c-2.14-0.82-4.28-1.64-6.29-2.41c-2.01-0.76-3.87-1.52-5.47-2.14
						c-1.61-0.62-2.92-1.18-3.86-1.55C31.81,56.19,31.29,55.98,31.29,55.98z"/>
				</g>
				
					<rect x="105.27" y="-43.58" transform="matrix(-0.302 -0.9533 0.9533 -0.302 83.1993 174.5942)" class="st4" width="0.49" height="200.84"/>
			</g>
			<g>
				
					<linearGradient id="SVGID_15_" gradientUnits="userSpaceOnUse" x1="213.0254" y1="-13.0396" x2="310.9785" y2="22.5213" gradientTransform="matrix(1 0 0 -1 -178 234)">
					<stop  offset="0.0204" style="stop-color:#FFFFFF"/>
					<stop  offset="0.0786" style="stop-color:#231F20"/>
					<stop  offset="0.0854" style="stop-color:#302D2D"/>
					<stop  offset="0.1017" style="stop-color:#4A4747"/>
					<stop  offset="0.118" style="stop-color:#605E5D"/>
					<stop  offset="0.134" style="stop-color:#737170"/>
					<stop  offset="0.1497" style="stop-color:#807F7E"/>
					<stop  offset="0.1648" style="stop-color:#878786"/>
					<stop  offset="0.1788" style="stop-color:#8A8A89"/>
					<stop  offset="0.3773" style="stop-color:#868686"/>
					<stop  offset="0.5982" style="stop-color:#7C7B7B"/>
					<stop  offset="0.829" style="stop-color:#686969"/>
					<stop  offset="0.9108" style="stop-color:#616262"/>
				</linearGradient>
				<path class="st26" d="M31.97,229.27c3.72,17.3,16.97,14.87,16.97,14.87s50.12-9.66,98.1-18.88l-3.15-17.06L31.97,229.27z"/>
				
					<linearGradient id="SVGID_16_" gradientUnits="userSpaceOnUse" x1="424.0156" y1="18.582" x2="352.9746" y2="31.3497" gradientTransform="matrix(1 0 0 -1 -178 234)">
					<stop  offset="0.0204" style="stop-color:#FFFFFF"/>
					<stop  offset="0.0786" style="stop-color:#231F20"/>
					<stop  offset="0.0854" style="stop-color:#302D2D"/>
					<stop  offset="0.1017" style="stop-color:#4A4747"/>
					<stop  offset="0.118" style="stop-color:#605E5D"/>
					<stop  offset="0.134" style="stop-color:#737170"/>
					<stop  offset="0.1497" style="stop-color:#807F7E"/>
					<stop  offset="0.1648" style="stop-color:#878786"/>
					<stop  offset="0.1788" style="stop-color:#8A8A89"/>
					<stop  offset="0.3773" style="stop-color:#868686"/>
					<stop  offset="0.5982" style="stop-color:#7C7B7B"/>
					<stop  offset="0.829" style="stop-color:#686969"/>
					<stop  offset="0.9108" style="stop-color:#616262"/>
				</linearGradient>
				<path class="st27" d="M249.21,188.37l-106.12,19.8l3.95,17.08c41.33-7.94,85.48-15.64,90.22-16.67
					C253.41,205.01,249.21,188.37,249.21,188.37z"/>
			</g>
			<path class="st7" d="M31.97,229.27c0,0,0.06,0.23,0.17,0.67c0.06,0.22,0.12,0.5,0.21,0.83c0.1,0.33,0.21,0.7,0.34,1.13
				c0.54,1.68,1.42,4.21,3.46,6.84c0.52,0.64,1.1,1.3,1.79,1.9c0.67,0.61,1.46,1.19,2.32,1.68c1.72,0.99,3.84,1.68,6.14,1.81
				c0.58,0.04,1.16,0.04,1.75-0.01c0.59-0.03,1.17-0.17,1.78-0.29c1.21-0.24,2.45-0.49,3.73-0.73c2.55-0.5,5.22-1.01,8.03-1.56
				c22.38-4.34,52.22-10.13,82.06-15.91c7.46-1.43,14.95-2.76,22.3-4.13c7.35-1.36,14.6-2.7,21.6-3.98
				c14.02-2.57,27.09-4.96,38.3-7.01c2.81-0.52,5.49-1,8.05-1.46c0.63-0.11,1.27-0.23,1.88-0.34c0.32-0.06,0.62-0.11,0.93-0.17
				l0.46-0.08l0.45-0.11c0.3-0.08,0.59-0.15,0.89-0.23c0.29-0.08,0.56-0.18,0.85-0.27c0.57-0.17,1.11-0.41,1.64-0.61
				c1.04-0.48,2.03-1.01,2.9-1.67c0.23-0.15,0.44-0.32,0.63-0.49c0.2-0.18,0.41-0.34,0.6-0.52c0.37-0.37,0.73-0.71,1.04-1.11
				c0.34-0.37,0.6-0.77,0.89-1.16c0.25-0.41,0.52-0.79,0.71-1.21c0.44-0.8,0.74-1.63,1.01-2.41c0.5-1.59,0.71-3.06,0.79-4.35
				c0.09-1.29,0.04-2.39-0.03-3.27c-0.07-0.89-0.18-1.57-0.26-2.01c-0.08-0.46-0.14-0.68-0.14-0.68s0.06,0.23,0.15,0.68
				c0.09,0.46,0.2,1.13,0.28,2.01c0.08,0.88,0.13,1.98,0.05,3.28c-0.07,1.29-0.28,2.78-0.76,4.37c-0.26,0.79-0.55,1.62-1,2.44
				c-0.2,0.42-0.47,0.8-0.71,1.22c-0.29,0.39-0.55,0.8-0.89,1.18c-0.31,0.4-0.68,0.75-1.05,1.13c-0.19,0.18-0.4,0.35-0.59,0.53
				c-0.2,0.18-0.41,0.35-0.63,0.51c-0.86,0.67-1.86,1.21-2.9,1.71c-0.54,0.22-1.08,0.47-1.66,0.64c-0.29,0.09-0.56,0.2-0.86,0.28
				c-0.3,0.08-0.59,0.16-0.88,0.23l-0.45,0.12l-0.46,0.09c-0.31,0.06-0.61,0.12-0.93,0.18c-0.62,0.12-1.25,0.23-1.89,0.36
				c-2.56,0.48-5.23,0.97-8.04,1.49c-11.21,2.08-24.28,4.51-38.29,7.12c-7,1.31-14.23,2.67-21.59,4.04
				c-7.35,1.39-14.83,2.75-22.28,4.19c-29.85,5.71-59.71,11.41-82.1,15.69c-2.79,0.54-5.48,1.04-8.04,1.53
				c-1.28,0.25-2.52,0.48-3.73,0.7c-0.59,0.11-1.2,0.25-1.8,0.27c-0.6,0.04-1.19,0.03-1.77-0.01c-2.33-0.16-4.45-0.86-6.19-1.88
				c-0.87-0.51-1.65-1.09-2.33-1.71c-0.69-0.61-1.27-1.28-1.78-1.92c-2.03-2.66-2.88-5.19-3.42-6.88c-0.12-0.43-0.23-0.8-0.33-1.13
				c-0.08-0.33-0.15-0.61-0.2-0.83C32.02,229.5,31.97,229.27,31.97,229.27z"/>
			
				<radialGradient id="SVGID_17_" cx="234.5327" cy="197.9468" r="91.2966" gradientTransform="matrix(2.3992 0 0 -2.3992 -519.082 574.5488)" gradientUnits="userSpaceOnUse">
				<stop  offset="0" style="stop-color:#FFFFFF"/>
				<stop  offset="1" style="stop-color:#C1BEBE"/>
			</radialGradient>
			<path class="st28" d="M216.45,72.85l-5.8-20.74l-201,35.21l21.83,139.85C33.43,240.75,47,238.32,47,238.32
				s184.51-34.91,194.69-37.34c10.19-2.43,7.28-13.58,7.28-13.58l-38.3-135.29"/>
			<path class="st18" d="M31.48,227.17c0,0,0.04,0.23,0.13,0.66c0.07,0.45,0.23,1.09,0.48,1.92c0.26,0.82,0.64,1.82,1.28,2.9
				c0.64,1.07,1.56,2.22,2.85,3.17c2.56,1.93,6.65,2.93,11.03,2.19c2.21-0.45,4.57-0.91,7.06-1.42c2.49-0.48,5.1-0.97,7.84-1.49
				c21.85-4.15,50.97-9.68,80.1-15.22c14.56-2.78,29.12-5.57,42.77-8.19c6.83-1.31,13.42-2.57,19.67-3.77
				c6.24-1.23,12.15-2.39,17.6-3.47c2.73-0.54,5.33-1.05,7.82-1.54c2.49-0.46,4.86-0.9,7.07-1.32c1.11-0.21,2.19-0.41,3.22-0.6
				c0.51-0.1,1.04-0.17,1.52-0.31c0.25-0.07,0.5-0.12,0.72-0.2c0.23-0.08,0.46-0.16,0.69-0.24c1.8-0.68,3.25-1.82,4.16-3.13
				c0.93-1.31,1.36-2.73,1.6-3.95c0.22-1.24,0.24-2.31,0.21-3.18c-0.04-0.86-0.13-1.53-0.21-1.97c-0.08-0.45-0.13-0.66-0.13-0.66
				s0.06,0.22,0.15,0.66c0.08,0.44,0.19,1.1,0.25,1.97c0.05,0.87,0.06,1.95-0.14,3.2c-0.21,1.24-0.62,2.69-1.55,4.04
				c-0.91,1.37-2.38,2.58-4.22,3.32c-0.24,0.08-0.47,0.17-0.7,0.26c-0.25,0.08-0.49,0.14-0.72,0.22c-0.5,0.15-1,0.22-1.53,0.34
				c-1.03,0.22-2.1,0.44-3.21,0.67c-2.21,0.46-4.56,0.95-7.05,1.47c-2.49,0.5-5.1,1.01-7.83,1.56c-5.46,1.07-11.37,2.23-17.62,3.47
				c-6.26,1.2-12.86,2.46-19.68,3.77c-13.65,2.61-28.21,5.4-42.77,8.19c-29.12,5.53-58.25,11.07-80.1,15.21
				c-2.74,0.52-5.35,1.01-7.84,1.48c-2.5,0.45-4.86,0.87-7.09,1.26c-4.54,0.67-8.67-0.46-11.26-2.48c-1.3-1-2.2-2.19-2.83-3.28
				c-0.61-1.1-0.99-2.12-1.23-2.95c-0.23-0.84-0.37-1.49-0.44-1.93C31.52,227.39,31.48,227.17,31.48,227.17z"/>
			<g id="Clap2_2_">
				<g>
					
						<linearGradient id="SVGID_18_" gradientUnits="userSpaceOnUse" x1="188.1138" y1="142.4175" x2="369.2" y2="150.1749" gradientTransform="matrix(1 0 0 -1 -178 234)">
						<stop  offset="0" style="stop-color:#979696"/>
						<stop  offset="0.9941" style="stop-color:#4B4B4B"/>
					</linearGradient>
					<polygon class="st29" points="42.95,106.01 72.49,100.61 96.73,72.03 67.08,77.22 					"/>
					
						<linearGradient id="SVGID_19_" gradientUnits="userSpaceOnUse" x1="188.3506" y1="136.5693" x2="369.4755" y2="144.3283" gradientTransform="matrix(1 0 0 -1 -178 234)">
						<stop  offset="0" style="stop-color:#979696"/>
						<stop  offset="0.9941" style="stop-color:#4B4B4B"/>
					</linearGradient>
					<polygon class="st30" points="13.46,111.27 38.28,82.26 9.66,87.27 					"/>
					
						<linearGradient id="SVGID_20_" gradientUnits="userSpaceOnUse" x1="187.7754" y1="158.2051" x2="368.4677" y2="165.9456" gradientTransform="matrix(1 0 0 -1 -178 234)">
						<stop  offset="0" style="stop-color:#979696"/>
						<stop  offset="0.9941" style="stop-color:#4B4B4B"/>
					</linearGradient>
					<polygon class="st31" points="210.66,52.11 182.89,56.97 160.77,84.4 190.24,79.03 210.57,52.6 					"/>
					
						<linearGradient id="SVGID_21_" gradientUnits="userSpaceOnUse" x1="187.7954" y1="150.5029" x2="368.8594" y2="158.2593" gradientTransform="matrix(1 0 0 -1 -178 234)">
						<stop  offset="0" style="stop-color:#979696"/>
						<stop  offset="0.9941" style="stop-color:#4B4B4B"/>
					</linearGradient>
					<polygon class="st32" points="102.44,94.9 132.01,89.53 154.53,61.92 125.92,66.93 					"/>
				</g>
				
					<rect x="115.1" y="-11.26" transform="matrix(-0.1768 -0.9843 0.9843 -0.1768 44.8997 222.1174)" class="st43" width="0.49" height="207.08"/>
				
					<rect x="115.1" y="-10.29" transform="matrix(-0.1769 -0.9842 0.9842 -0.1769 43.9655 223.2699)" class="st18" width="0.49" height="207.08"/>
				
					<rect x="115.09" y="-10.78" transform="matrix(-0.1789 -0.9839 0.9839 -0.1789 44.7018 222.8305)" class="st2" width="0.49" height="207.08"/>
				<g>
					<path class="st6" d="M96.72,72.14c0,0-0.35,0.48-0.96,1.29c-0.32,0.41-0.69,0.9-1.12,1.47c-0.22,0.29-0.45,0.59-0.69,0.9
						c-0.25,0.32-0.55,0.6-0.83,0.94c-1.16,1.31-2.53,2.83-3.98,4.47c-0.73,0.82-1.48,1.67-2.25,2.52c-0.39,0.43-0.77,0.86-1.16,1.3
						l-0.58,0.65l-0.15,0.17l-0.06,0.07L84.86,86l-0.28,0.34c-2.94,3.63-5.89,7.26-8.09,9.98c-0.29,0.34-0.52,0.68-0.79,0.97
						c-0.28,0.29-0.54,0.56-0.78,0.83c-0.49,0.52-0.91,0.97-1.27,1.35c-0.71,0.74-1.12,1.16-1.12,1.16s0.33-0.49,0.9-1.34
						c0.3-0.42,0.64-0.93,1.05-1.52c0.21-0.3,0.42-0.6,0.64-0.93c0.23-0.34,0.52-0.63,0.78-0.98c2.21-2.73,5.14-6.35,8.09-9.98
						l0.28-0.34l0.07-0.09l0.08-0.1l0.15-0.17l0.58-0.65c0.39-0.44,0.77-0.86,1.16-1.3c0.76-0.86,1.52-1.7,2.25-2.52
						c1.46-1.64,2.82-3.16,3.98-4.47c0.3-0.32,0.56-0.65,0.83-0.94c0.29-0.28,0.57-0.54,0.81-0.79c0.52-0.5,0.96-0.93,1.33-1.29
						C96.29,72.54,96.72,72.14,96.72,72.14z"/>
					<path class="st18" d="M96.85,72.02c0,0-0.34,0.49-0.93,1.32c-0.3,0.42-0.66,0.91-1.09,1.5c-0.21,0.29-0.44,0.59-0.66,0.92
						c-0.24,0.32-0.54,0.61-0.81,0.96c-2.27,2.67-5.29,6.23-8.32,9.79c-3.02,3.56-6.05,7.13-8.32,9.79
						c-0.29,0.33-0.54,0.67-0.82,0.95c-0.28,0.29-0.55,0.56-0.79,0.81c-0.51,0.51-0.94,0.95-1.3,1.32
						c-0.72,0.72-1.14,1.14-1.14,1.14s0.34-0.48,0.93-1.31c0.3-0.42,0.66-0.91,1.09-1.5c0.21-0.29,0.44-0.59,0.67-0.92
						c0.23-0.33,0.54-0.62,0.8-0.96c2.27-2.67,5.29-6.23,8.32-9.79c3.02-3.56,6.05-7.13,8.32-9.79c0.29-0.33,0.54-0.67,0.81-0.96
						c0.28-0.29,0.55-0.56,0.8-0.81c0.5-0.51,0.94-0.95,1.3-1.32C96.44,72.43,96.85,72.02,96.85,72.02z"/>
				</g>
				<g>
					<path class="st6" d="M154.55,61.83c0,0-0.33,0.47-0.9,1.27c-0.29,0.4-0.64,0.88-1.05,1.44c-0.41,0.56-0.84,1.2-1.43,1.81
						c-2.2,2.58-5.12,6.01-8.06,9.43c-2.75,3.57-5.5,7.14-7.55,9.81c-0.27,0.33-0.5,0.66-0.74,0.96c-0.26,0.29-0.51,0.56-0.73,0.81
						c-0.47,0.52-0.86,0.96-1.2,1.32c-0.66,0.73-1.06,1.15-1.06,1.15s0.3-0.49,0.83-1.32c0.27-0.42,0.59-0.92,0.97-1.5
						c0.19-0.29,0.39-0.59,0.6-0.92c0.23-0.32,0.5-0.62,0.74-0.96c2.07-2.69,4.83-6.26,7.58-9.84c2.93-3.43,5.87-6.86,8.06-9.43
						c0.52-0.67,1.09-1.2,1.57-1.7c0.49-0.49,0.91-0.91,1.26-1.26C154.14,62.23,154.55,61.83,154.55,61.83z"/>
					<path class="st18" d="M154.68,61.72c0,0-0.33,0.46-0.9,1.26c-0.29,0.4-0.64,0.88-1.05,1.44c-0.2,0.28-0.42,0.57-0.64,0.88
						c-0.23,0.32-0.51,0.61-0.76,0.94c-2.13,2.63-4.98,6.13-7.81,9.63c-2.84,3.5-5.68,7-7.81,9.62c-0.27,0.33-0.51,0.65-0.76,0.94
						c-0.26,0.29-0.51,0.56-0.73,0.81c-0.47,0.52-0.86,0.95-1.19,1.32c-0.66,0.73-1.05,1.15-1.05,1.15s0.33-0.46,0.9-1.26
						c0.29-0.4,0.64-0.88,1.05-1.44c0.21-0.28,0.42-0.58,0.64-0.88c0.23-0.32,0.5-0.61,0.76-0.94c2.13-2.63,4.98-6.12,7.82-9.62
						c2.84-3.5,5.68-7,7.81-9.62c0.27-0.33,0.51-0.65,0.76-0.94c0.26-0.29,0.51-0.55,0.73-0.81c0.46-0.52,0.86-0.96,1.19-1.32
						C154.3,62.13,154.68,61.72,154.68,61.72z"/>
				</g>
				<g>
					<path class="st6" d="M210.57,52.6c0,0-0.29,0.45-0.82,1.22c-0.27,0.38-0.58,0.84-0.96,1.38c-0.38,0.53-0.75,1.16-1.29,1.74
						c-2.01,2.47-4.7,5.75-7.37,9.04l-0.25,0.31c-0.04,0.05-0.1,0.12-0.11,0.14l-0.11,0.16l-0.47,0.64
						c-0.31,0.43-0.61,0.85-0.92,1.28c-0.6,0.84-1.21,1.68-1.79,2.49c-1.16,1.62-2.24,3.12-3.17,4.41
						c-0.23,0.32-0.46,0.63-0.66,0.93c-0.23,0.29-0.46,0.54-0.66,0.78c-0.43,0.5-0.79,0.92-1.1,1.28c-0.61,0.7-0.96,1.1-0.96,1.1
						s0.26-0.47,0.73-1.27c0.24-0.41,0.52-0.89,0.86-1.45c0.17-0.28,0.34-0.58,0.54-0.88c0.22-0.29,0.45-0.59,0.67-0.92
						c0.93-1.29,2.01-2.79,3.17-4.41c0.58-0.8,1.18-1.65,1.79-2.49c0.31-0.43,0.61-0.85,0.92-1.28l0.47-0.64l0.11-0.16
						c0.07-0.09,0.09-0.12,0.14-0.18l0.25-0.31c2.69-3.29,5.36-6.57,7.37-9.04c0.47-0.64,1.01-1.14,1.45-1.62
						c0.45-0.47,0.84-0.88,1.16-1.22C210.2,52.97,210.57,52.6,210.57,52.6z"/>
					<path class="st18" d="M210.57,52.6c0,0-0.29,0.44-0.81,1.21c-0.26,0.39-0.57,0.84-0.94,1.38c-0.19,0.27-0.38,0.54-0.57,0.84
						c-0.21,0.3-0.46,0.58-0.69,0.9c-1.92,2.51-4.49,5.86-7.06,9.21c-2.57,3.35-5.13,6.7-7.06,9.21c-0.25,0.31-0.46,0.62-0.7,0.9
						c-0.24,0.27-0.45,0.54-0.66,0.77c-0.42,0.49-0.78,0.91-1.08,1.27c-0.6,0.7-0.95,1.1-0.95,1.1s0.3-0.44,0.81-1.21
						c0.26-0.38,0.57-0.84,0.94-1.38c0.19-0.27,0.38-0.55,0.57-0.85c0.2-0.3,0.46-0.58,0.68-0.9c1.92-2.52,4.49-5.87,7.06-9.21
						c2.57-3.35,5.12-6.7,7.06-9.21c0.25-0.31,0.46-0.62,0.69-0.9c0.23-0.28,0.46-0.54,0.66-0.78c0.42-0.49,0.78-0.91,1.09-1.27
						C210.23,52.99,210.57,52.6,210.57,52.6z"/>
				</g>
				<g>
					<path class="st2" d="M38.17,82.08c0,0-0.35,0.48-0.96,1.29c-0.31,0.41-0.69,0.9-1.12,1.47c-0.22,0.28-0.45,0.58-0.69,0.9
						c-0.25,0.32-0.55,0.6-0.83,0.94c-1.17,1.31-2.53,2.83-3.98,4.47c-0.73,0.82-1.49,1.67-2.25,2.53c-0.39,0.43-0.76,0.86-1.16,1.3
						l-0.58,0.65l-0.15,0.16l-0.06,0.07l-0.06,0.09l-0.28,0.34c-2.94,3.63-5.89,7.26-8.1,9.98c-0.29,0.34-0.52,0.68-0.8,0.97
						c-0.28,0.29-0.54,0.56-0.78,0.83c-0.49,0.52-0.91,0.97-1.27,1.35c-0.71,0.74-1.12,1.16-1.12,1.16s0.33-0.49,0.9-1.33
						c0.29-0.42,0.64-0.93,1.05-1.52c0.21-0.3,0.42-0.6,0.64-0.93c0.23-0.33,0.52-0.63,0.78-0.98c2.21-2.73,5.15-6.35,8.1-9.98
						l0.28-0.34l0.07-0.09l0.08-0.1l0.15-0.17l0.59-0.65c0.39-0.44,0.77-0.87,1.16-1.3c0.76-0.86,1.52-1.71,2.25-2.52
						c1.46-1.64,2.81-3.16,3.98-4.47c0.3-0.32,0.56-0.65,0.83-0.94c0.29-0.28,0.56-0.55,0.82-0.79c0.52-0.5,0.96-0.93,1.33-1.29
						C37.74,82.48,38.17,82.08,38.17,82.08z"/>
					<path class="st18" d="M38.28,82.26c0,0-0.34,0.48-0.93,1.3c-0.3,0.41-0.66,0.9-1.09,1.48c-0.21,0.29-0.44,0.59-0.66,0.91
						c-0.24,0.32-0.54,0.61-0.81,0.95c-2.26,2.65-5.28,6.18-8.31,9.69c-3.02,3.53-6.04,7.05-8.31,9.69
						c-0.29,0.33-0.54,0.66-0.81,0.94c-0.28,0.28-0.55,0.55-0.79,0.8c-0.5,0.51-0.93,0.94-1.3,1.3c-0.72,0.71-1.14,1.13-1.14,1.13
						s0.34-0.48,0.93-1.3c0.3-0.41,0.66-0.9,1.09-1.48c0.21-0.29,0.44-0.59,0.66-0.91c0.23-0.33,0.54-0.61,0.81-0.95
						c2.26-2.65,5.28-6.17,8.31-9.69c3.02-3.52,6.04-7.05,8.31-9.69c0.29-0.32,0.54-0.66,0.81-0.95c0.28-0.28,0.54-0.54,0.8-0.8
						c0.5-0.51,0.93-0.94,1.3-1.3C37.86,82.66,38.28,82.26,38.28,82.26z"/>
				</g>
				
					<rect x="109.92" y="-32.12" transform="matrix(-0.1721 -0.9851 0.9851 -0.1721 60.3541 190.3343)" class="st5" width="0.49" height="203.85"/>
			</g>
			
				<linearGradient id="SVGID_22_" gradientUnits="userSpaceOnUse" x1="194.7432" y1="48.7021" x2="361.5532" y2="177.0426" gradientTransform="matrix(1 0 0 -1 -178 234)">
				<stop  offset="0" style="stop-color:#2E5CA5"/>
				<stop  offset="0.0366" style="stop-color:#3A74AA"/>
				<stop  offset="0.0852" style="stop-color:#4A92AF"/>
				<stop  offset="0.1271" style="stop-color:#55ABB1"/>
				<stop  offset="0.1602" style="stop-color:#5FBBB2"/>
				<stop  offset="0.1803" style="stop-color:#63C0B1"/>
				<stop  offset="0.2029" style="stop-color:#68C1AD"/>
				<stop  offset="0.238" style="stop-color:#74C39F"/>
				<stop  offset="0.2812" style="stop-color:#87C786"/>
				<stop  offset="0.3304" style="stop-color:#A0CD5F"/>
				<stop  offset="0.3402" style="stop-color:#A4CF57"/>
				<stop  offset="0.3939" style="stop-color:#C2D251"/>
				<stop  offset="0.4605" style="stop-color:#DED94A"/>
				<stop  offset="0.4975" style="stop-color:#E9DB48"/>
				<stop  offset="0.522" style="stop-color:#E1C942"/>
				<stop  offset="0.572" style="stop-color:#D1A135"/>
				<stop  offset="0.6369" style="stop-color:#BC6E2A"/>
				<stop  offset="0.7781" style="stop-color:#9C2122"/>
				<stop  offset="0.8017" style="stop-color:#9D2222"/>
				<stop  offset="0.8303" style="stop-color:#A12029"/>
				<stop  offset="0.8616" style="stop-color:#A72032"/>
				<stop  offset="0.8947" style="stop-color:#AE2341"/>
				<stop  offset="0.9293" style="stop-color:#B92454"/>
				<stop  offset="0.9645" style="stop-color:#C7276B"/>
				<stop  offset="0.999" style="stop-color:#D82686"/>
			</linearGradient>
			<path class="st33" d="M27.85,125.33l-0.33-2.02c-0.16-1.46,0.33-2.26,2.1-2.59L206.29,89.2c2.43-0.25,1.94,0.49,1.94,1.46
				l-0.49,2.91c0,0-1.1-1.09-2.75-0.81c-21.63,3.67-174.22,30.78-175.46,31.11C28.21,124.24,27.85,125.33,27.85,125.33z"/>
			
				<linearGradient id="SVGID_23_" gradientUnits="userSpaceOnUse" x1="295.7324" y1="128.3042" x2="296.1648" y2="125.8524" gradientTransform="matrix(1 0 0 -1 -178 234)">
				<stop  offset="0" style="stop-color:#A6A8AC"/>
				<stop  offset="0.5897" style="stop-color:#929497;stop-opacity:0.25"/>
			</linearGradient>
			<path class="st34" d="M27.85,125.33l-0.33-2.02c-0.16-1.46,0.33-2.26,2.1-2.59L206.29,89.2c2.43-0.25,1.94,0.49,1.94,1.46
				l-0.49,2.91c0,0-0.54-0.76-2.18-0.49c-21.63,3.67-174.72,30.7-175.96,31.03C28.27,124.48,27.85,125.33,27.85,125.33z"/>
			
				<linearGradient id="SVGID_24_" gradientUnits="userSpaceOnUse" x1="254.125" y1="-28.0093" x2="415.8322" y2="109.2114" gradientTransform="matrix(1 0 0 -1 -178 234)">
				<stop  offset="0" style="stop-color:#2E5CA5"/>
				<stop  offset="0.0366" style="stop-color:#3A74AA"/>
				<stop  offset="0.0852" style="stop-color:#4A92AF"/>
				<stop  offset="0.1271" style="stop-color:#55ABB1"/>
				<stop  offset="0.1602" style="stop-color:#5FBBB2"/>
				<stop  offset="0.1803" style="stop-color:#63C0B1"/>
				<stop  offset="0.2029" style="stop-color:#68C1AD"/>
				<stop  offset="0.238" style="stop-color:#74C39F"/>
				<stop  offset="0.2812" style="stop-color:#87C786"/>
				<stop  offset="0.3304" style="stop-color:#A0CD5F"/>
				<stop  offset="0.3402" style="stop-color:#A4CF57"/>
				<stop  offset="0.3939" style="stop-color:#C2D251"/>
				<stop  offset="0.4605" style="stop-color:#DED94A"/>
				<stop  offset="0.4975" style="stop-color:#E9DB48"/>
				<stop  offset="0.522" style="stop-color:#E1C942"/>
				<stop  offset="0.572" style="stop-color:#D1A135"/>
				<stop  offset="0.6369" style="stop-color:#BC6E2A"/>
				<stop  offset="0.7781" style="stop-color:#9C2122"/>
				<stop  offset="0.8017" style="stop-color:#9D2222"/>
				<stop  offset="0.8303" style="stop-color:#A12029"/>
				<stop  offset="0.8616" style="stop-color:#A72032"/>
				<stop  offset="0.8947" style="stop-color:#AE2341"/>
				<stop  offset="0.9293" style="stop-color:#B92454"/>
				<stop  offset="0.9645" style="stop-color:#C7276B"/>
				<stop  offset="0.999" style="stop-color:#D82686"/>
			</linearGradient>
			<path class="st35" d="M234.58,189.42c1.61-0.48,2.26-1.29,1.77-3.07l-26.54-94.72c-0.49-1.62-1.09-2.67-3.52-2.43l1.21,5.94
				L234.58,189.42z"/>
			
				<linearGradient id="SVGID_25_" gradientUnits="userSpaceOnUse" x1="398.8857" y1="94.8174" x2="401.1485" y2="95.464" gradientTransform="matrix(1 0 0 -1 -178 234)">
				<stop  offset="0" style="stop-color:#F3F3F3;stop-opacity:0"/>
				<stop  offset="0.5197" style="stop-color:#F3F3F3;stop-opacity:0.5197"/>
				<stop  offset="1" style="stop-color:#F3F3F3"/>
			</linearGradient>
			<path class="st36" d="M234.58,189.42c1.61-0.48,2.26-1.29,1.77-3.07l-26.54-94.72c-0.49-1.62-1.09-2.67-3.52-2.43l1.21,5.94
				L234.58,189.42z"/>
			
				<linearGradient id="SVGID_26_" gradientUnits="userSpaceOnUse" x1="390.1797" y1="141.9604" x2="389.5949" y2="144.8839" gradientTransform="matrix(1 0 0 -1 -178 234)">
				<stop  offset="0" style="stop-color:#A6A8AC;stop-opacity:0"/>
				<stop  offset="1" style="stop-color:#A6A8AC"/>
			</linearGradient>
			<path class="st37" d="M234.58,189.42c1.61-0.48,2.26-1.29,1.77-3.07l-26.54-94.72c-0.49-1.62-1.09-2.67-3.52-2.43l1.21,5.94
				L234.58,189.42z"/>
			
				<linearGradient id="SVGID_27_" gradientUnits="userSpaceOnUse" x1="227.2617" y1="9.8228" x2="385.6667" y2="139.7794" gradientTransform="matrix(1 0 0 -1 -178 234)">
				<stop  offset="0.0311" style="stop-color:#3A67B0"/>
				<stop  offset="0.0533" style="stop-color:#3F75B1"/>
				<stop  offset="0.1043" style="stop-color:#4D94B5"/>
				<stop  offset="0.2002" style="stop-color:#3BBAAF"/>
				<stop  offset="0.2184" style="stop-color:#4DBBA3"/>
				<stop  offset="0.2551" style="stop-color:#6FC085"/>
				<stop  offset="0.3064" style="stop-color:#97C848"/>
				<stop  offset="0.3174" style="stop-color:#9FCB3B"/>
				<stop  offset="0.3645" style="stop-color:#B7CE43"/>
				<stop  offset="0.435" style="stop-color:#DED94A"/>
				<stop  offset="0.5536" style="stop-color:#EFAF3A"/>
				<stop  offset="0.6492" style="stop-color:#F6882E"/>
				<stop  offset="0.8184" style="stop-color:#D42328"/>
				<stop  offset="0.8321" style="stop-color:#D52329"/>
				<stop  offset="0.8487" style="stop-color:#D6222F"/>
				<stop  offset="0.8667" style="stop-color:#D92539"/>
				<stop  offset="0.8859" style="stop-color:#DB2749"/>
				<stop  offset="0.9059" style="stop-color:#E1295B"/>
				<stop  offset="0.9263" style="stop-color:#E52C71"/>
				<stop  offset="0.944" style="stop-color:#EC3186"/>
			</linearGradient>
			<path class="st38" d="M205,92.76L28.33,124.28c-0.24,0.04-0.45,0.1-0.63,0.16l15.03,98.76c0.49,1.77,1.46,2.59,3.23,2.26
				l188.64-36.05c0.12-0.03,0.21-0.07,0.32-0.11l-26.39-94.12C208.04,93.57,207.42,92.52,205,92.76z"/>
			
				<radialGradient id="SVGID_28_" cx="268.792" cy="171.5684" r="60.2741" gradientTransform="matrix(2.3992 0 0 -2.3992 -519.082 574.5488)" gradientUnits="userSpaceOnUse">
				<stop  offset="0.5254" style="stop-color:#261010;stop-opacity:0"/>
				<stop  offset="0.6343" style="stop-color:#230F0F;stop-opacity:0.3115"/>
				<stop  offset="0.7488" style="stop-color:#190B0B;stop-opacity:0.6388"/>
				<stop  offset="0.8654" style="stop-color:#040303;stop-opacity:0.9723"/>
				<stop  offset="0.8751" style="stop-color:#020202"/>
			</radialGradient>
			<path class="st39" d="M205.57,92.6L28.33,124.28c-0.24,0.04-0.45,0.1-0.63,0.16l15.03,98.76c0.49,1.77,1.46,2.59,3.23,2.26
				l188.64-36.05c0.12-0.03,0.21-0.07,0.32-0.11l-26.39-94.12C207.9,93.12,207.63,92.78,205.57,92.6z"/>
			
				<radialGradient id="SVGID_29_" cx="270.9395" cy="172.7183" r="40.8398" gradientTransform="matrix(2.3992 0 0 -2.3992 -519.082 574.5488)" gradientUnits="userSpaceOnUse">
				<stop  offset="0.1435" style="stop-color:#FFFFFF"/>
				<stop  offset="0.8016" style="stop-color:#FFFFFF;stop-opacity:0"/>
			</radialGradient>
			<path class="st40" d="M206.27,92.66L29.04,124.35c-0.24,0.04-0.45,0.1-0.63,0.16l15.03,98.77c0.49,1.77,1.46,2.59,3.23,2.26
				l188.64-36.05c0.12-0.03,0.21-0.07,0.32-0.11l-26.38-94.12C208.61,93.19,208.33,92.85,206.27,92.66z"/>
			
				<linearGradient id="SVGID_30_" gradientUnits="userSpaceOnUse" x1="370.374" y1="157.9111" x2="305.8801" y2="72.404" gradientTransform="matrix(1 0 0 -1 -178 234)">
				<stop  offset="0" style="stop-color:#BBBDBF;stop-opacity:0.25"/>
				<stop  offset="0.499" style="stop-color:#D2D3D3;stop-opacity:0.1002"/>
				<stop  offset="1" style="stop-color:#D2D3D3;stop-opacity:0.5"/>
			</linearGradient>
			<path class="st41" d="M28.41,128.08l-0.39-3.17c0.19-0.06,0.49-0.84,1.75-1.06l175.21-31.08c2.43-0.24,3.03,0.81,3.52,2.43
				l26.15,93.92l-2.21,0.46l-26-94.04L28.41,128.08z"/>
			<path class="st18" d="M45.23,225.78c-1.39,0-2.29-0.82-2.75-2.51l-15.21-99.92c-0.19-1.69,0.5-2.54,2.3-2.86l176.67-31.52
				c0.26-0.03,0.49-0.04,0.69-0.04c2.13,0,2.68,1.25,3.09,2.64l26.54,94.72c0.5,1.8-0.09,2.82-1.94,3.37L45.99,225.7
				C45.73,225.76,45.47,225.78,45.23,225.78z M206.95,89.41c-0.2,0-0.41,0.01-0.63,0.04L29.67,120.96c-1.77,0.33-2.04,1.09-1.9,2.32
				l15.19,99.88c0.48,1.73,1.37,2.35,2.95,2.06l188.63-36.05c1.57-0.48,2.01-1.23,1.59-2.77L209.57,91.7
				C209.13,90.18,208.59,89.41,206.95,89.41z"/>
			<path class="st2" d="M234.51,189.08c-0.25-0.91-25.46-90.95-26.23-93.84c-0.7-2.67-2.66-2.41-2.68-2.41
				c-1.73,0.31-173.77,30.8-175.36,31.11c-1.49,0.3-2.02,1.03-2.03,1.03l-0.4-0.28c0.02-0.04,0.64-0.89,2.33-1.23
				c1.61-0.32,173.65-30.81,175.38-31.11c0.03-0.01,2.41-0.33,3.22,2.77c0.75,2.87,25.97,92.92,26.23,93.83L234.51,189.08z"/>
			<path class="st0" d="M9.66,87.27c0,0,1.45,8.86,3.62,22.16c2.12,13.3,4.95,31.05,7.78,48.8c2.75,17.75,5.49,35.52,7.55,48.83
				c2.01,13.32,3.36,22.2,3.36,22.2s-1.45-8.87-3.62-22.16c-2.12-13.31-4.95-31.05-7.78-48.8c-2.75-17.76-5.5-35.52-7.55-48.83
				C11,96.15,9.66,87.27,9.66,87.27z"/>
		</g>
		<g>
			<g>
				<path class="st42" d="M204.87,210.3c0.05-0.39,0.36-0.74,0.75-0.81c0.4-0.08,0.64,0.17,0.58,0.55
					c-0.04,0.39-0.35,0.73-0.74,0.82C205.07,210.93,204.84,210.69,204.87,210.3z M206.04,210.08c0.04-0.32-0.13-0.51-0.44-0.45
					c-0.31,0.06-0.52,0.33-0.56,0.63c-0.03,0.31,0.13,0.51,0.43,0.45C205.79,210.64,206.01,210.38,206.04,210.08z"/>
				<path class="st42" d="M206.4,210.64l0.11-0.95l0.15-0.04l-0.02,0.16c0.09-0.12,0.21-0.21,0.35-0.24l-0.02,0.15
					c-0.02,0-0.04,0-0.06,0.01c-0.1,0.02-0.23,0.12-0.29,0.21l-0.08,0.67L206.4,210.64z"/>
				<path class="st42" d="M207.17,209.33c0.01-0.06,0.06-0.11,0.12-0.12c0.05-0.01,0.09,0.03,0.08,0.08
					c-0.01,0.06-0.05,0.11-0.12,0.12C207.21,209.43,207.17,209.38,207.17,209.33z M207.07,210.52l0.12-0.96l0.15-0.03l-0.11,0.95
					L207.07,210.52z"/>
				<path class="st42" d="M207.49,210.68l0.09-0.12c0.07,0.08,0.17,0.09,0.31,0.07c0.17-0.03,0.33-0.14,0.35-0.34l0.02-0.15
					c-0.08,0.11-0.21,0.21-0.35,0.23c-0.25,0.06-0.42-0.1-0.38-0.41c0.04-0.31,0.24-0.54,0.5-0.59c0.13-0.03,0.25,0.01,0.31,0.11
					l0.02-0.15l0.16-0.03l-0.11,0.94c-0.04,0.31-0.28,0.45-0.52,0.5C207.7,210.78,207.59,210.77,207.49,210.68z M208.25,210.02
					l0.05-0.42c-0.04-0.07-0.16-0.12-0.28-0.1c-0.2,0.04-0.33,0.21-0.36,0.43c-0.02,0.21,0.08,0.34,0.28,0.31
					C208.07,210.21,208.19,210.12,208.25,210.02z"/>
				<path class="st42" d="M208.8,209.02c0.01-0.06,0.06-0.11,0.11-0.12c0.06-0.01,0.1,0.02,0.09,0.08s-0.06,0.11-0.11,0.12
					C208.83,209.11,208.79,209.08,208.8,209.02z M208.68,210.21l0.12-0.96l0.15-0.03l-0.12,0.96L208.68,210.21z"/>
				<path class="st42" d="M209.8,209.99l0.08-0.62c0.02-0.17-0.06-0.21-0.2-0.18c-0.12,0.02-0.24,0.12-0.31,0.21l-0.08,0.7
					l-0.15,0.03l0.11-0.96l0.16-0.03l-0.02,0.14c0.08-0.09,0.22-0.21,0.37-0.23c0.21-0.04,0.3,0.04,0.28,0.25l-0.08,0.66
					L209.8,209.99z"/>
				<path class="st42" d="M210.86,209.79l0.02-0.11c-0.08,0.1-0.21,0.17-0.34,0.2c-0.17,0.03-0.33-0.04-0.3-0.25
					c0.02-0.22,0.22-0.35,0.38-0.38c0.14-0.03,0.25-0.01,0.32,0.07l0.02-0.18c0.02-0.12-0.08-0.18-0.22-0.15
					c-0.12,0.02-0.22,0.08-0.32,0.19l-0.06-0.09c0.12-0.13,0.25-0.21,0.41-0.23c0.21-0.04,0.37,0.02,0.34,0.25l-0.08,0.65
					L210.86,209.79z M210.89,209.58l0.02-0.18c-0.05-0.06-0.15-0.08-0.26-0.06c-0.14,0.02-0.25,0.13-0.27,0.26
					c-0.02,0.12,0.08,0.19,0.22,0.16C210.71,209.73,210.82,209.67,210.89,209.58z"/>
				<path class="st42" d="M211.32,209.7l0.16-1.33l0.15-0.03l-0.16,1.33L211.32,209.7z"/>
				<path class="st42" d="M212.91,209.4l0.01-0.11c-0.09,0.1-0.21,0.17-0.34,0.2c-0.17,0.03-0.33-0.04-0.3-0.26
					c0.02-0.22,0.21-0.35,0.38-0.38c0.13-0.02,0.24,0,0.31,0.07l0.02-0.17c0.02-0.13-0.08-0.18-0.22-0.15
					c-0.12,0.02-0.22,0.08-0.32,0.19l-0.06-0.09c0.12-0.13,0.25-0.21,0.41-0.23c0.21-0.04,0.37,0.01,0.34,0.25l-0.08,0.66
					L212.91,209.4z M212.93,209.19l0.02-0.19c-0.05-0.07-0.15-0.09-0.25-0.07c-0.14,0.03-0.26,0.13-0.27,0.26
					c-0.01,0.12,0.08,0.2,0.22,0.16C212.76,209.34,212.87,209.28,212.93,209.19z"/>
				<path class="st42" d="M213.37,209.3l0.12-0.96l0.15-0.03l-0.02,0.15c0.09-0.11,0.21-0.21,0.35-0.24l-0.02,0.16
					c-0.01,0-0.03,0-0.05,0.01c-0.1,0.02-0.24,0.12-0.29,0.21l-0.08,0.67L213.37,209.3z"/>
				<path class="st42" d="M214.09,208.96l0.07-0.62l-0.16,0.03l0.02-0.13l0.16-0.03l0.03-0.26l0.16-0.03l-0.03,0.27l0.2-0.04
					l-0.02,0.13l-0.2,0.04l-0.07,0.6c-0.01,0.07,0.02,0.12,0.08,0.11c0.04-0.01,0.08-0.04,0.11-0.06l0.03,0.1
					c-0.04,0.05-0.1,0.08-0.19,0.1C214.13,209.18,214.07,209.11,214.09,208.96z"/>
				<path class="st42" d="M215.48,208.89l-0.17-0.72l-0.35,0.82l-0.15,0.03l-0.2-0.89l0.16-0.03l0.15,0.71l0.35-0.81l0.13-0.02
					l0.17,0.71l0.34-0.81l0.16-0.03l-0.43,1.02L215.48,208.89z"/>
				<path class="st42" d="M216.11,208.3c0.04-0.28,0.25-0.53,0.54-0.59c0.3-0.06,0.46,0.13,0.43,0.41
					c-0.03,0.28-0.25,0.54-0.55,0.59C216.24,208.77,216.08,208.57,216.11,208.3z M216.92,208.15c0.03-0.2-0.07-0.35-0.28-0.31
					c-0.21,0.04-0.34,0.24-0.37,0.43c-0.03,0.19,0.07,0.35,0.28,0.31C216.76,208.54,216.9,208.34,216.92,208.15z"/>
				<path class="st42" d="M217.26,208.55l0.12-0.96l0.15-0.03l-0.02,0.15c0.09-0.12,0.21-0.21,0.35-0.24l-0.01,0.16
					c-0.02,0-0.04,0-0.06,0c-0.1,0.02-0.23,0.12-0.29,0.2l-0.08,0.68L217.26,208.55z"/>
				<path class="st42" d="M218.6,208.28l-0.3-0.36l-0.18,0.19l-0.03,0.28l-0.15,0.03l0.16-1.33l0.15-0.03l-0.1,0.87l0.58-0.6
					l0.2-0.03l-0.48,0.52l0.38,0.45L218.6,208.28z"/>
				<path class="st42" d="M220.13,208.01c-0.38,0.08-0.66-0.17-0.62-0.55c0.04-0.38,0.4-0.75,0.77-0.82
					c0.38-0.07,0.66,0.17,0.61,0.55C220.87,207.57,220.52,207.94,220.13,208.01z M220.29,206.71c-0.35,0.07-0.66,0.41-0.7,0.74
					c-0.04,0.34,0.22,0.56,0.56,0.5c0.35-0.07,0.66-0.42,0.7-0.75C220.89,206.86,220.64,206.63,220.29,206.71z M220.49,207.56
					c-0.08,0.1-0.19,0.17-0.32,0.19c-0.23,0.05-0.4-0.1-0.37-0.35c0.03-0.24,0.24-0.46,0.48-0.5c0.12-0.03,0.22,0.01,0.28,0.08
					l-0.06,0.06c-0.05-0.06-0.14-0.09-0.23-0.07c-0.18,0.03-0.37,0.21-0.39,0.43c-0.03,0.21,0.12,0.33,0.31,0.3
					c0.09-0.02,0.2-0.09,0.26-0.16L220.49,207.56z"/>
				<path class="st42" d="M222.57,207.51l-0.08-0.27l-0.67,0.13l-0.16,0.32l-0.19,0.04l0.7-1.43l0.21-0.04l0.39,1.22L222.57,207.51z
					 M222.25,206.45l-0.37,0.77l0.57-0.11L222.25,206.45z"/>
				<path class="st42" d="M223.09,207.27l-0.06,0.51l-0.15,0.03l0.16-1.33l0.15-0.03l-0.02,0.14c0.08-0.11,0.21-0.21,0.35-0.23
					c0.26-0.05,0.42,0.1,0.38,0.42c-0.04,0.31-0.24,0.53-0.5,0.58C223.27,207.4,223.16,207.36,223.09,207.27z M223.75,206.82
					c0.03-0.21-0.08-0.35-0.27-0.31c-0.12,0.02-0.25,0.12-0.31,0.21l-0.05,0.43c0.04,0.07,0.15,0.12,0.27,0.1
					C223.58,207.21,223.72,207.04,223.75,206.82z"/>
				<path class="st42" d="M224.25,207.05l-0.06,0.52l-0.16,0.03l0.16-1.33l0.15-0.03l-0.02,0.14c0.08-0.11,0.21-0.2,0.35-0.23
					c0.26-0.05,0.42,0.11,0.38,0.42c-0.04,0.31-0.24,0.54-0.5,0.58C224.44,207.19,224.32,207.13,224.25,207.05z M224.9,206.59
					c0.02-0.21-0.07-0.35-0.27-0.31c-0.12,0.02-0.25,0.11-0.31,0.2l-0.05,0.44c0.04,0.07,0.16,0.12,0.28,0.1
					C224.74,206.99,224.88,206.81,224.9,206.59z"/>
				<path class="st42" d="M225.24,207l0.16-1.33l0.15-0.03l-0.16,1.33L225.24,207z"/>
				<path class="st42" d="M225.7,206.44c0.03-0.28,0.26-0.55,0.54-0.6c0.3-0.06,0.44,0.14,0.41,0.43v0.04l-0.78,0.15
					c-0.01,0.18,0.1,0.31,0.31,0.27c0.11-0.02,0.23-0.09,0.32-0.18l0.06,0.08c-0.11,0.11-0.25,0.2-0.41,0.23
					C225.85,206.91,225.66,206.74,225.7,206.44z M226.22,205.97c-0.21,0.04-0.33,0.24-0.36,0.38l0.65-0.13
					C226.52,206.08,226.44,205.93,226.22,205.97z"/>
				<path class="st42" d="M204.97,213.25l-0.39-1.22l0.19-0.04l0.32,1.05l0.58-1.23l0.19-0.04l-0.69,1.43L204.97,213.25z"/>
				<path class="st42" d="M205.78,212.63c0.04-0.28,0.26-0.54,0.54-0.6c0.3-0.06,0.45,0.14,0.41,0.43v0.04l-0.78,0.15
					c-0.01,0.18,0.1,0.31,0.31,0.27c0.12-0.02,0.24-0.08,0.32-0.18l0.06,0.08c-0.11,0.12-0.25,0.2-0.41,0.22
					C205.93,213.09,205.75,212.92,205.78,212.63z M206.3,212.16c-0.21,0.04-0.34,0.23-0.36,0.38l0.65-0.12
					C206.6,212.27,206.52,212.12,206.3,212.16z"/>
				<path class="st42" d="M206.92,212.41c0.03-0.28,0.25-0.54,0.54-0.59c0.18-0.04,0.28,0.02,0.34,0.1l-0.11,0.11
					c-0.05-0.08-0.13-0.09-0.24-0.08c-0.21,0.04-0.36,0.23-0.38,0.44c-0.03,0.21,0.09,0.35,0.3,0.31c0.1-0.02,0.19-0.08,0.26-0.17
					l0.09,0.07c-0.09,0.11-0.2,0.21-0.38,0.24C207.05,212.87,206.89,212.69,206.92,212.41z"/>
				<path class="st42" d="M207.98,212.48l0.08-0.62l-0.17,0.04l0.02-0.14l0.16-0.03l0.03-0.26l0.15-0.03l-0.03,0.26l0.2-0.04
					l-0.02,0.13l-0.2,0.04l-0.07,0.59c-0.01,0.07,0.01,0.12,0.08,0.11c0.04-0.01,0.08-0.04,0.11-0.06l0.03,0.11
					c-0.04,0.05-0.1,0.08-0.19,0.1C208.02,212.69,207.96,212.62,207.98,212.48z"/>
				<path class="st42" d="M208.51,212.1c0.04-0.28,0.25-0.53,0.55-0.59c0.3-0.06,0.46,0.13,0.43,0.41
					c-0.03,0.28-0.24,0.54-0.55,0.59C208.64,212.57,208.48,212.38,208.51,212.1z M209.32,211.94c0.02-0.2-0.07-0.35-0.28-0.31
					c-0.21,0.04-0.35,0.24-0.37,0.44c-0.03,0.2,0.07,0.35,0.27,0.31C209.16,212.34,209.3,212.14,209.32,211.94z"/>
				<path class="st42" d="M209.67,212.35l0.12-0.96l0.15-0.03l-0.02,0.16c0.09-0.12,0.22-0.21,0.35-0.24l-0.02,0.16
					c-0.02,0-0.04,0.01-0.06,0.01c-0.1,0.02-0.24,0.12-0.29,0.21l-0.08,0.68L209.67,212.35z"/>
				<path class="st42" d="M210.86,212.11l0.16-1.32l0.15-0.03l-0.16,1.33L210.86,212.11z"/>
				<path class="st42" d="M211.32,211.55c0.03-0.27,0.25-0.54,0.54-0.6c0.3-0.05,0.46,0.13,0.42,0.41
					c-0.03,0.28-0.25,0.54-0.54,0.59C211.44,212.02,211.29,211.84,211.32,211.55z M212.12,211.4c0.03-0.19-0.07-0.35-0.28-0.31
					c-0.21,0.04-0.35,0.24-0.37,0.44c-0.02,0.2,0.07,0.35,0.28,0.31S212.1,211.6,212.12,211.4z"/>
				<path class="st42" d="M212.45,212.05l0.09-0.12c0.07,0.08,0.17,0.09,0.31,0.07c0.16-0.03,0.33-0.14,0.35-0.35l0.02-0.14
					c-0.08,0.11-0.21,0.21-0.35,0.23c-0.26,0.05-0.42-0.1-0.38-0.41c0.04-0.31,0.24-0.54,0.5-0.58c0.13-0.03,0.25,0.02,0.31,0.11
					l0.02-0.14l0.15-0.03l-0.11,0.94c-0.04,0.31-0.28,0.45-0.52,0.5C212.65,212.14,212.55,212.13,212.45,212.05z M213.21,211.39
					l0.05-0.42c-0.05-0.07-0.16-0.12-0.28-0.1c-0.2,0.04-0.33,0.21-0.36,0.43c-0.02,0.21,0.08,0.34,0.28,0.3
					C213.02,211.58,213.15,211.49,213.21,211.39z"/>
				<path class="st42" d="M213.64,211.11c0.03-0.28,0.25-0.53,0.54-0.59c0.3-0.06,0.46,0.13,0.43,0.41
					c-0.04,0.28-0.25,0.54-0.55,0.59C213.77,211.58,213.61,211.39,213.64,211.11z M214.44,210.95c0.03-0.19-0.07-0.35-0.28-0.3
					c-0.21,0.04-0.35,0.24-0.37,0.43c-0.02,0.2,0.08,0.35,0.28,0.31C214.28,211.35,214.42,211.15,214.44,210.95z"/>
				<path class="st42" d="M215.31,211.25l0.16-1.32l0.15-0.03l-0.06,0.51c0.09-0.12,0.22-0.21,0.35-0.24
					c0.26-0.05,0.42,0.12,0.38,0.43c-0.04,0.31-0.24,0.54-0.5,0.58c-0.14,0.03-0.25-0.02-0.31-0.1l-0.02,0.14L215.31,211.25z
					 M215.78,211.06c0.2-0.04,0.33-0.22,0.36-0.44c0.02-0.21-0.08-0.35-0.27-0.31c-0.12,0.03-0.25,0.12-0.32,0.22l-0.05,0.43
					C215.54,211.04,215.65,211.08,215.78,211.06z"/>
				<path class="st42" d="M216.42,211.27c0.02,0.01,0.06,0.01,0.08,0c0.07-0.01,0.11-0.04,0.16-0.13l0.08-0.16l-0.29-0.89l0.17-0.04
					l0.24,0.72l0.42-0.85l0.16-0.03l-0.62,1.25c-0.08,0.15-0.19,0.23-0.32,0.25c-0.03,0-0.08,0.01-0.11,0L216.42,211.27z"/>
				<path class="st42" d="M218.4,210.65l-0.39-1.22l0.19-0.04l0.32,1.05l0.59-1.23l0.2-0.04l-0.71,1.43L218.4,210.65z"/>
				<path class="st42" d="M219.2,210.03c0.04-0.28,0.25-0.54,0.54-0.59c0.3-0.06,0.46,0.13,0.43,0.41c-0.03,0.28-0.25,0.54-0.54,0.6
					C219.34,210.5,219.18,210.31,219.2,210.03z M220.01,209.87c0.02-0.19-0.07-0.35-0.28-0.31c-0.21,0.04-0.35,0.24-0.37,0.44
					c-0.02,0.2,0.07,0.35,0.28,0.31C219.85,210.27,219.99,210.07,220.01,209.87z"/>
				<path class="st42" d="M220.37,209.81c0.03-0.28,0.24-0.54,0.54-0.6c0.3-0.06,0.46,0.13,0.42,0.41c-0.03,0.29-0.24,0.55-0.53,0.6
					C220.5,210.28,220.33,210.08,220.37,209.81z M221.17,209.65c0.03-0.2-0.07-0.35-0.28-0.31c-0.21,0.04-0.35,0.25-0.37,0.44
					c-0.02,0.2,0.08,0.35,0.28,0.31C221.01,210.05,221.14,209.84,221.17,209.65z"/>
				<path class="st42" d="M221.52,210.05l0.12-0.95l0.15-0.03l-0.02,0.15c0.09-0.11,0.21-0.21,0.35-0.24l-0.02,0.15
					c-0.02,0-0.03,0-0.06,0.01c-0.09,0.02-0.23,0.12-0.28,0.21l-0.09,0.67L221.52,210.05z"/>
				<path class="st42" d="M223.37,209.7l0.08-0.65c0.02-0.12-0.03-0.19-0.16-0.17c-0.1,0.02-0.22,0.11-0.28,0.2l-0.08,0.7
					l-0.15,0.03l0.08-0.65c0.01-0.12-0.03-0.19-0.16-0.16c-0.1,0.02-0.21,0.12-0.28,0.21l-0.09,0.7l-0.15,0.03l0.11-0.95l0.15-0.03
					l-0.02,0.14c0.05-0.07,0.19-0.2,0.34-0.23c0.15-0.03,0.23,0.04,0.24,0.13c0.06-0.1,0.21-0.21,0.35-0.25
					c0.18-0.03,0.26,0.05,0.24,0.24l-0.08,0.69L223.37,209.7z"/>
				<path class="st42" d="M223.82,209.14c0.04-0.28,0.26-0.53,0.54-0.59c0.3-0.06,0.45,0.14,0.41,0.42V209l-0.78,0.15
					c-0.01,0.18,0.1,0.31,0.31,0.27c0.12-0.02,0.23-0.09,0.32-0.18l0.06,0.08c-0.11,0.12-0.25,0.19-0.41,0.22
					C223.96,209.6,223.79,209.44,223.82,209.14z M224.34,208.66c-0.21,0.04-0.33,0.24-0.36,0.39l0.64-0.12
					C224.64,208.78,224.56,208.62,224.34,208.66z"/>
				<path class="st42" d="M225.66,209.25l0.02-0.15c-0.08,0.11-0.21,0.21-0.35,0.23c-0.25,0.05-0.41-0.11-0.38-0.43
					c0.04-0.31,0.24-0.54,0.5-0.59c0.14-0.02,0.25,0.02,0.31,0.11l0.06-0.52l0.15-0.03l-0.16,1.33L225.66,209.25z M225.7,208.99
					l0.05-0.44c-0.04-0.07-0.15-0.12-0.28-0.1c-0.2,0.04-0.33,0.22-0.36,0.43c-0.02,0.22,0.08,0.35,0.28,0.31
					C225.51,209.17,225.63,209.08,225.7,208.99z"/>
				<path class="st42" d="M226.24,207.97c0.01-0.05,0.06-0.11,0.12-0.12c0.06-0.01,0.1,0.03,0.09,0.08
					c-0.01,0.06-0.06,0.11-0.12,0.12C226.26,208.06,226.22,208.03,226.24,207.97z M226.12,209.16l0.11-0.95l0.16-0.03l-0.11,0.95
					L226.12,209.16z"/>
				<path class="st42" d="M227.18,208.96l0.02-0.11c-0.09,0.1-0.21,0.17-0.34,0.2c-0.17,0.03-0.33-0.04-0.3-0.26
					c0.03-0.22,0.21-0.35,0.38-0.39c0.14-0.02,0.24-0.01,0.31,0.07l0.02-0.18c0.01-0.12-0.08-0.18-0.23-0.15
					c-0.12,0.02-0.21,0.08-0.32,0.19l-0.06-0.09c0.12-0.13,0.25-0.2,0.41-0.23c0.21-0.04,0.37,0.02,0.34,0.25l-0.08,0.65
					L227.18,208.96z M227.21,208.75l0.02-0.19c-0.05-0.06-0.15-0.08-0.25-0.06c-0.14,0.02-0.25,0.13-0.27,0.26
					c-0.02,0.12,0.07,0.19,0.21,0.16C227.03,208.9,227.14,208.84,227.21,208.75z"/>
			</g>
		</g>
		<g>
			<defs>
				<path id="SVGID_31_" d="M152.27,128.75c19.54-11.74,38.84-21.93,57.15-30.37l-0.9-3.2c-0.49-1.61-1.1-2.66-3.52-2.42
					L28.33,124.28c-0.24,0.04-0.45,0.1-0.63,0.16l14.18,93.18C63.75,190.76,103.38,158.13,152.27,128.75z"/>
			</defs>
			<clipPath id="SVGID_32_">
				<use xlink:href="#SVGID_31_"  style="overflow:visible;"/>
			</clipPath>
			<linearGradient id="SVGID_33_" gradientUnits="userSpaceOnUse" x1="184.9849" y1="299.8105" x2="114.1143" y2="94.1369">
				<stop  offset="0" style="stop-color:#FFFFFF"/>
				<stop  offset="1" style="stop-color:#FFFFFF;stop-opacity:0"/>
			</linearGradient>
			<rect x="-4.03" y="41.44" class="st17" width="278.53" height="227.98"/>
		</g>
	</g>
	<g>
	</g>
	<g>
	</g>
	<g>
	</g>
	<g>
	</g>
	<g>
	</g>
	<g>
	</g>
</g>
</svg>
