<?xml version="1.0" encoding="utf-8"?>
<!-- Generator: Adobe Illustrator 16.0.0, SVG Export Plug-In . SVG Version: 6.00 Build 0)  -->
<!DOCTYPE svg PUBLIC "-//W3C//DTD SVG 1.1//EN" "http://www.w3.org/Graphics/SVG/1.1/DTD/svg11.dtd">
<svg version="1.1" id="Layer_1" xmlns="http://www.w3.org/2000/svg" xmlns:xlink="http://www.w3.org/1999/xlink" x="0px" y="0px"
	 width="50px" height="50px" viewBox="0 0 50 50" style="enable-background:new 0 0 50 50;" xml:space="preserve">
<style type="text/css">
<![CDATA[
	.st0{fill:#404040;stroke:#000000;stroke-width:0.5;stroke-miterlimit:10;}
	.st1{stroke:#000000;stroke-width:0.5;stroke-miterlimit:10;}
	.st2{fill:#DFDFDF;stroke:#000000;stroke-width:0.5;stroke-miterlimit:10;}
	.st3{fill:#787878;}
	.st4{fill:#808080;stroke:#000000;stroke-width:0.5;stroke-miterlimit:10;}
]]>
</style>
<path class="st3" d="M42.5,38.12c0,2.42-1.96,4.38-4.38,4.38H11.88c-2.42,0-4.38-1.96-4.38-4.38V11.88c0-2.42,1.96-4.38,4.38-4.38
	h26.25c2.42,0,4.38,1.96,4.38,4.38L42.5,38.12L42.5,38.12z"/>
<g>
	<g>
		<g>
		</g>
		<g>
			<g>
				<path class="st0" d="M25.38,24.83v-5.65c3.12,0,5.65,2.53,5.65,5.65c0,2.23-1.17,4.1-3.17,5.08L25.38,24.83z"/>
			</g>
		</g>
		<g>
			<g>
				<path class="st4" d="M25.38,24.83l2.48,5.08c-2.8,1.37-6.19,0.2-7.56-2.6c-0.19-0.4-0.33-0.77-0.43-1.21L25.38,24.83z"/>
			</g>
		</g>
		<g>
			<g>
				<path class="st2" d="M25.38,24.83l-5.51,1.27c-0.6-2.61,0.62-5.18,3.03-6.35L25.38,24.83z"/>
			</g>
		</g>
		<g>
			<g>
				<path class="st1" d="M25.38,24.83l-2.48-5.08c0.8-0.39,1.59-0.57,2.48-0.57V24.83z"/>
			</g>
		</g>
	</g>
	<g>
		<g>
		</g>
		<g>
		</g>
		<g>
		</g>
		<g>
		</g>
		<g>
		</g>
	</g>
</g>
</svg>
