<?xml version="1.0" encoding="utf-8"?>
<!-- Generator: Adobe Illustrator 16.0.0, SVG Export Plug-In . SVG Version: 6.00 Build 0)  -->
<!DOCTYPE svg PUBLIC "-//W3C//DTD SVG 1.1//EN" "http://www.w3.org/Graphics/SVG/1.1/DTD/svg11.dtd">
<svg version="1.1" id="Layer_1" xmlns="http://www.w3.org/2000/svg" xmlns:xlink="http://www.w3.org/1999/xlink" x="0px" y="0px"
	 width="50px" height="50px" viewBox="0 0 50 50" style="enable-background:new 0 0 50 50;" xml:space="preserve">
<style type="text/css">
<![CDATA[
	.st0{opacity:0.5;fill:#787878;enable-background:new    ;}
]]>
</style>
<path class="st0" d="M42.5,38.12c0,2.42-1.96,4.38-4.38,4.38H11.88c-2.42,0-4.38-1.96-4.38-4.38V11.88c0-2.42,1.96-4.38,4.38-4.38
	h26.25c2.42,0,4.38,1.96,4.38,4.38L42.5,38.12L42.5,38.12z"/>
<path class="st0" d="M45.16,42.21c0,1.82-1.3,3.29-2.92,3.29H24.75c-1.61,0-2.92-1.47-2.92-3.29V22.46c0-1.82,1.31-3.3,2.92-3.3
	h17.5c1.61,0,2.92,1.47,2.92,3.3L45.16,42.21L45.16,42.21z"/>
</svg>
