<?xml version="1.0" encoding="utf-8"?>
<!-- Generator: Adobe Illustrator 16.0.0, SVG Export Plug-In . SVG Version: 6.00 Build 0)  -->
<!DOCTYPE svg PUBLIC "-//W3C//DTD SVG 1.1//EN" "http://www.w3.org/Graphics/SVG/1.1/DTD/svg11.dtd">
<svg version="1.1" id="Layer_1" xmlns="http://www.w3.org/2000/svg" xmlns:xlink="http://www.w3.org/1999/xlink" x="0px" y="0px"
	 width="50px" height="50px" viewBox="0 0 50 50" style="enable-background:new 0 0 50 50;" xml:space="preserve">
<style type="text/css">
<![CDATA[
	.st0{enable-background:new    ;}
	.st1{fill:#DDDDDD;}
]]>
</style>
<path class="st1" d="M42.5,38.12c0,2.42-1.96,4.38-4.38,4.38H11.88c-2.42,0-4.38-1.96-4.38-4.38V11.88c0-2.42,1.96-4.38,4.38-4.38
	h26.25c2.42,0,4.38,1.96,4.38,4.38L42.5,38.12L42.5,38.12z"/>
<g class="st0">
	<path d="M16.43,28.21l0.19,1.15c-0.37,0.08-0.69,0.12-0.98,0.12c-0.47,0-0.84-0.08-1.1-0.22s-0.44-0.35-0.55-0.59
		s-0.16-0.75-0.16-1.54v-4.42h-0.95V21.7h0.95v-1.9l1.29-0.78v2.68h1.31v1.01h-1.31v4.49c0,0.37,0.02,0.61,0.07,0.72
		c0.05,0.11,0.12,0.19,0.22,0.25c0.1,0.06,0.25,0.09,0.44,0.09C16.01,28.26,16.2,28.24,16.43,28.21z"/>
	<path d="M22.96,26.9l1.34,0.17c-0.21,0.79-0.6,1.39-1.18,1.83c-0.57,0.43-1.31,0.65-2.2,0.65c-1.12,0-2.01-0.35-2.67-1.04
		s-0.99-1.66-0.99-2.91c0-1.29,0.33-2.29,1-3.01s1.53-1.07,2.59-1.07c1.03,0,1.86,0.35,2.52,1.05c0.65,0.7,0.98,1.68,0.98,2.95
		c0,0.08,0,0.19-0.01,0.35h-5.72c0.05,0.84,0.29,1.49,0.72,1.94c0.43,0.45,0.96,0.67,1.6,0.67c0.48,0,0.88-0.12,1.22-0.38
		C22.49,27.85,22.76,27.45,22.96,26.9z M18.69,24.8h4.29c-0.06-0.65-0.22-1.13-0.49-1.45c-0.41-0.5-0.95-0.75-1.61-0.75
		c-0.6,0-1.1,0.2-1.51,0.6C18.96,23.59,18.73,24.13,18.69,24.8z"/>
	<path d="M25.42,27.08l1.29-0.2c0.07,0.52,0.27,0.91,0.6,1.18c0.33,0.28,0.79,0.41,1.38,0.41c0.6,0,1.04-0.12,1.33-0.36
		c0.29-0.24,0.43-0.53,0.43-0.86c0-0.29-0.13-0.53-0.38-0.69c-0.18-0.12-0.62-0.26-1.33-0.44c-0.95-0.24-1.62-0.45-1.98-0.63
		c-0.37-0.18-0.65-0.42-0.84-0.73s-0.29-0.65-0.29-1.03c0-0.34,0.08-0.66,0.24-0.95c0.16-0.29,0.37-0.53,0.64-0.73
		c0.2-0.15,0.48-0.28,0.83-0.38s0.72-0.16,1.12-0.16c0.6,0,1.13,0.09,1.59,0.26s0.79,0.41,1.01,0.71c0.22,0.3,0.37,0.69,0.45,1.19
		l-1.27,0.17c-0.06-0.4-0.23-0.7-0.5-0.93c-0.28-0.22-0.67-0.33-1.18-0.33c-0.6,0-1.02,0.1-1.28,0.3c-0.26,0.2-0.38,0.43-0.38,0.69
		c0,0.17,0.05,0.32,0.16,0.46c0.11,0.14,0.27,0.26,0.5,0.35c0.13,0.05,0.51,0.16,1.15,0.33c0.92,0.25,1.56,0.45,1.93,0.6
		s0.65,0.38,0.86,0.68s0.31,0.67,0.31,1.11c0,0.43-0.13,0.84-0.38,1.22c-0.25,0.38-0.62,0.68-1.1,0.89
		c-0.48,0.21-1.02,0.31-1.62,0.31c-1,0-1.76-0.21-2.28-0.62C25.89,28.51,25.56,27.9,25.42,27.08z"/>
	<path d="M36.18,28.21l0.19,1.15c-0.37,0.08-0.69,0.12-0.98,0.12c-0.47,0-0.84-0.08-1.1-0.22c-0.26-0.15-0.44-0.35-0.55-0.59
		s-0.16-0.75-0.16-1.54v-4.42h-0.95V21.7h0.95v-1.9l1.29-0.78v2.68h1.31v1.01h-1.31v4.49c0,0.37,0.02,0.61,0.07,0.72
		c0.04,0.11,0.12,0.19,0.22,0.25c0.1,0.06,0.25,0.09,0.44,0.09C35.75,28.26,35.94,28.24,36.18,28.21z"/>
</g>
</svg>
