<?xml version="1.0" encoding="utf-8"?>
<!-- Generator: Adobe Illustrator 16.0.0, SVG Export Plug-In . SVG Version: 6.00 Build 0)  -->
<!DOCTYPE svg PUBLIC "-//W3C//DTD SVG 1.1//EN" "http://www.w3.org/Graphics/SVG/1.1/DTD/svg11.dtd">
<svg version="1.1" id="Layer_1" xmlns="http://www.w3.org/2000/svg" xmlns:xlink="http://www.w3.org/1999/xlink" x="0px" y="0px"
	 width="50px" height="50px" viewBox="0 0 50 50" style="enable-background:new 0 0 50 50;" xml:space="preserve">
<style type="text/css">
<![CDATA[
	.st0{fill:#787878;}
]]>
</style>
<g>
	<path class="st0" d="M42.5,38.12c0,2.42-1.86,3.51-4.25,2.73c-8.61-2.82-17.9-2.82-26.51,0c-2.38,0.78-4.25-0.31-4.25-2.73
		c0-8.75,0-17.49,0-26.24c0-2.42,1.86-5.25,4.25-6.03c8.61-2.83,17.91-2.83,26.52,0c2.38,0.78,4.25,3.61,4.25,6.03
		C42.51,20.63,42.51,29.37,42.5,38.12C42.51,38.12,42.5,38.12,42.5,38.12z"/>
</g>
</svg>
